<svg xmlns="http://www.w3.org/2000/svg" xmlns:xlink="http://www.w3.org/1999/xlink" width="300" zoomAndPan="magnify" viewBox="0 0 224.87999 233.04" height="300" preserveAspectRatio="xMidYMid meet" version="1.0"><defs><clipPath id="7b66c9a07a"><path d="M 39.015625 13.152344 L 186.160156 13.152344 L 186.160156 211 L 39.015625 211 Z M 39.015625 13.152344 " clip-rule="nonzero"/></clipPath><clipPath id="78e4ae3c1e"><path d="M 133 13.152344 L 186.160156 13.152344 L 186.160156 66 L 133 66 Z M 133 13.152344 " clip-rule="nonzero"/></clipPath></defs><g clip-path="url(#7b66c9a07a)"><path fill="#006fe8" d="M 186.160156 65.699219 L 186.160156 200.832031 C 186.160156 201.5 186.09375 202.160156 185.964844 202.816406 C 185.832031 203.46875 185.640625 204.105469 185.386719 204.722656 C 185.128906 205.335938 184.816406 205.921875 184.445312 206.476562 C 184.074219 207.03125 183.652344 207.546875 183.179688 208.015625 C 182.707031 208.488281 182.195312 208.910156 181.636719 209.28125 C 181.082031 209.652344 180.496094 209.964844 179.878906 210.21875 C 179.261719 210.476562 178.625 210.667969 177.972656 210.796875 C 177.316406 210.929688 176.65625 210.992188 175.988281 210.992188 L 49.191406 210.992188 C 48.523438 210.992188 47.859375 210.929688 47.207031 210.796875 C 46.550781 210.667969 45.914062 210.476562 45.296875 210.21875 C 44.679688 209.964844 44.09375 209.652344 43.539062 209.28125 C 42.984375 208.910156 42.46875 208.488281 41.996094 208.015625 C 41.523438 207.546875 41.101562 207.03125 40.730469 206.476562 C 40.359375 205.921875 40.046875 205.335938 39.792969 204.722656 C 39.535156 204.105469 39.34375 203.46875 39.210938 202.816406 C 39.082031 202.160156 39.015625 201.5 39.015625 200.832031 L 39.015625 23.40625 C 39.015625 22.738281 39.082031 22.078125 39.210938 21.421875 C 39.34375 20.769531 39.535156 20.132812 39.792969 19.515625 C 40.046875 18.898438 40.359375 18.316406 40.730469 17.761719 C 41.101562 17.207031 41.523438 16.691406 41.996094 16.21875 C 42.46875 15.75 42.984375 15.328125 43.539062 14.957031 C 44.09375 14.585938 44.679688 14.273438 45.296875 14.019531 C 45.914062 13.761719 46.550781 13.570312 47.207031 13.4375 C 47.859375 13.308594 48.523438 13.242188 49.191406 13.242188 L 133.640625 13.242188 Z M 186.160156 65.699219 " fill-opacity="1" fill-rule="nonzero"/></g><g clip-path="url(#78e4ae3c1e)"><path fill="#5aa9ff" d="M 186.160156 65.699219 L 137.910156 65.699219 C 137.628906 65.699219 137.351562 65.671875 137.074219 65.617188 C 136.800781 65.5625 136.535156 65.480469 136.277344 65.375 C 136.015625 65.265625 135.769531 65.132812 135.539062 64.980469 C 135.304688 64.824219 135.089844 64.648438 134.890625 64.449219 C 134.695312 64.25 134.515625 64.035156 134.359375 63.804688 C 134.207031 63.570312 134.074219 63.324219 133.964844 63.066406 C 133.859375 62.808594 133.777344 62.542969 133.722656 62.265625 C 133.667969 61.992188 133.640625 61.714844 133.640625 61.4375 L 133.640625 13.242188 Z M 186.160156 65.699219 " fill-opacity="1" fill-rule="nonzero"/></g><path fill="#ffffff" d="M 76.742188 120.980469 L 65.277344 120.980469 L 65.277344 151.554688 L 76.742188 151.554688 C 86.511719 151.554688 92.792969 145.328125 92.792969 136.269531 C 92.789062 127.164062 86.511719 120.980469 76.742188 120.980469 Z M 76.265625 145.109375 L 72.734375 145.109375 L 72.734375 127.339844 L 76.265625 127.339844 C 81.890625 127.339844 85.203125 130.648438 85.203125 136.269531 C 85.203125 141.886719 81.890625 145.109375 76.265625 145.109375 Z M 76.265625 145.109375 " fill-opacity="1" fill-rule="nonzero"/><path fill="#ffffff" d="M 111.453125 120.546875 C 102.777344 120.546875 95.710938 126.988281 95.710938 136.179688 C 95.710938 145.371094 102.777344 151.859375 111.453125 151.859375 C 120.132812 151.859375 127.109375 145.371094 127.109375 136.179688 C 127.109375 126.992188 120.175781 120.546875 111.453125 120.546875 Z M 111.453125 145.066406 C 106.488281 145.066406 103.34375 141.539062 103.34375 136.179688 C 103.34375 130.734375 106.484375 127.292969 111.453125 127.292969 C 116.339844 127.292969 119.519531 130.730469 119.519531 136.179688 C 119.519531 141.539062 116.339844 145.066406 111.453125 145.066406 Z M 111.453125 145.066406 " fill-opacity="1" fill-rule="nonzero"/><path fill="#ffffff" d="M 145.292969 145.023438 C 140.714844 145.023438 137.574219 141.625 137.574219 136.222656 C 137.574219 130.824219 140.714844 127.425781 145.292969 127.425781 C 148.128906 127.425781 150.4375 128.734375 151.703125 131.347656 L 159.902344 131.347656 C 158.15625 124.726562 152.664062 120.632812 145.378906 120.632812 C 136.355469 120.632812 129.988281 127.074219 129.988281 136.222656 C 129.988281 145.371094 136.355469 151.777344 145.378906 151.777344 C 152.664062 151.777344 158.15625 147.726562 159.902344 141.105469 L 151.703125 141.105469 C 150.4375 143.714844 148.128906 145.023438 145.292969 145.023438 Z M 145.292969 145.023438 " fill-opacity="1" fill-rule="nonzero"/></svg>