<svg xmlns="http://www.w3.org/2000/svg" xmlns:xlink="http://www.w3.org/1999/xlink" width="600" zoomAndPan="magnify" viewBox="0 0 450 307.91998" height="400" preserveAspectRatio="xMidYMid meet" version="1.0"><defs><clipPath id="244e6f6c23"><path d="M 163.128906 79.109375 L 259.855469 79.109375 L 259.855469 199.078125 L 163.128906 199.078125 Z M 163.128906 79.109375 " clip-rule="nonzero"/></clipPath></defs><g clip-path="url(#244e6f6c23)"><path fill="#d9d9d9" d="M 167.6875 133.054688 L 167.605469 133.054688 C 166.394531 133.054688 165.230469 133.566406 164.40625 134.449219 C 163.582031 135.335938 163.160156 136.539062 163.246094 137.742188 L 167.421875 195.015625 C 167.589844 197.285156 169.503906 199.066406 171.78125 199.066406 L 243.21875 199.066406 C 243.328125 199.066406 243.433594 199.039062 243.539062 199.035156 C 243.59375 199.039062 243.636719 199.0625 243.691406 199.0625 C 245.964844 199.0625 247.882812 197.292969 248.0625 195.027344 L 249.015625 182.542969 L 259.625 153.074219 C 259.636719 153.039062 259.632812 153 259.640625 152.960938 C 259.671875 152.851562 259.6875 152.738281 259.691406 152.621094 C 259.695312 152.5625 259.699219 152.503906 259.691406 152.445312 C 259.679688 152.296875 259.644531 152.148438 259.585938 152.011719 C 259.578125 151.992188 259.578125 151.972656 259.570312 151.953125 L 252.15625 136.195312 C 252.132812 136.144531 252.085938 136.109375 252.058594 136.0625 C 252 135.96875 251.941406 135.882812 251.871094 135.808594 C 251.816406 135.75 251.757812 135.707031 251.695312 135.660156 C 251.621094 135.605469 251.542969 135.558594 251.460938 135.519531 C 251.414062 135.496094 251.378906 135.457031 251.332031 135.441406 L 230.078125 127.800781 C 227.820312 126.996094 225.316406 128.179688 224.484375 130.441406 L 222.367188 136.332031 L 209.71875 136.332031 L 206.175781 117.410156 L 241.589844 128.886719 C 242.039062 129.03125 242.492188 129.097656 242.9375 129.097656 C 244.792969 129.097656 246.515625 127.914062 247.117188 126.0625 L 256.355469 97.539062 C 257.101562 95.238281 255.835938 92.757812 253.535156 92.011719 L 214.300781 79.300781 C 213.183594 78.941406 211.996094 79.035156 210.949219 79.566406 C 209.90625 80.101562 209.132812 81.007812 208.769531 82.125 L 202.820312 100.484375 C 202.535156 99.898438 202.125 99.359375 201.585938 98.921875 C 201.394531 98.777344 201.195312 98.640625 201.085938 98.589844 C 200.152344 98.042969 199.058594 97.847656 198.007812 98.042969 L 166.75 103.910156 C 165.578125 104.125 164.558594 104.789062 163.886719 105.773438 C 163.214844 106.757812 162.96875 107.949219 163.195312 109.113281 L 167.6875 133.050781 Z M 251.011719 140.648438 L 255.421875 150.007812 L 249.894531 148.019531 C 249.53125 147.886719 249.242188 147.625 249.078125 147.277344 C 248.914062 146.925781 248.894531 146.535156 249.023438 146.171875 L 251.011719 140.644531 Z M 224.746094 138.378906 C 224.75 138.367188 224.753906 138.355469 224.757812 138.34375 L 227.238281 131.441406 C 227.519531 130.675781 228.335938 130.292969 229.09375 130.558594 L 248.960938 137.703125 L 247.683594 141.257812 L 231.125 135.304688 C 230.367188 135.035156 229.527344 135.425781 229.253906 136.1875 C 228.980469 136.949219 229.378906 137.785156 230.136719 138.058594 L 246.691406 144.011719 L 246.273438 145.179688 C 245.878906 146.277344 245.933594 147.464844 246.429688 148.523438 C 246.925781 149.578125 247.804688 150.378906 248.902344 150.773438 L 256.378906 153.460938 L 246.417969 181.125 L 245.613281 171.933594 C 245.917969 171.769531 246.175781 171.507812 246.300781 171.15625 C 246.574219 170.398438 246.179688 169.558594 245.421875 169.285156 L 245.382812 169.269531 L 244.359375 157.59375 L 249.023438 159.269531 C 249.183594 159.328125 249.351562 159.355469 249.515625 159.355469 C 250.117188 159.355469 250.679688 158.984375 250.894531 158.386719 C 251.167969 157.625 250.773438 156.789062 250.011719 156.515625 L 244.078125 154.382812 L 243.480469 147.566406 C 243.28125 145.292969 241.410156 143.578125 239.128906 143.578125 L 222.875 143.578125 L 224.746094 138.375 Z M 221.316406 139.261719 L 219.761719 143.582031 L 210.96875 143.582031 C 210.976562 143.265625 210.960938 142.949219 210.898438 142.628906 L 210.269531 139.261719 Z M 209.039062 146.511719 C 209.039062 146.511719 209.050781 146.507812 209.058594 146.507812 L 239.125 146.507812 C 239.882812 146.507812 240.5 147.074219 240.566406 147.828125 L 244.65625 194.574219 C 244.691406 194.980469 244.558594 195.371094 244.28125 195.675781 C 244.007812 195.976562 243.628906 196.144531 243.21875 196.144531 L 171.78125 196.144531 C 171.03125 196.144531 170.398438 195.554688 170.34375 194.804688 L 166.167969 137.535156 C 166.136719 137.128906 166.273438 136.742188 166.546875 136.445312 C 166.824219 136.148438 167.199219 135.984375 167.605469 135.984375 L 169.417969 135.984375 C 169.429688 135.984375 169.4375 135.992188 169.449219 135.992188 C 169.472656 135.992188 169.492188 135.988281 169.511719 135.984375 L 194.554688 135.984375 C 194.980469 135.984375 195.386719 136.171875 195.660156 136.5 L 202.753906 144.949219 C 203.585938 145.941406 204.804688 146.507812 206.101562 146.507812 L 209.027344 146.507812 C 209.027344 146.507812 209.035156 146.511719 209.039062 146.511719 Z M 244.335938 125.167969 C 244.085938 125.933594 243.261719 126.355469 242.492188 126.109375 L 239.542969 125.152344 C 239.523438 125.003906 239.496094 124.851562 239.425781 124.707031 L 234.171875 114.050781 L 238.589844 112.292969 C 239.289062 112.007812 240.097656 112.324219 240.425781 113.011719 L 245.097656 122.820312 Z M 211.558594 83.027344 C 211.808594 82.261719 212.632812 81.84375 213.402344 82.089844 L 252.636719 94.800781 C 253.007812 94.921875 253.3125 95.179688 253.488281 95.527344 C 253.667969 95.875 253.695312 96.269531 253.578125 96.644531 L 246.410156 118.765625 L 243.066406 111.75 C 242.082031 109.675781 239.636719 108.722656 237.503906 109.570312 L 232.871094 111.414062 L 225.996094 97.464844 C 224.996094 95.441406 222.648438 94.511719 220.535156 95.308594 L 205.777344 100.863281 L 211.554688 83.027344 Z M 202.316406 111.550781 L 204.625 104.425781 L 221.570312 98.046875 C 222.265625 97.785156 223.042969 98.089844 223.371094 98.761719 L 235.785156 123.933594 L 204.636719 113.84375 C 204.621094 113.839844 204.601562 113.832031 204.585938 113.824219 L 203.257812 113.394531 C 202.492188 113.148438 202.070312 112.320312 202.316406 111.550781 Z M 166.308594 107.429688 C 166.535156 107.09375 166.886719 106.863281 167.292969 106.789062 L 198.546875 100.921875 C 199 100.839844 199.378906 100.984375 199.683594 101.160156 C 199.734375 101.191406 199.785156 101.230469 199.796875 101.238281 C 199.996094 101.402344 200.253906 101.691406 200.339844 102.152344 L 201.054688 105.964844 L 199.535156 110.652344 C 198.789062 112.957031 200.054688 115.433594 202.359375 116.179688 L 203.007812 116.390625 L 208.027344 143.175781 C 208.050781 143.316406 208.039062 143.449219 208.027344 143.582031 L 206.097656 143.582031 C 205.671875 143.582031 205.269531 143.394531 204.992188 143.066406 L 203.355469 141.113281 C 203.71875 140.785156 203.925781 140.296875 203.828125 139.777344 C 203.679688 138.984375 202.925781 138.457031 202.121094 138.609375 L 201.371094 138.75 L 198.527344 135.363281 L 201.417969 134.820312 C 202.210938 134.671875 202.734375 133.90625 202.585938 133.113281 C 202.433594 132.320312 201.675781 131.796875 200.878906 131.949219 L 194.816406 133.085938 C 194.726562 133.078125 194.640625 133.054688 194.550781 133.054688 L 170.664062 133.054688 L 166.070312 108.570312 C 165.992188 108.171875 166.078125 107.765625 166.308594 107.429688 Z M 166.308594 107.429688 " fill-opacity="1" fill-rule="nonzero"/></g><path fill="#d9d9d9" d="M 171.621094 112.765625 C 171.710938 112.765625 171.800781 112.757812 171.890625 112.742188 L 196.421875 108.144531 C 197.214844 107.996094 197.738281 107.230469 197.589844 106.4375 C 197.441406 105.640625 196.679688 105.117188 195.882812 105.265625 L 171.351562 109.863281 C 170.558594 110.011719 170.035156 110.777344 170.183594 111.570312 C 170.316406 112.273438 170.929688 112.765625 171.621094 112.765625 Z M 171.621094 112.765625 " fill-opacity="1" fill-rule="nonzero"/><path fill="#d9d9d9" d="M 172.601562 116.535156 C 171.808594 116.683594 171.285156 117.449219 171.433594 118.242188 C 171.566406 118.945312 172.179688 119.433594 172.871094 119.433594 C 172.960938 119.433594 173.050781 119.429688 173.140625 119.410156 L 197.671875 114.8125 C 198.464844 114.664062 198.988281 113.898438 198.839844 113.105469 C 198.691406 112.3125 197.925781 111.789062 197.132812 111.9375 Z M 172.601562 116.535156 " fill-opacity="1" fill-rule="nonzero"/><path fill="#d9d9d9" d="M 173.851562 123.203125 C 173.058594 123.351562 172.535156 124.117188 172.683594 124.910156 C 172.816406 125.613281 173.429688 126.105469 174.121094 126.105469 C 174.207031 126.105469 174.300781 126.097656 174.390625 126.078125 L 198.917969 121.480469 C 199.714844 121.332031 200.234375 120.566406 200.089844 119.773438 C 199.9375 118.980469 199.175781 118.460938 198.382812 118.605469 Z M 173.851562 123.203125 " fill-opacity="1" fill-rule="nonzero"/><path fill="#d9d9d9" d="M 175.101562 129.871094 C 174.308594 130.019531 173.785156 130.785156 173.933594 131.578125 C 174.066406 132.28125 174.679688 132.773438 175.371094 132.773438 C 175.460938 132.773438 175.550781 132.765625 175.640625 132.746094 L 200.171875 128.152344 C 200.964844 128 201.488281 127.234375 201.339844 126.445312 C 201.191406 125.648438 200.421875 125.125 199.632812 125.273438 Z M 175.101562 129.871094 " fill-opacity="1" fill-rule="nonzero"/><path fill="#d9d9d9" d="M 241.964844 106.101562 C 242.476562 106.269531 243.003906 106.351562 243.523438 106.351562 C 244.308594 106.351562 245.089844 106.164062 245.808594 105.796875 C 247.007812 105.183594 247.898438 104.144531 248.3125 102.863281 C 248.726562 101.582031 248.617188 100.21875 248.003906 99.019531 C 247.394531 97.820312 246.351562 96.929688 245.070312 96.515625 C 243.789062 96.101562 242.425781 96.210938 241.226562 96.824219 C 240.027344 97.433594 239.140625 98.476562 238.726562 99.757812 C 238.308594 101.039062 238.421875 102.402344 239.03125 103.601562 C 239.644531 104.800781 240.6875 105.6875 241.964844 106.101562 Z M 241.507812 100.660156 C 241.683594 100.121094 242.054688 99.683594 242.558594 99.429688 C 242.859375 99.273438 243.1875 99.195312 243.515625 99.195312 C 243.734375 99.195312 243.953125 99.230469 244.167969 99.300781 C 244.707031 99.472656 245.144531 99.847656 245.398438 100.347656 C 245.65625 100.851562 245.703125 101.421875 245.527344 101.960938 C 245.355469 102.496094 244.980469 102.933594 244.480469 103.191406 C 243.976562 103.449219 243.40625 103.492188 242.867188 103.320312 C 242.332031 103.144531 241.894531 102.773438 241.636719 102.269531 C 241.382812 101.769531 241.335938 101.195312 241.507812 100.660156 Z M 241.507812 100.660156 " fill-opacity="1" fill-rule="nonzero"/><path fill="#d9d9d9" d="M 175.746094 189.910156 C 175.746094 190.71875 176.402344 191.371094 177.210938 191.371094 L 236.726562 191.371094 C 237.535156 191.371094 238.1875 190.71875 238.1875 189.910156 C 238.1875 189.101562 237.535156 188.445312 236.726562 188.445312 L 177.210938 188.445312 C 176.402344 188.445312 175.746094 189.101562 175.746094 189.910156 Z M 175.746094 189.910156 " fill-opacity="1" fill-rule="nonzero"/></svg>