<svg xmlns="http://www.w3.org/2000/svg" xmlns:xlink="http://www.w3.org/1999/xlink" width="600" zoomAndPan="magnify" viewBox="0 0 450 307.91998" height="400" preserveAspectRatio="xMidYMid meet" version="1.0"><defs><clipPath id="091d66c207"><path d="M 187.011719 115.558594 L 298.734375 115.558594 L 298.734375 235.527344 L 187.011719 235.527344 Z M 187.011719 115.558594 " clip-rule="nonzero"/></clipPath></defs><g clip-path="url(#091d66c207)"><path fill="#d9d9d9" d="M 282.269531 183.273438 L 298.144531 155.773438 C 299.394531 153.609375 298.652344 150.828125 296.484375 149.578125 L 280.863281 140.558594 L 280.863281 130.804688 C 280.863281 128.304688 278.828125 126.269531 276.328125 126.269531 L 256.113281 126.269531 L 238.605469 116.160156 C 236.4375 114.914062 233.660156 115.65625 232.410156 117.820312 L 227.53125 126.269531 L 209.492188 126.269531 C 206.988281 126.269531 204.957031 128.304688 204.957031 130.804688 L 204.957031 165.371094 L 187.671875 195.304688 C 187.066406 196.351562 186.90625 197.574219 187.222656 198.746094 C 187.535156 199.917969 188.285156 200.898438 189.332031 201.5 L 204.957031 210.523438 L 204.957031 220.277344 C 204.957031 222.777344 206.988281 224.8125 209.492188 224.8125 L 229.707031 224.8125 L 247.214844 234.917969 C 247.925781 235.328125 248.703125 235.527344 249.472656 235.527344 C 251.042969 235.527344 252.570312 234.710938 253.410156 233.257812 L 258.285156 224.8125 L 276.328125 224.8125 C 278.828125 224.8125 280.863281 222.777344 280.863281 220.277344 L 280.863281 199.917969 L 284.847656 203.902344 C 285.898438 204.953125 287.296875 205.53125 288.792969 205.53125 C 290.285156 205.53125 291.6875 204.953125 292.738281 203.902344 C 294.910156 201.726562 294.910156 198.1875 292.738281 196.015625 L 284.703125 187.980469 C 284.15625 187.429688 283.285156 187.40625 282.699219 187.890625 L 280.808594 186 C 281.371094 185.121094 281.859375 184.207031 282.269531 183.269531 Z M 294.992188 152.167969 C 295.730469 152.59375 295.984375 153.542969 295.558594 154.28125 L 283.914062 174.457031 C 283.765625 171.0625 282.746094 167.699219 280.863281 164.730469 L 280.863281 144.011719 L 294.996094 152.171875 Z M 276.035156 187.203125 C 272.761719 190.480469 268.460938 192.117188 264.15625 192.117188 C 259.855469 192.117188 255.550781 190.480469 252.277344 187.203125 C 245.726562 180.652344 245.726562 169.996094 252.277344 163.445312 C 258.828125 156.894531 269.484375 156.894531 276.035156 163.445312 C 282.585938 169.996094 282.585938 180.652344 276.035156 187.203125 Z M 256.507812 209.578125 L 256.507812 193.570312 C 258.554688 194.425781 260.710938 194.921875 262.890625 195.058594 L 262.890625 209.578125 Z M 234.996094 119.316406 C 235.421875 118.574219 236.371094 118.324219 237.109375 118.746094 L 250.136719 126.269531 L 230.980469 126.269531 Z M 190.828125 198.914062 C 190.472656 198.710938 190.21875 198.375 190.109375 197.976562 C 190.003906 197.574219 190.054688 197.15625 190.261719 196.800781 L 204.960938 171.34375 L 204.960938 207.074219 L 190.832031 198.914062 Z M 250.824219 231.765625 C 250.398438 232.507812 249.445312 232.761719 248.707031 232.335938 L 235.679688 224.8125 L 254.835938 224.8125 Z M 277.875 220.277344 C 277.875 221.132812 277.179688 221.828125 276.328125 221.828125 L 209.492188 221.828125 C 208.640625 221.828125 207.945312 221.132812 207.945312 220.277344 L 207.945312 130.804688 C 207.945312 129.949219 208.640625 129.257812 209.492188 129.257812 L 276.328125 129.257812 C 277.183594 129.257812 277.878906 129.949219 277.878906 130.804688 L 277.878906 161.074219 C 270.140625 153.625 257.792969 153.707031 250.164062 161.332031 C 242.539062 168.957031 242.449219 181.601562 250.164062 189.316406 C 251.203125 190.351562 252.332031 191.25 253.523438 192.007812 L 253.523438 209.578125 L 250.015625 209.578125 L 250.015625 194.9375 C 250.015625 194.113281 249.347656 193.441406 248.523438 193.441406 L 239.15625 193.441406 C 238.332031 193.441406 237.664062 194.113281 237.664062 194.9375 L 237.664062 209.578125 L 234.15625 209.578125 L 234.15625 200.417969 C 234.15625 199.59375 233.488281 198.925781 232.664062 198.925781 L 223.296875 198.925781 C 222.472656 198.925781 221.804688 199.59375 221.804688 200.417969 L 221.804688 209.578125 L 217.597656 209.578125 L 217.597656 182.328125 C 217.597656 181.503906 216.925781 180.832031 216.101562 180.832031 C 215.28125 180.832031 214.609375 181.503906 214.609375 182.328125 L 214.609375 211.070312 C 214.609375 211.894531 215.28125 212.566406 216.101562 212.566406 L 271.578125 212.566406 C 272.402344 212.566406 273.070312 211.894531 273.070312 211.070312 C 273.070312 210.246094 272.402344 209.578125 271.578125 209.578125 L 265.878906 209.578125 L 265.878906 195.023438 C 269.015625 194.753906 272.09375 193.738281 274.835938 191.980469 L 276.726562 193.871094 C 276.242188 194.460938 276.265625 195.328125 276.816406 195.875 L 277.878906 196.933594 L 277.878906 220.277344 Z M 247.027344 209.578125 L 240.648438 209.578125 L 240.648438 196.429688 L 247.027344 196.429688 Z M 231.167969 209.578125 L 224.789062 209.578125 L 224.789062 201.914062 L 231.167969 201.914062 Z M 290.625 198.128906 C 291.636719 199.140625 291.636719 200.78125 290.625 201.792969 C 290.140625 202.277344 289.488281 202.546875 288.792969 202.546875 C 288.101562 202.546875 287.449219 202.277344 286.960938 201.792969 L 279.984375 194.816406 L 283.648438 191.152344 Z M 280.582031 189.996094 L 278.828125 191.75 L 277.242188 190.164062 C 277.550781 189.894531 277.851562 189.613281 278.144531 189.316406 C 278.441406 189.023438 278.722656 188.71875 278.992188 188.410156 L 280.582031 190 Z M 274.359375 165.121094 C 268.734375 159.496094 259.578125 159.496094 253.953125 165.121094 C 248.328125 170.746094 248.328125 179.902344 253.953125 185.527344 C 256.765625 188.339844 260.460938 189.746094 264.15625 189.746094 C 267.847656 189.746094 271.546875 188.339844 274.359375 185.527344 C 277.082031 182.800781 278.585938 179.179688 278.585938 175.324219 C 278.585938 171.472656 277.082031 167.847656 274.359375 165.121094 Z M 272.246094 183.417969 C 267.78125 187.875 260.523438 187.875 256.0625 183.417969 C 251.601562 178.957031 251.601562 171.695312 256.0625 167.234375 C 260.523438 162.777344 267.78125 162.777344 272.246094 167.234375 C 274.40625 169.394531 275.59375 172.269531 275.59375 175.328125 C 275.59375 178.382812 274.40625 181.257812 272.246094 183.417969 Z M 213.953125 140.011719 C 213.953125 139.1875 214.621094 138.519531 215.445312 138.519531 L 270.371094 138.519531 C 271.195312 138.519531 271.863281 139.1875 271.863281 140.011719 C 271.863281 140.835938 271.195312 141.503906 270.371094 141.503906 L 215.445312 141.503906 C 214.621094 141.503906 213.953125 140.835938 213.953125 140.011719 Z M 213.953125 151.492188 C 213.953125 150.667969 214.621094 149.996094 215.445312 149.996094 L 270.371094 149.996094 C 271.195312 149.996094 271.863281 150.667969 271.863281 151.492188 C 271.863281 152.3125 271.195312 152.984375 270.371094 152.984375 L 215.445312 152.984375 C 214.621094 152.984375 213.953125 152.3125 213.953125 151.492188 Z M 213.953125 162.96875 C 213.953125 162.144531 214.621094 161.472656 215.445312 161.472656 L 238.605469 161.472656 C 239.429688 161.472656 240.097656 162.144531 240.097656 162.96875 C 240.097656 163.789062 239.429688 164.460938 238.605469 164.460938 L 215.445312 164.460938 C 214.621094 164.460938 213.953125 163.789062 213.953125 162.96875 Z M 215.445312 175.9375 C 214.621094 175.9375 213.953125 175.269531 213.953125 174.445312 C 213.953125 173.621094 214.621094 172.949219 215.445312 172.949219 L 235.722656 172.949219 C 236.546875 172.949219 237.21875 173.621094 237.21875 174.445312 C 237.21875 175.269531 236.546875 175.9375 235.722656 175.9375 Z M 215.445312 175.9375 " fill-opacity="1" fill-rule="nonzero"/></g></svg>