<svg xmlns="http://www.w3.org/2000/svg" xmlns:xlink="http://www.w3.org/1999/xlink" width="300" zoomAndPan="magnify" viewBox="0 0 224.87999 233.04" height="300" preserveAspectRatio="xMidYMid meet" version="1.0"><defs><filter x="0%" y="0%" width="100%" height="100%" id="b7a566ce22"><feColorMatrix values="0 0 0 0 1 0 0 0 0 1 0 0 0 0 1 0 0 0 1 0" color-interpolation-filters="sRGB"/></filter><clipPath id="c26cccd258"><path d="M 33.394531 13 L 194.730469 13 L 194.730469 219.769531 L 33.394531 219.769531 Z M 33.394531 13 " clip-rule="nonzero"/></clipPath><clipPath id="c173175d86"><path d="M 33.394531 4.652344 L 194.730469 4.652344 L 194.730469 211 L 33.394531 211 Z M 33.394531 4.652344 " clip-rule="nonzero"/></clipPath><clipPath id="f8fc80c1de"><path d="M 136 13 L 194.730469 13 L 194.730469 75 L 136 75 Z M 136 13 " clip-rule="nonzero"/></clipPath><clipPath id="7c417e315d"><path d="M 136 4.652344 L 194.730469 4.652344 L 194.730469 59 L 136 59 Z M 136 4.652344 " clip-rule="nonzero"/></clipPath><mask id="0c19d18b99"><g filter="url(#b7a566ce22)"><rect x="-22.487999" width="269.855988" fill="#000000" y="-23.304" height="279.648" fill-opacity="0.35"/></g></mask><clipPath id="9a63b953a8"><rect x="0" width="132" y="0" height="58"/></clipPath></defs><g clip-path="url(#c26cccd258)"><path fill="#000000" d="M 33.394531 219.765625 L 33.394531 13.621094 L 136.472656 13.621094 L 194.730469 67.398438 L 194.730469 219.765625 Z M 33.394531 219.765625 " fill-opacity="0.35" fill-rule="nonzero"/></g><g clip-path="url(#c173175d86)"><path fill="#ffa400" d="M 33.394531 210.800781 L 33.394531 4.65625 L 136.472656 4.65625 L 194.730469 58.433594 L 194.730469 210.800781 Z M 33.394531 210.800781 " fill-opacity="1" fill-rule="nonzero"/></g><g clip-path="url(#f8fc80c1de)"><path fill="#000000" d="M 136.472656 13.621094 L 136.472656 74.121094 L 194.730469 58.433594 Z M 136.472656 13.621094 " fill-opacity="0.35" fill-rule="nonzero"/></g><g clip-path="url(#7c417e315d)"><path fill="#ffec76" d="M 136.472656 4.65625 L 136.472656 58.433594 L 194.730469 58.433594 Z M 136.472656 4.65625 " fill-opacity="1" fill-rule="nonzero"/></g><g mask="url(#0c19d18b99)"><g transform="matrix(1, 0, 0, 1, 48, 109)"><g clip-path="url(#9a63b953a8)"><path fill="#000000" d="M 10.644531 43.734375 C 15.1875 43.734375 18.007812 40.917969 18.007812 35.410156 L 18.007812 3.34375 L 31.082031 3.34375 L 31.082031 37.0625 C 31.082031 47.796875 24.820312 55.574219 13.191406 55.574219 C 9.195312 55.574219 5.34375 54.335938 2.726562 52.339844 L 2.726562 39.957031 C 4.867188 42.222656 7.476562 43.734375 10.644531 43.734375 Z M 10.644531 43.734375 " fill-opacity="1" fill-rule="nonzero"/><path fill="#000000" d="M 40.667969 3.34375 L 56.769531 3.34375 C 71.703125 3.34375 80.03125 10.570312 80.03125 21.855469 C 80.03125 32.242188 72.320312 41.261719 57.59375 41.261719 L 53.742188 41.261719 L 53.742188 54.679688 L 40.667969 54.679688 Z M 58.214844 29.699219 C 63.171875 29.699219 66.886719 27.082031 66.886719 22.335938 C 66.886719 17.585938 63.171875 15.109375 58.148438 15.109375 L 53.742188 15.109375 L 53.742188 29.699219 Z M 58.214844 29.699219 " fill-opacity="1" fill-rule="nonzero"/><path fill="#000000" d="M 111.230469 44.152344 C 113.707031 44.152344 115.703125 43.601562 117.5625 42.707031 L 117.5625 27.015625 L 129.394531 27.015625 L 129.394531 50.273438 C 124.441406 53.714844 118.523438 55.917969 110.953125 55.917969 C 96.5 55.917969 83.976562 45.527344 83.976562 29.011719 C 83.976562 12.566406 96.570312 2.105469 111.023438 2.105469 C 117.558594 2.105469 122.925781 3.757812 127.125 6.09375 L 127.125 18.820312 C 122.652344 15.453125 117.285156 14.214844 112.742188 14.214844 C 103.25 14.214844 97.121094 20.820312 97.121094 29.28125 C 97.125 37.886719 103.109375 44.152344 111.230469 44.152344 Z M 111.230469 44.152344 " fill-opacity="1" fill-rule="nonzero"/></g></g></g><path fill="#ffffff" d="M 58.644531 143.773438 C 63.1875 143.773438 66.007812 140.953125 66.007812 135.445312 L 66.007812 103.378906 L 79.082031 103.378906 L 79.082031 137.101562 C 79.082031 147.835938 72.820312 155.613281 61.191406 155.613281 C 57.195312 155.613281 53.34375 154.375 50.726562 152.375 L 50.726562 139.992188 C 52.867188 142.257812 55.476562 143.773438 58.644531 143.773438 Z M 58.644531 143.773438 " fill-opacity="1" fill-rule="nonzero"/><path fill="#ffffff" d="M 88.667969 103.378906 L 104.769531 103.378906 C 119.703125 103.378906 128.03125 110.609375 128.03125 121.894531 C 128.03125 132.28125 120.320312 141.296875 105.59375 141.296875 L 101.742188 141.296875 L 101.742188 154.714844 L 88.667969 154.714844 Z M 106.214844 129.738281 C 111.171875 129.738281 114.886719 127.121094 114.886719 122.375 C 114.886719 117.621094 111.171875 115.144531 106.148438 115.144531 L 101.742188 115.144531 L 101.742188 129.738281 Z M 106.214844 129.738281 " fill-opacity="1" fill-rule="nonzero"/><path fill="#ffffff" d="M 159.230469 144.1875 C 161.707031 144.1875 163.703125 143.640625 165.5625 142.742188 L 165.5625 127.054688 L 177.394531 127.054688 L 177.394531 150.3125 C 172.441406 153.75 166.523438 155.953125 158.953125 155.953125 C 144.5 155.953125 131.976562 145.566406 131.976562 129.046875 C 131.976562 112.601562 144.570312 102.140625 159.023438 102.140625 C 165.558594 102.140625 170.925781 103.792969 175.125 106.128906 L 175.125 118.859375 C 170.652344 115.492188 165.285156 114.253906 160.742188 114.253906 C 151.25 114.253906 145.121094 120.859375 145.121094 129.320312 C 145.125 137.921875 151.109375 144.1875 159.230469 144.1875 Z M 159.230469 144.1875 " fill-opacity="1" fill-rule="nonzero"/></svg>