<svg xmlns="http://www.w3.org/2000/svg" xmlns:xlink="http://www.w3.org/1999/xlink" width="650" zoomAndPan="magnify" viewBox="0 0 487.5 487.499999" height="650" preserveAspectRatio="xMidYMid meet" version="1.0"><defs><clipPath id="a2f4f99b64"><path d="M 42 36.695312 L 444.953125 36.695312 L 444.953125 450.273438 L 42 450.273438 Z M 42 36.695312 " clip-rule="nonzero"/></clipPath></defs><g clip-path="url(#a2f4f99b64)"><path fill="#d9d9d9" d="M 444.816406 366.222656 C 444.78125 366.097656 444.699219 365.996094 444.578125 365.933594 C 438.882812 359.886719 433.1875 353.839844 427.488281 347.792969 C 424.996094 345.144531 422.5 342.496094 420.003906 339.84375 C 420.003906 334.332031 420.003906 328.820312 420.003906 323.308594 C 420.003906 312.292969 420.003906 301.28125 420.003906 290.265625 C 420.003906 282.46875 420.003906 274.675781 420.003906 266.878906 C 420.003906 266.445312 420.003906 266.015625 420.003906 265.578125 C 420.003906 265.476562 419.980469 265.390625 419.945312 265.316406 C 419.90625 265.1875 419.824219 265.085938 419.707031 265.027344 C 414.023438 258.980469 408.34375 252.933594 402.660156 246.886719 C 400.171875 244.234375 397.683594 241.585938 395.195312 238.9375 C 395.195312 233.425781 395.195312 227.914062 395.195312 222.402344 C 395.195312 211.386719 395.195312 200.375 395.195312 189.359375 C 395.195312 181.5625 395.195312 173.769531 395.195312 165.972656 C 395.195312 165.539062 395.195312 165.105469 395.195312 164.675781 C 395.195312 164.570312 395.171875 164.484375 395.136719 164.410156 C 395.097656 164.285156 395.015625 164.179688 394.894531 164.121094 C 389.214844 158.074219 383.53125 152.027344 377.851562 145.980469 C 375.359375 143.332031 372.871094 140.683594 370.378906 138.035156 C 370.378906 132.53125 370.378906 127.03125 370.378906 121.527344 C 370.378906 110.523438 370.378906 99.519531 370.378906 88.515625 C 370.378906 80.695312 370.378906 72.875 370.378906 65.054688 C 370.378906 64.605469 370.378906 64.160156 370.378906 63.710938 C 370.378906 63.609375 370.359375 63.519531 370.324219 63.445312 C 370.285156 63.320312 370.203125 63.214844 370.082031 63.15625 C 364.386719 57.109375 358.691406 51.0625 352.996094 45.015625 C 350.472656 42.335938 347.953125 39.65625 345.429688 36.976562 C 345.359375 36.824219 345.226562 36.710938 345.019531 36.703125 C 344.9375 36.6875 344.855469 36.695312 344.777344 36.71875 C 339.363281 37.34375 333.945312 37.964844 328.527344 38.59375 C 317.625 39.847656 306.722656 41.105469 295.816406 42.363281 C 287.6875 43.300781 279.554688 44.234375 271.425781 45.171875 C 270.769531 45.25 270.113281 45.324219 269.457031 45.398438 C 269.347656 45.394531 269.234375 45.425781 269.136719 45.480469 C 268.949219 45.5625 268.800781 45.738281 268.800781 46.003906 C 268.800781 51.582031 268.800781 57.160156 268.800781 62.734375 C 268.800781 73.730469 268.800781 84.726562 268.800781 95.722656 C 268.800781 103.535156 268.800781 111.347656 268.800781 119.160156 C 268.800781 119.433594 268.800781 119.703125 268.800781 119.976562 C 263.535156 120.582031 258.273438 121.1875 253.007812 121.796875 C 242.097656 123.050781 231.183594 124.308594 220.273438 125.566406 C 212.136719 126.503906 204 127.441406 195.863281 128.375 C 195.207031 128.453125 194.550781 128.527344 193.890625 128.601562 C 193.78125 128.597656 193.671875 128.628906 193.574219 128.683594 C 193.382812 128.765625 193.238281 128.9375 193.238281 129.210938 C 193.238281 134.785156 193.238281 140.363281 193.238281 145.941406 C 193.238281 156.933594 193.238281 167.929688 193.238281 178.925781 C 193.238281 186.738281 193.238281 194.554688 193.238281 202.367188 C 193.238281 202.636719 193.238281 202.910156 193.238281 203.179688 C 187.976562 203.789062 182.71875 204.394531 177.457031 205 C 166.554688 206.257812 155.652344 207.511719 144.75 208.769531 C 136.617188 209.707031 128.488281 210.640625 120.355469 211.578125 C 119.699219 211.65625 119.042969 211.730469 118.386719 211.804688 C 118.277344 211.800781 118.167969 211.832031 118.070312 211.886719 C 117.878906 211.96875 117.734375 212.144531 117.734375 212.410156 C 117.734375 217.988281 117.734375 223.566406 117.734375 229.140625 C 117.734375 240.136719 117.734375 251.132812 117.734375 262.128906 C 117.734375 269.941406 117.734375 277.753906 117.734375 285.566406 C 117.734375 285.839844 117.734375 286.109375 117.734375 286.382812 C 112.46875 286.988281 107.203125 287.59375 101.941406 288.199219 C 91.03125 289.457031 80.117188 290.714844 69.207031 291.972656 C 61.070312 292.910156 52.933594 293.847656 44.796875 294.785156 C 44.136719 294.859375 43.480469 294.933594 42.824219 295.011719 C 42.710938 295.003906 42.605469 295.035156 42.507812 295.09375 C 42.3125 295.175781 42.167969 295.351562 42.167969 295.621094 C 42.167969 301.199219 42.167969 306.773438 42.167969 312.351562 C 42.167969 323.347656 42.167969 334.34375 42.167969 345.335938 C 42.167969 353.152344 42.167969 360.964844 42.167969 368.777344 C 42.167969 369.226562 42.167969 369.675781 42.167969 370.125 C 42.167969 370.304688 42.234375 370.445312 42.335938 370.539062 C 42.339844 370.542969 42.339844 370.546875 42.34375 370.546875 C 48.078125 376.636719 53.8125 382.726562 59.550781 388.816406 C 62.070312 391.496094 64.59375 394.175781 67.117188 396.851562 C 67.1875 397.003906 67.320312 397.117188 67.527344 397.128906 C 67.609375 397.144531 67.691406 397.136719 67.765625 397.113281 C 73.183594 396.488281 78.601562 395.863281 84.015625 395.242188 C 94.921875 393.984375 105.824219 392.726562 116.726562 391.46875 C 124.859375 390.53125 132.988281 389.59375 141.117188 388.65625 C 141.714844 388.589844 142.3125 388.519531 142.910156 388.453125 C 148.582031 394.472656 154.253906 400.496094 159.925781 406.519531 C 162.445312 409.195312 164.96875 411.875 167.492188 414.554688 C 167.5625 414.707031 167.699219 414.816406 167.902344 414.828125 C 167.980469 414.84375 168.0625 414.835938 168.140625 414.8125 C 173.558594 414.195312 178.976562 413.574219 184.390625 412.953125 C 195.296875 411.707031 206.199219 410.457031 217.101562 409.210938 C 225.234375 408.28125 233.363281 407.347656 241.492188 406.417969 C 242.089844 406.347656 242.6875 406.28125 243.285156 406.214844 C 248.941406 412.234375 254.601562 418.257812 260.257812 424.277344 C 262.777344 426.957031 265.292969 429.636719 267.808594 432.3125 C 267.878906 432.464844 268.011719 432.578125 268.214844 432.59375 C 268.296875 432.605469 268.378906 432.601562 268.457031 432.574219 C 273.878906 431.953125 279.300781 431.324219 284.722656 430.703125 C 295.632812 429.445312 306.546875 428.191406 317.457031 426.933594 C 325.59375 425.996094 333.730469 425.058594 341.867188 424.121094 C 342.464844 424.050781 343.0625 423.984375 343.660156 423.914062 C 349.316406 429.9375 354.976562 435.957031 360.636719 441.980469 C 363.152344 444.660156 365.667969 447.335938 368.183594 450.015625 C 368.253906 450.167969 368.386719 450.28125 368.589844 450.292969 C 368.675781 450.308594 368.757812 450.300781 368.835938 450.277344 C 374.253906 449.65625 379.675781 449.035156 385.097656 448.417969 C 396.007812 447.167969 406.921875 445.921875 417.832031 444.671875 C 425.96875 443.742188 434.105469 442.8125 442.242188 441.882812 C 442.917969 441.804688 443.59375 441.726562 444.265625 441.648438 C 444.328125 441.644531 444.378906 441.625 444.429688 441.609375 C 444.667969 441.550781 444.867188 441.367188 444.867188 441.046875 C 444.867188 435.46875 444.867188 429.886719 444.867188 424.304688 C 444.867188 413.300781 444.867188 402.296875 444.867188 391.292969 C 444.867188 383.472656 444.867188 375.652344 444.867188 367.832031 C 444.867188 367.382812 444.867188 366.9375 444.867188 366.484375 C 444.875 366.386719 444.855469 366.300781 444.816406 366.222656 Z M 436.1875 358.777344 C 438.464844 361.195312 440.742188 363.613281 443.019531 366.03125 C 437.972656 366.613281 432.925781 367.195312 427.882812 367.777344 C 416.96875 369.03125 406.058594 370.289062 395.144531 371.546875 C 387.007812 372.484375 378.871094 373.417969 370.734375 374.355469 C 370.136719 374.425781 369.539062 374.492188 368.945312 374.5625 C 363.285156 368.542969 357.625 362.519531 351.96875 356.5 C 349.695312 354.082031 347.425781 351.664062 345.148438 349.246094 C 350.191406 348.664062 355.238281 348.082031 360.277344 347.503906 C 371.183594 346.246094 382.085938 344.988281 392.988281 343.730469 C 401.117188 342.792969 409.25 341.859375 417.378906 340.917969 C 417.976562 340.851562 418.570312 340.78125 419.167969 340.714844 C 424.839844 346.734375 430.511719 352.757812 436.1875 358.777344 Z M 268.566406 356.859375 C 262.910156 350.839844 257.25 344.816406 251.589844 338.796875 C 249.320312 336.378906 247.046875 333.960938 244.773438 331.542969 C 249.820312 330.960938 254.867188 330.378906 259.914062 329.796875 C 270.828125 328.539062 281.738281 327.285156 292.652344 326.027344 C 300.789062 325.089844 308.925781 324.15625 317.0625 323.214844 C 317.660156 323.148438 318.253906 323.078125 318.851562 323.011719 C 324.511719 329.03125 330.171875 335.054688 335.828125 341.078125 C 338.101562 343.496094 340.371094 345.914062 342.644531 348.332031 C 337.597656 348.910156 332.550781 349.492188 327.503906 350.074219 C 316.59375 351.332031 305.679688 352.585938 294.769531 353.84375 C 286.632812 354.78125 278.496094 355.71875 270.359375 356.652344 C 269.757812 356.722656 269.164062 356.789062 268.566406 356.859375 Z M 168.25 339.097656 C 162.574219 333.078125 156.90625 327.054688 151.230469 321.03125 C 148.953125 318.613281 146.675781 316.195312 144.398438 313.777344 C 149.445312 313.199219 154.492188 312.617188 159.539062 312.035156 C 170.449219 310.777344 181.363281 309.523438 192.273438 308.265625 C 200.410156 307.328125 208.546875 306.390625 216.683594 305.453125 C 217.28125 305.386719 217.878906 305.320312 218.476562 305.25 C 224.132812 311.285156 229.792969 317.320312 235.449219 323.355469 C 237.722656 325.777344 239.996094 328.203125 242.269531 330.625 C 237.226562 331.203125 232.183594 331.777344 227.140625 332.355469 C 216.234375 333.605469 205.332031 334.851562 194.429688 336.101562 C 186.300781 337.03125 178.167969 337.960938 170.035156 338.890625 C 169.441406 338.960938 168.84375 339.03125 168.25 339.097656 Z M 118.933594 270.1875 C 118.933594 259.191406 118.933594 248.195312 118.933594 237.199219 C 118.933594 229.445312 118.933594 221.6875 118.933594 213.933594 C 124.3125 219.65625 129.695312 225.382812 135.074219 231.109375 C 137.5625 233.757812 140.054688 236.40625 142.542969 239.058594 C 142.542969 244.554688 142.542969 250.054688 142.542969 255.550781 C 142.542969 266.546875 142.542969 277.539062 142.542969 288.535156 C 142.542969 296.292969 142.542969 304.050781 142.542969 311.804688 C 137.164062 306.082031 131.78125 300.355469 126.402344 294.628906 C 123.910156 291.980469 121.421875 289.332031 118.933594 286.679688 C 118.933594 281.183594 118.933594 275.6875 118.933594 270.1875 Z M 194.441406 186.984375 C 194.441406 175.988281 194.441406 164.996094 194.441406 154 C 194.441406 146.242188 194.441406 138.484375 194.441406 130.726562 C 199.832031 136.453125 205.226562 142.179688 210.621094 147.90625 C 213.117188 150.554688 215.613281 153.207031 218.109375 155.855469 C 218.109375 161.351562 218.109375 166.847656 218.109375 172.347656 C 218.109375 183.34375 218.109375 194.335938 218.109375 205.335938 C 218.109375 213.089844 218.109375 220.847656 218.109375 228.605469 C 212.714844 222.878906 207.320312 217.152344 201.925781 211.425781 C 199.429688 208.777344 196.9375 206.125 194.441406 203.476562 C 194.441406 197.980469 194.441406 192.484375 194.441406 186.984375 Z M 270.007812 103.78125 C 270.007812 92.785156 270.007812 81.789062 270.007812 70.792969 C 270.007812 63.039062 270.007812 55.28125 270.007812 47.523438 C 275.386719 53.25 280.765625 58.976562 286.144531 64.703125 C 288.636719 67.351562 291.125 70 293.613281 72.648438 C 293.613281 78.148438 293.613281 83.644531 293.613281 89.140625 C 293.613281 100.136719 293.613281 111.132812 293.613281 122.128906 C 293.613281 129.886719 293.613281 137.640625 293.613281 145.398438 C 288.234375 139.671875 282.855469 133.945312 277.472656 128.222656 C 274.984375 125.570312 272.496094 122.921875 270.007812 120.273438 C 270.007812 114.773438 270.007812 109.277344 270.007812 103.78125 Z M 369.179688 80.453125 C 369.179688 91.457031 369.179688 102.464844 369.179688 113.46875 C 369.179688 121.285156 369.179688 129.105469 369.179688 136.925781 C 369.179688 137.195312 369.179688 137.46875 369.179688 137.738281 C 363.917969 138.34375 358.652344 138.945312 353.386719 139.546875 C 342.476562 140.796875 331.5625 142.042969 320.652344 143.289062 C 312.515625 144.222656 304.378906 145.152344 296.242188 146.082031 C 295.765625 146.136719 295.292969 146.191406 294.816406 146.242188 C 294.816406 140.890625 294.816406 135.535156 294.816406 130.183594 C 294.816406 119.1875 294.816406 108.191406 294.816406 97.195312 C 294.816406 89.382812 294.816406 81.570312 294.816406 73.757812 C 294.816406 73.484375 294.816406 73.214844 294.816406 72.941406 C 300.082031 72.335938 305.347656 71.730469 310.609375 71.125 C 321.523438 69.867188 332.433594 68.609375 343.347656 67.355469 C 351.484375 66.417969 359.621094 65.480469 367.757812 64.542969 C 368.230469 64.488281 368.703125 64.433594 369.179688 64.378906 C 369.179688 69.738281 369.179688 75.09375 369.179688 80.453125 Z M 393.992188 181.449219 C 393.992188 192.464844 393.992188 203.480469 393.992188 214.492188 C 393.992188 222.289062 393.992188 230.082031 393.992188 237.878906 C 393.992188 238.132812 393.992188 238.390625 393.992188 238.644531 C 388.730469 239.253906 383.46875 239.859375 378.210938 240.464844 C 367.304688 241.71875 356.402344 242.976562 345.5 244.234375 C 337.371094 245.171875 329.238281 246.109375 321.109375 247.046875 C 320.632812 247.097656 320.160156 247.15625 319.683594 247.207031 C 319.683594 241.851562 319.683594 236.492188 319.683594 231.136719 C 319.683594 220.132812 319.683594 209.125 319.683594 198.121094 C 319.683594 190.304688 319.683594 182.484375 319.683594 174.664062 C 319.683594 174.394531 319.683594 174.121094 319.683594 173.847656 C 324.945312 173.246094 330.207031 172.644531 335.46875 172.042969 C 346.371094 170.796875 357.273438 169.546875 368.175781 168.300781 C 376.308594 167.367188 384.4375 166.4375 392.570312 165.507812 C 393.042969 165.453125 393.515625 165.398438 393.992188 165.347656 C 393.992188 170.714844 393.992188 176.082031 393.992188 181.449219 Z M 418.800781 282.355469 C 418.800781 293.371094 418.800781 304.382812 418.800781 315.398438 C 418.800781 323.195312 418.800781 330.988281 418.800781 338.785156 C 418.800781 339.039062 418.800781 339.296875 418.800781 339.554688 C 413.542969 340.160156 408.28125 340.765625 403.019531 341.371094 C 392.117188 342.628906 381.214844 343.882812 370.3125 345.140625 C 362.179688 346.082031 354.050781 347.015625 345.921875 347.953125 C 345.445312 348.011719 344.972656 348.0625 344.5 348.117188 C 344.5 342.765625 344.5 337.410156 344.5 332.058594 C 344.5 321.0625 344.5 310.066406 344.5 299.070312 C 344.5 291.257812 344.5 283.441406 344.5 275.628906 C 344.5 275.359375 344.5 275.085938 344.5 274.816406 C 349.757812 274.207031 355.019531 273.605469 360.277344 272.996094 C 371.183594 271.742188 382.085938 270.484375 392.988281 269.226562 C 401.117188 268.289062 409.25 267.355469 417.378906 266.417969 C 417.851562 266.363281 418.328125 266.308594 418.800781 266.253906 C 418.800781 271.621094 418.800781 276.988281 418.800781 282.355469 Z M 343.296875 291.015625 C 343.296875 302.007812 343.296875 313.003906 343.296875 324 C 343.296875 331.757812 343.296875 339.515625 343.296875 347.273438 C 337.914062 341.546875 332.535156 335.820312 327.15625 330.09375 C 324.664062 327.445312 322.175781 324.796875 319.683594 322.144531 C 319.683594 316.648438 319.683594 311.148438 319.683594 305.652344 C 319.683594 294.65625 319.683594 283.660156 319.683594 272.664062 C 319.683594 264.910156 319.683594 257.152344 319.683594 249.394531 C 325.066406 255.121094 330.445312 260.847656 335.828125 266.574219 C 338.316406 269.222656 340.804688 271.871094 343.296875 274.519531 C 343.296875 280.019531 343.296875 285.515625 343.296875 291.015625 Z M 293.980469 222.105469 C 299.652344 228.128906 305.328125 234.148438 311 240.167969 C 313.277344 242.585938 315.554688 245.003906 317.832031 247.421875 C 312.785156 248 307.738281 248.578125 302.695312 249.15625 C 291.78125 250.402344 280.871094 251.652344 269.957031 252.898438 C 261.820312 253.828125 253.683594 254.761719 245.546875 255.691406 C 244.949219 255.761719 244.355469 255.828125 243.757812 255.894531 C 238.097656 249.875 232.4375 243.851562 226.78125 237.832031 C 224.507812 235.414062 222.234375 232.996094 219.964844 230.578125 C 225.003906 230 230.046875 229.421875 235.089844 228.847656 C 245.996094 227.597656 256.898438 226.351562 267.800781 225.101562 C 275.929688 224.171875 284.0625 223.242188 292.191406 222.3125 C 292.789062 222.242188 293.386719 222.171875 293.980469 222.105469 Z M 219.308594 287.890625 C 219.308594 276.894531 219.308594 265.902344 219.308594 254.902344 C 219.308594 247.148438 219.308594 239.390625 219.308594 231.636719 C 224.691406 237.359375 230.070312 243.085938 235.449219 248.8125 C 237.941406 251.460938 240.429688 254.113281 242.921875 256.761719 C 242.921875 262.261719 242.921875 267.765625 242.921875 273.265625 C 242.921875 284.269531 242.921875 295.273438 242.921875 306.277344 C 242.921875 314.039062 242.921875 321.800781 242.921875 329.5625 C 237.539062 323.828125 232.160156 318.089844 226.777344 312.347656 C 224.289062 309.695312 221.796875 307.039062 219.308594 304.382812 C 219.308594 298.886719 219.308594 293.390625 219.308594 287.890625 Z M 244.121094 314.34375 C 244.121094 303.335938 244.121094 292.332031 244.121094 281.328125 C 244.121094 273.511719 244.121094 265.691406 244.121094 257.871094 C 244.121094 257.597656 244.121094 257.328125 244.121094 257.054688 C 249.386719 256.453125 254.652344 255.851562 259.914062 255.25 C 270.824219 254 281.738281 252.753906 292.648438 251.503906 C 300.785156 250.574219 308.921875 249.640625 317.0625 248.710938 C 317.535156 248.65625 318.011719 248.605469 318.484375 248.550781 C 318.484375 253.902344 318.484375 259.257812 318.484375 264.609375 C 318.484375 275.605469 318.484375 286.601562 318.484375 297.597656 C 318.484375 305.410156 318.484375 313.226562 318.484375 321.039062 C 318.484375 321.308594 318.484375 321.582031 318.484375 321.851562 C 313.21875 322.460938 307.953125 323.0625 302.691406 323.671875 C 291.78125 324.929688 280.867188 326.183594 269.957031 327.441406 C 261.820312 328.378906 253.683594 329.316406 245.546875 330.253906 C 245.070312 330.308594 244.597656 330.363281 244.121094 330.417969 C 244.121094 325.054688 244.121094 319.699219 244.121094 314.34375 Z M 318.484375 190.0625 C 318.484375 201.066406 318.484375 212.070312 318.484375 223.074219 C 318.484375 230.839844 318.484375 238.601562 318.484375 246.367188 C 313.089844 240.640625 307.695312 234.914062 302.304688 229.1875 C 299.808594 226.539062 297.3125 223.890625 294.816406 221.238281 C 294.816406 215.738281 294.816406 210.234375 294.816406 204.734375 C 294.816406 193.730469 294.816406 182.726562 294.816406 171.722656 C 294.816406 163.957031 294.816406 156.195312 294.816406 148.429688 C 300.210938 154.15625 305.605469 159.882812 311 165.609375 C 313.492188 168.257812 315.988281 170.90625 318.484375 173.558594 C 318.484375 179.058594 318.484375 184.558594 318.484375 190.0625 Z M 293.613281 163.660156 C 293.613281 174.664062 293.613281 185.667969 293.613281 196.671875 C 293.613281 204.492188 293.613281 212.3125 293.613281 220.128906 C 293.613281 220.402344 293.613281 220.671875 293.613281 220.945312 C 288.355469 221.546875 283.09375 222.148438 277.835938 222.75 C 266.929688 224 256.027344 225.246094 245.125 226.496094 C 236.992188 227.425781 228.863281 228.355469 220.730469 229.285156 C 220.257812 229.339844 219.785156 229.394531 219.308594 229.449219 C 219.308594 224.097656 219.308594 218.742188 219.308594 213.390625 C 219.308594 202.394531 219.308594 191.398438 219.308594 180.402344 C 219.308594 172.589844 219.308594 164.777344 219.308594 156.964844 C 219.308594 156.691406 219.308594 156.421875 219.308594 156.148438 C 224.570312 155.542969 229.828125 154.9375 235.089844 154.328125 C 245.996094 153.074219 256.898438 151.816406 267.800781 150.558594 C 275.929688 149.621094 284.0625 148.6875 292.191406 147.75 C 292.667969 147.695312 293.140625 147.640625 293.613281 147.585938 C 293.613281 152.941406 293.613281 158.300781 293.613281 163.660156 Z M 218.109375 246.851562 C 218.109375 257.847656 218.109375 268.84375 218.109375 279.835938 C 218.109375 287.648438 218.109375 295.464844 218.109375 303.277344 C 218.109375 303.546875 218.109375 303.820312 218.109375 304.089844 C 212.84375 304.695312 207.578125 305.304688 202.316406 305.910156 C 191.402344 307.167969 180.492188 308.421875 169.582031 309.679688 C 161.441406 310.617188 153.304688 311.554688 145.167969 312.492188 C 144.695312 312.542969 144.222656 312.601562 143.746094 312.65625 C 143.746094 307.300781 143.746094 301.949219 143.746094 296.59375 C 143.746094 285.597656 143.746094 274.605469 143.746094 263.609375 C 143.746094 255.792969 143.746094 247.980469 143.746094 240.167969 C 143.746094 239.898438 143.746094 239.625 143.746094 239.355469 C 149.011719 238.746094 154.273438 238.140625 159.539062 237.535156 C 170.449219 236.277344 181.363281 235.023438 192.273438 233.765625 C 200.410156 232.828125 208.546875 231.890625 216.683594 230.957031 C 217.160156 230.902344 217.632812 230.847656 218.109375 230.792969 C 218.109375 236.144531 218.109375 241.496094 218.109375 246.851562 Z M 411.332031 257.871094 C 413.605469 260.289062 415.875 262.707031 418.148438 265.128906 C 413.105469 265.707031 408.0625 266.289062 403.019531 266.871094 C 392.117188 268.125 381.214844 269.382812 370.3125 270.640625 C 362.179688 271.578125 354.050781 272.515625 345.921875 273.449219 C 345.324219 273.519531 344.726562 273.589844 344.128906 273.65625 C 338.472656 267.632812 332.8125 261.613281 327.15625 255.589844 C 324.882812 253.171875 322.613281 250.753906 320.339844 248.335938 C 325.382812 247.753906 330.425781 247.175781 335.46875 246.59375 C 346.371094 245.335938 357.273438 244.082031 368.175781 242.824219 C 376.308594 241.886719 384.4375 240.949219 392.570312 240.015625 C 393.164062 239.945312 393.761719 239.875 394.359375 239.808594 C 400.015625 245.828125 405.675781 251.847656 411.332031 257.871094 Z M 386.523438 156.964844 C 388.796875 159.382812 391.066406 161.800781 393.339844 164.21875 C 388.296875 164.796875 383.253906 165.371094 378.210938 165.949219 C 367.308594 167.199219 356.40625 168.445312 345.5 169.691406 C 337.371094 170.625 329.238281 171.554688 321.109375 172.484375 C 320.511719 172.554688 319.914062 172.621094 319.320312 172.691406 C 313.648438 166.667969 307.976562 160.644531 302.300781 154.625 C 300.023438 152.207031 297.75 149.789062 295.46875 147.371094 C 300.515625 146.792969 305.5625 146.214844 310.609375 145.640625 C 321.519531 144.390625 332.433594 143.144531 343.34375 141.894531 C 351.480469 140.964844 359.617188 140.035156 367.753906 139.105469 C 368.351562 139.035156 368.949219 138.96875 369.546875 138.898438 C 375.207031 144.921875 380.863281 150.945312 386.523438 156.964844 Z M 285.785156 44.722656 C 296.6875 43.464844 307.59375 42.207031 318.496094 40.953125 C 326.625 40.015625 334.757812 39.078125 342.886719 38.140625 C 343.484375 38.070312 344.082031 38.003906 344.679688 37.933594 C 350.351562 43.957031 356.023438 49.976562 361.695312 56 C 363.972656 58.417969 366.25 60.835938 368.527344 63.253906 C 363.480469 63.835938 358.4375 64.414062 353.386719 64.996094 C 342.476562 66.253906 331.566406 67.511719 320.652344 68.765625 C 312.515625 69.703125 304.378906 70.640625 296.242188 71.578125 C 295.644531 71.648438 295.046875 71.714844 294.453125 71.785156 C 288.792969 65.761719 283.132812 59.742188 277.476562 53.71875 C 275.203125 51.300781 272.929688 48.882812 270.660156 46.464844 C 275.699219 45.882812 280.742188 45.304688 285.785156 44.722656 Z M 210.230469 127.925781 C 221.144531 126.667969 232.054688 125.410156 242.96875 124.15625 C 251.105469 123.21875 259.242188 122.28125 267.378906 121.34375 C 267.976562 121.273438 268.574219 121.207031 269.167969 121.136719 C 274.828125 127.160156 280.484375 133.179688 286.144531 139.203125 C 288.417969 141.621094 290.691406 144.039062 292.960938 146.457031 C 287.917969 147.039062 282.875 147.621094 277.832031 148.199219 C 266.929688 149.457031 256.027344 150.714844 245.125 151.96875 C 236.992188 152.90625 228.863281 153.84375 220.730469 154.78125 C 220.132812 154.851562 219.539062 154.917969 218.941406 154.988281 C 213.269531 148.964844 207.597656 142.945312 201.925781 136.921875 C 199.648438 134.503906 197.371094 132.085938 195.09375 129.667969 C 200.140625 129.085938 205.1875 128.507812 210.230469 127.925781 Z M 134.714844 211.128906 C 145.617188 209.871094 156.519531 208.617188 167.425781 207.359375 C 175.554688 206.421875 183.683594 205.484375 191.816406 204.550781 C 192.410156 204.480469 193.007812 204.410156 193.605469 204.34375 C 199.277344 210.363281 204.949219 216.386719 210.621094 222.410156 C 212.898438 224.828125 215.175781 227.246094 217.457031 229.664062 C 212.410156 230.242188 207.363281 230.824219 202.316406 231.40625 C 191.40625 232.660156 180.492188 233.917969 169.582031 235.175781 C 161.445312 236.109375 153.308594 237.046875 145.171875 237.984375 C 144.574219 238.054688 143.976562 238.121094 143.378906 238.191406 C 137.722656 232.167969 132.0625 226.148438 126.40625 220.125 C 124.132812 217.707031 121.859375 215.289062 119.585938 212.871094 C 124.628906 212.292969 129.671875 211.710938 134.714844 211.128906 Z M 59.160156 294.332031 C 70.074219 293.078125 80.984375 291.820312 91.898438 290.5625 C 100.035156 289.625 108.171875 288.691406 116.308594 287.75 C 116.90625 287.683594 117.5 287.613281 118.097656 287.546875 C 123.757812 293.566406 129.414062 299.589844 135.074219 305.609375 C 137.347656 308.03125 139.621094 310.449219 141.890625 312.867188 C 136.851562 313.445312 131.808594 314.027344 126.761719 314.609375 C 115.859375 315.867188 104.957031 317.121094 94.054688 318.378906 C 85.921875 319.316406 77.792969 320.253906 69.664062 321.191406 C 69.066406 321.261719 68.46875 321.328125 67.871094 321.398438 C 62.203125 315.375 56.527344 309.355469 50.855469 303.332031 C 48.578125 300.914062 46.300781 298.496094 44.023438 296.078125 C 49.070312 295.496094 54.117188 294.914062 59.160156 294.332031 Z M 50.855469 377.832031 C 48.359375 375.183594 45.863281 372.535156 43.367188 369.886719 C 43.367188 364.386719 43.367188 358.890625 43.367188 353.394531 C 43.367188 342.398438 43.367188 331.402344 43.367188 320.40625 C 43.367188 312.648438 43.367188 304.890625 43.367188 297.136719 C 48.761719 302.859375 54.15625 308.589844 59.550781 314.316406 C 62.042969 316.964844 64.539062 319.613281 67.035156 322.265625 C 67.035156 327.761719 67.035156 333.257812 67.035156 338.753906 C 67.035156 349.75 67.035156 360.746094 67.035156 371.742188 C 67.035156 379.5 67.035156 387.257812 67.035156 395.015625 C 61.644531 389.285156 56.25 383.5625 50.855469 377.832031 Z M 126.761719 389.113281 C 115.859375 390.367188 104.957031 391.625 94.050781 392.882812 C 85.921875 393.820312 77.792969 394.757812 69.660156 395.695312 C 69.1875 395.75 68.710938 395.804688 68.238281 395.859375 C 68.238281 390.503906 68.238281 385.152344 68.238281 379.796875 C 68.238281 368.804688 68.238281 357.808594 68.238281 346.8125 C 68.238281 339 68.238281 331.183594 68.238281 323.371094 C 68.238281 323.101562 68.238281 322.828125 68.238281 322.558594 C 73.5 321.949219 78.757812 321.34375 84.019531 320.738281 C 94.921875 319.480469 105.824219 318.226562 116.726562 316.96875 C 124.859375 316.03125 132.988281 315.09375 141.121094 314.15625 C 141.59375 314.101562 142.066406 314.046875 142.542969 313.992188 C 142.542969 319.34375 142.542969 324.699219 142.542969 330.050781 C 142.542969 341.046875 142.542969 352.042969 142.542969 363.039062 C 142.542969 370.851562 142.542969 378.664062 142.542969 386.480469 C 142.542969 386.75 142.542969 387.023438 142.542969 387.292969 C 137.285156 387.898438 132.023438 388.503906 126.761719 389.113281 Z M 151.230469 395.535156 C 148.738281 392.886719 146.238281 390.238281 143.746094 387.585938 C 143.746094 382.089844 143.746094 376.589844 143.746094 371.09375 C 143.746094 360.097656 143.746094 349.105469 143.746094 338.109375 C 143.746094 330.351562 143.746094 322.59375 143.746094 314.835938 C 149.136719 320.5625 154.53125 326.289062 159.925781 332.015625 C 162.421875 334.667969 164.917969 337.316406 167.414062 339.964844 C 167.414062 345.460938 167.414062 350.960938 167.414062 356.457031 C 167.414062 367.453125 167.414062 378.449219 167.414062 389.445312 C 167.414062 397.199219 167.414062 404.960938 167.414062 412.714844 C 162.019531 406.988281 156.625 401.261719 151.230469 395.535156 Z M 227.140625 406.859375 C 216.234375 408.109375 205.332031 409.355469 194.429688 410.605469 C 186.300781 411.535156 178.167969 412.464844 170.035156 413.394531 C 169.5625 413.449219 169.089844 413.503906 168.613281 413.558594 C 168.613281 408.203125 168.613281 402.851562 168.613281 397.5 C 168.613281 386.5 168.613281 375.507812 168.613281 364.511719 C 168.613281 356.699219 168.613281 348.882812 168.613281 341.070312 C 168.613281 340.800781 168.613281 340.527344 168.613281 340.257812 C 173.875 339.65625 179.136719 339.050781 184.394531 338.453125 C 195.300781 337.203125 206.203125 335.957031 217.105469 334.707031 C 225.238281 333.777344 233.367188 332.847656 241.496094 331.914062 C 241.972656 331.863281 242.445312 331.808594 242.921875 331.753906 C 242.921875 337.105469 242.921875 342.460938 242.921875 347.8125 C 242.921875 358.808594 242.921875 369.804688 242.921875 380.800781 C 242.921875 388.613281 242.921875 396.425781 242.921875 404.238281 C 242.921875 404.511719 242.921875 404.78125 242.921875 405.054688 C 237.660156 405.65625 232.398438 406.257812 227.140625 406.859375 Z M 251.589844 413.296875 C 249.101562 410.648438 246.609375 407.996094 244.121094 405.347656 C 244.121094 399.851562 244.121094 394.351562 244.121094 388.855469 C 244.121094 377.859375 244.121094 366.863281 244.121094 355.871094 C 244.121094 348.113281 244.121094 340.355469 244.121094 332.601562 C 249.5 338.324219 254.882812 344.050781 260.261719 349.777344 C 262.75 352.429688 265.242188 355.078125 267.730469 357.726562 C 267.730469 363.238281 267.730469 368.75 267.730469 374.265625 C 267.730469 385.277344 267.730469 396.292969 267.730469 407.308594 C 267.730469 415.027344 267.730469 422.75 267.730469 430.476562 C 262.351562 424.75 256.96875 419.023438 251.589844 413.296875 Z M 327.503906 424.578125 C 316.59375 425.832031 305.679688 427.089844 294.769531 428.34375 C 286.632812 429.285156 278.492188 430.21875 270.355469 431.15625 C 269.882812 431.210938 269.40625 431.265625 268.933594 431.320312 C 268.933594 425.953125 268.933594 420.585938 268.933594 415.214844 C 268.933594 404.203125 268.933594 393.1875 268.933594 382.175781 C 268.933594 374.378906 268.933594 366.582031 268.933594 358.789062 C 268.933594 358.53125 268.933594 358.277344 268.933594 358.019531 C 274.199219 357.414062 279.460938 356.808594 284.726562 356.203125 C 295.636719 354.945312 306.550781 353.6875 317.460938 352.433594 C 325.597656 351.492188 333.734375 350.558594 341.871094 349.621094 C 342.347656 349.566406 342.820312 349.511719 343.296875 349.457031 C 343.296875 354.808594 343.296875 360.164062 343.296875 365.515625 C 343.296875 376.511719 343.296875 387.507812 343.296875 398.5 C 343.296875 406.316406 343.296875 414.128906 343.296875 421.941406 C 343.296875 422.214844 343.296875 422.484375 343.296875 422.757812 C 338.03125 423.363281 332.769531 423.96875 327.503906 424.578125 Z M 351.964844 431 C 349.476562 428.347656 346.988281 425.699219 344.496094 423.050781 C 344.496094 417.554688 344.496094 412.054688 344.496094 406.558594 C 344.496094 395.5625 344.496094 384.570312 344.496094 373.574219 C 344.496094 365.816406 344.496094 358.058594 344.496094 350.304688 C 349.878906 356.027344 355.257812 361.753906 360.640625 367.480469 C 363.128906 370.128906 365.617188 372.777344 368.109375 375.425781 C 368.109375 380.925781 368.109375 386.421875 368.109375 391.917969 C 368.109375 402.914062 368.109375 413.910156 368.109375 424.90625 C 368.109375 432.664062 368.109375 440.421875 368.109375 448.175781 C 362.730469 442.449219 357.347656 436.722656 351.964844 431 Z M 427.878906 442.324219 C 416.96875 443.574219 406.054688 444.820312 395.144531 446.070312 C 387.007812 447 378.871094 447.929688 370.734375 448.859375 C 370.257812 448.914062 369.785156 448.96875 369.308594 449.023438 C 369.308594 443.667969 369.308594 438.316406 369.308594 432.964844 C 369.308594 421.964844 369.308594 410.972656 369.308594 399.976562 C 369.308594 392.164062 369.308594 384.347656 369.308594 376.535156 C 369.308594 376.261719 369.308594 375.992188 369.308594 375.71875 C 374.574219 375.113281 379.839844 374.507812 385.101562 373.902344 C 396.011719 372.644531 406.925781 371.390625 417.835938 370.132812 C 425.972656 369.195312 434.109375 368.257812 442.25 367.320312 C 442.722656 367.265625 443.199219 367.210938 443.671875 367.15625 C 443.671875 372.515625 443.671875 377.871094 443.671875 383.230469 C 443.671875 394.234375 443.671875 405.238281 443.671875 416.242188 C 443.671875 424.0625 443.671875 431.882812 443.671875 439.703125 C 443.671875 439.972656 443.671875 440.246094 443.671875 440.519531 C 438.410156 441.121094 433.144531 441.722656 427.878906 442.324219 Z M 427.878906 442.324219 " fill-opacity="1" fill-rule="nonzero"/></g></svg>