<svg xmlns="http://www.w3.org/2000/svg" xmlns:xlink="http://www.w3.org/1999/xlink" width="650" zoomAndPan="magnify" viewBox="0 0 487.5 487.499999" height="650" preserveAspectRatio="xMidYMid meet" version="1.0"><defs><clipPath id="3117cde260"><path d="M 35.007812 24.035156 L 452 24.035156 L 452 463 L 35.007812 463 Z M 35.007812 24.035156 " clip-rule="nonzero"/></clipPath></defs><g clip-path="url(#3117cde260)"><path fill="#d9d9d9" d="M 451.59375 214.605469 C 444.34375 211.007812 437.089844 207.410156 429.839844 203.8125 C 417.386719 197.632812 404.9375 191.453125 392.488281 185.277344 C 388.261719 183.175781 384.035156 181.078125 379.808594 178.980469 C 379.808594 171.179688 379.808594 163.375 379.808594 155.570312 C 379.808594 141.566406 379.808594 127.5625 379.808594 113.558594 C 379.808594 107.976562 379.808594 102.398438 379.808594 96.820312 C 379.851562 96.550781 379.75 96.273438 379.425781 96.113281 C 372.175781 92.519531 364.921875 88.929688 357.671875 85.335938 C 345.222656 79.171875 332.773438 73.003906 320.324219 66.835938 C 315.96875 64.679688 311.613281 62.523438 307.261719 60.367188 C 300.007812 56.769531 292.757812 53.171875 285.507812 49.574219 C 273.058594 43.394531 260.605469 37.214844 248.15625 31.039062 C 243.800781 28.875 239.449219 26.714844 235.09375 24.554688 C 235.074219 24.546875 235.058594 24.542969 235.039062 24.535156 C 234.835938 24.417969 234.578125 24.398438 234.316406 24.554688 C 227.113281 28.785156 219.90625 33.015625 212.703125 37.242188 C 200.921875 44.160156 189.144531 51.074219 177.371094 57.988281 C 174.242188 59.824219 171.113281 61.664062 167.984375 63.5 C 160.78125 67.726562 153.578125 71.957031 146.371094 76.1875 C 134.597656 83.101562 122.820312 90.015625 111.042969 96.929688 C 107.914062 98.769531 104.785156 100.605469 101.65625 102.441406 C 101.566406 102.492188 101.5 102.554688 101.445312 102.621094 C 101.433594 102.632812 101.421875 102.644531 101.414062 102.65625 C 101.402344 102.671875 101.394531 102.6875 101.386719 102.707031 C 101.367188 102.734375 101.351562 102.761719 101.335938 102.792969 C 101.308594 102.859375 101.292969 102.9375 101.285156 103.019531 C 101.261719 103.109375 101.257812 103.199219 101.277344 103.289062 C 101.277344 111.191406 101.277344 119.089844 101.277344 126.992188 C 101.277344 140.996094 101.277344 155.003906 101.277344 169.007812 C 101.277344 174.453125 101.277344 179.898438 101.277344 185.34375 C 94.207031 189.5 87.136719 193.65625 80.070312 197.808594 C 68.304688 204.722656 56.539062 211.636719 44.773438 218.550781 C 41.648438 220.386719 38.523438 222.222656 35.398438 224.0625 C 35.3125 224.113281 35.246094 224.171875 35.191406 224.238281 C 35.179688 224.253906 35.167969 224.265625 35.15625 224.277344 C 35.148438 224.292969 35.140625 224.308594 35.128906 224.320312 C 35.074219 224.410156 35.039062 224.515625 35.027344 224.636719 C 35.003906 224.730469 35 224.820312 35.019531 224.910156 C 35.019531 232.8125 35.019531 240.710938 35.019531 248.613281 C 35.019531 262.621094 35.019531 276.625 35.019531 290.628906 C 35.019531 296.207031 35.019531 301.789062 35.019531 307.367188 C 35.003906 307.441406 35.003906 307.515625 35.019531 307.589844 C 35.019531 315.492188 35.019531 323.394531 35.019531 331.296875 C 35.019531 345.300781 35.019531 359.304688 35.019531 373.3125 C 35.019531 378.890625 35.019531 384.46875 35.019531 390.050781 C 34.976562 390.316406 35.074219 390.59375 35.398438 390.753906 C 42.652344 394.355469 49.902344 397.953125 57.15625 401.550781 C 69.605469 407.730469 82.054688 413.910156 94.503906 420.085938 C 98.859375 422.246094 103.214844 424.40625 107.566406 426.570312 C 114.820312 430.160156 122.070312 433.753906 129.320312 437.34375 C 141.773438 443.507812 154.222656 449.675781 166.671875 455.839844 C 171.027344 457.996094 175.378906 460.15625 179.734375 462.308594 C 179.753906 462.320312 179.769531 462.324219 179.789062 462.332031 C 179.992188 462.449219 180.25 462.46875 180.515625 462.308594 C 187.71875 458.082031 194.921875 453.851562 202.125 449.621094 C 213.902344 442.707031 225.679688 435.796875 237.457031 428.882812 C 240.464844 427.113281 243.476562 425.347656 246.484375 423.582031 C 253.59375 427.101562 260.707031 430.625 267.816406 434.144531 C 280.265625 440.3125 292.71875 446.476562 305.167969 452.644531 C 309.519531 454.800781 313.875 456.957031 318.226562 459.113281 C 318.246094 459.121094 318.265625 459.125 318.285156 459.132812 C 318.488281 459.25 318.742188 459.269531 319.007812 459.113281 C 326.226562 454.875 333.445312 450.644531 340.664062 446.40625 C 352.441406 439.496094 364.21875 432.589844 375.996094 425.679688 C 379.082031 423.867188 382.175781 422.054688 385.265625 420.242188 C 392.46875 416.011719 399.671875 411.78125 406.875 407.550781 C 418.652344 400.636719 430.429688 393.722656 442.210938 386.808594 C 445.335938 384.972656 448.464844 383.132812 451.59375 381.296875 C 451.683594 381.246094 451.75 381.183594 451.804688 381.117188 C 451.816406 381.105469 451.828125 381.09375 451.835938 381.082031 C 451.847656 381.066406 451.855469 381.050781 451.867188 381.035156 C 451.882812 381.003906 451.898438 380.976562 451.914062 380.945312 C 451.953125 380.855469 451.976562 380.75 451.976562 380.632812 C 451.976562 372.667969 451.976562 364.707031 451.976562 356.742188 C 451.976562 342.738281 451.976562 328.734375 451.976562 314.730469 C 451.976562 309.136719 451.976562 303.542969 451.976562 297.949219 C 451.976562 289.988281 451.976562 282.027344 451.976562 274.0625 C 451.976562 260.058594 451.976562 246.054688 451.976562 232.050781 C 451.976562 226.46875 451.976562 220.890625 451.976562 215.3125 C 452.015625 215.046875 451.917969 214.765625 451.59375 214.605469 Z M 318.585938 374.890625 C 311.472656 371.371094 304.363281 367.847656 297.253906 364.324219 C 284.800781 358.160156 272.351562 351.996094 259.902344 345.828125 C 255.957031 343.875 252.015625 341.921875 248.070312 339.96875 C 254.855469 335.980469 261.644531 331.992188 268.429688 328.003906 C 280.195312 321.085938 291.957031 314.175781 303.722656 307.257812 C 306.726562 305.492188 309.734375 303.726562 312.742188 301.960938 C 319.851562 305.480469 326.960938 309.003906 334.074219 312.523438 C 346.523438 318.691406 358.972656 324.855469 371.421875 331.023438 C 375.367188 332.976562 379.3125 334.929688 383.253906 336.882812 C 376.46875 340.871094 369.683594 344.859375 362.898438 348.847656 C 351.132812 355.761719 339.367188 362.675781 327.601562 369.589844 C 324.597656 371.359375 321.589844 373.125 318.585938 374.890625 Z M 180.089844 378.089844 C 172.980469 374.5625 165.867188 371.035156 158.757812 367.503906 C 146.308594 361.328125 133.855469 355.148438 121.40625 348.96875 C 117.464844 347.011719 113.519531 345.054688 109.578125 343.097656 C 116.371094 339.117188 123.164062 335.136719 129.957031 331.152344 C 141.734375 324.25 153.511719 317.347656 165.289062 310.445312 C 168.296875 308.683594 171.304688 306.917969 174.316406 305.15625 C 181.425781 308.675781 188.539062 312.199219 195.648438 315.71875 C 208.097656 321.886719 220.550781 328.054688 233 334.21875 C 236.945312 336.171875 240.886719 338.128906 244.832031 340.078125 C 238.039062 344.066406 231.242188 348.054688 224.449219 352.046875 C 212.675781 358.960938 200.898438 365.875 189.121094 372.789062 C 186.109375 374.558594 183.101562 376.324219 180.089844 378.089844 Z M 36.558594 283.519531 C 36.558594 269.515625 36.558594 255.511719 36.558594 241.503906 C 36.558594 236.328125 36.558594 231.148438 36.558594 225.96875 C 43.425781 229.367188 50.289062 232.769531 57.15625 236.167969 C 69.605469 242.335938 82.054688 248.5 94.503906 254.667969 C 98.730469 256.761719 102.957031 258.855469 107.183594 260.949219 C 107.183594 268.75 107.183594 276.554688 107.183594 284.359375 C 107.183594 298.367188 107.183594 312.371094 107.183594 326.375 C 107.183594 331.554688 107.183594 336.734375 107.183594 341.910156 C 100.320312 338.511719 93.457031 335.113281 86.589844 331.714844 C 74.140625 325.546875 61.691406 319.378906 49.242188 313.210938 C 45.015625 311.121094 40.789062 309.023438 36.558594 306.933594 C 36.558594 299.128906 36.558594 291.324219 36.558594 283.519531 Z M 102.816406 161.902344 C 102.816406 147.894531 102.816406 133.890625 102.816406 119.886719 C 102.816406 114.707031 102.816406 109.527344 102.816406 104.347656 C 109.6875 107.746094 116.558594 111.148438 123.433594 114.546875 C 135.894531 120.714844 148.355469 126.878906 160.820312 133.046875 C 165.050781 135.140625 169.28125 137.234375 173.511719 139.328125 C 173.511719 147.132812 173.511719 154.933594 173.511719 162.738281 C 173.511719 176.742188 173.511719 190.746094 173.511719 204.753906 C 173.511719 209.929688 173.511719 215.113281 173.511719 220.289062 C 166.640625 216.890625 159.769531 213.492188 152.898438 210.089844 C 140.4375 203.925781 127.972656 197.757812 115.511719 191.59375 C 111.28125 189.5 107.046875 187.40625 102.816406 185.3125 C 102.816406 177.507812 102.816406 169.703125 102.816406 161.902344 Z M 378.265625 120.667969 C 378.265625 134.671875 378.265625 148.675781 378.265625 162.679688 C 378.265625 168.128906 378.265625 173.570312 378.265625 179.015625 C 371.1875 183.171875 364.109375 187.328125 357.035156 191.480469 C 345.257812 198.394531 333.480469 205.308594 321.703125 212.226562 C 318.960938 213.835938 316.222656 215.445312 313.480469 217.054688 C 313.480469 209.539062 313.480469 202.027344 313.480469 194.511719 C 313.480469 180.507812 313.480469 166.503906 313.480469 152.5 C 313.480469 147.054688 313.480469 141.609375 313.480469 136.160156 C 320.554688 132.007812 327.632812 127.851562 334.707031 123.699219 C 346.484375 116.785156 358.261719 109.867188 370.039062 102.957031 C 372.78125 101.34375 375.519531 99.734375 378.265625 98.128906 C 378.265625 105.640625 378.265625 113.15625 378.265625 120.667969 Z M 384.105469 278.035156 C 384.105469 292.039062 384.105469 306.042969 384.105469 320.046875 C 384.105469 325.226562 384.105469 330.40625 384.105469 335.585938 C 377.238281 332.1875 370.375 328.785156 363.507812 325.386719 C 351.058594 319.21875 338.609375 313.054688 326.160156 306.886719 C 321.933594 304.792969 317.707031 302.699219 313.480469 300.605469 C 313.480469 292.804688 313.480469 285 313.480469 277.195312 C 313.480469 263.191406 313.480469 249.1875 313.480469 235.179688 C 313.480469 230.003906 313.480469 224.820312 313.480469 219.644531 C 320.34375 223.042969 327.207031 226.441406 334.074219 229.84375 C 346.523438 236.007812 358.972656 242.175781 371.421875 248.34375 C 375.648438 250.433594 379.875 252.527344 384.105469 254.621094 C 384.105469 262.425781 384.105469 270.230469 384.105469 278.035156 Z M 246.417969 339.148438 C 239.304688 335.625 232.195312 332.105469 225.085938 328.582031 C 212.636719 322.417969 200.183594 316.25 187.734375 310.082031 C 183.789062 308.128906 179.847656 306.175781 175.902344 304.222656 C 182.6875 300.234375 189.472656 296.25 196.261719 292.257812 C 208.027344 285.34375 219.792969 278.429688 231.554688 271.515625 C 234.5625 269.75 237.570312 267.980469 240.574219 266.214844 C 247.6875 269.738281 254.796875 273.261719 261.90625 276.78125 C 274.359375 282.949219 286.808594 289.113281 299.257812 295.277344 C 303.203125 297.234375 307.144531 299.1875 311.089844 301.136719 C 304.304688 305.125 297.519531 309.117188 290.730469 313.105469 C 278.96875 320.019531 267.203125 326.933594 255.4375 333.847656 C 252.429688 335.617188 249.425781 337.382812 246.417969 339.148438 Z M 311.9375 218.875 C 311.9375 226.679688 311.9375 234.484375 311.9375 242.289062 C 311.9375 256.292969 311.9375 270.296875 311.9375 284.304688 C 311.9375 289.480469 311.9375 294.660156 311.9375 299.839844 C 305.070312 296.441406 298.207031 293.039062 291.34375 289.640625 C 278.894531 283.476562 266.441406 277.308594 253.992188 271.144531 C 249.765625 269.050781 245.539062 266.957031 241.3125 264.863281 C 241.3125 257.0625 241.3125 249.253906 241.3125 241.453125 C 241.3125 227.449219 241.3125 213.441406 241.3125 199.4375 C 241.3125 194.257812 241.3125 189.078125 241.3125 183.902344 C 248.175781 187.300781 255.042969 190.699219 261.90625 194.101562 C 274.355469 200.265625 286.808594 206.433594 299.257812 212.597656 C 303.484375 214.691406 307.710938 216.785156 311.9375 218.875 Z M 239.769531 184.007812 C 239.769531 191.519531 239.769531 199.035156 239.769531 206.546875 C 239.769531 220.550781 239.769531 234.558594 239.769531 248.5625 C 239.769531 254.007812 239.769531 259.453125 239.769531 264.898438 C 232.703125 269.054688 225.632812 273.210938 218.5625 277.363281 C 206.800781 284.277344 195.035156 291.191406 183.269531 298.105469 C 180.53125 299.714844 177.792969 301.324219 175.054688 302.933594 C 175.054688 295.4375 175.054688 287.941406 175.054688 280.445312 C 175.054688 266.449219 175.054688 252.449219 175.054688 238.453125 C 175.054688 232.960938 175.054688 227.46875 175.054688 221.972656 C 182.148438 217.8125 189.238281 213.652344 196.332031 209.492188 C 208.109375 202.582031 219.886719 195.671875 231.660156 188.765625 C 234.363281 187.175781 237.066406 185.59375 239.769531 184.007812 Z M 311.9375 159.609375 C 311.9375 173.613281 311.9375 187.617188 311.9375 201.621094 C 311.9375 206.800781 311.9375 211.980469 311.9375 217.160156 C 305.070312 213.761719 298.207031 210.363281 291.34375 206.960938 C 278.894531 200.792969 266.441406 194.628906 253.992188 188.460938 C 249.765625 186.371094 245.539062 184.277344 241.3125 182.183594 C 241.3125 174.378906 241.3125 166.574219 241.3125 158.769531 C 241.3125 144.765625 241.3125 130.761719 241.3125 116.757812 C 241.3125 111.578125 241.3125 106.398438 241.3125 101.21875 C 248.175781 104.617188 255.042969 108.019531 261.90625 111.417969 C 274.355469 117.582031 286.808594 123.75 299.257812 129.914062 C 303.484375 132.007812 307.710938 134.101562 311.9375 136.195312 C 311.9375 144 311.9375 151.804688 311.9375 159.609375 Z M 239.769531 123.867188 C 239.769531 137.871094 239.769531 151.875 239.769531 165.882812 C 239.769531 171.324219 239.769531 176.769531 239.769531 182.21875 C 232.679688 186.378906 225.585938 190.539062 218.496094 194.699219 C 206.71875 201.609375 194.941406 208.515625 183.164062 215.425781 C 180.460938 217.011719 177.757812 218.597656 175.054688 220.183594 C 175.054688 212.671875 175.054688 205.15625 175.054688 197.644531 C 175.054688 183.636719 175.054688 169.632812 175.054688 155.628906 C 175.054688 150.183594 175.054688 144.738281 175.054688 139.292969 C 182.148438 135.132812 189.238281 130.972656 196.332031 126.808594 C 208.109375 119.902344 219.886719 112.992188 231.660156 106.082031 C 234.367188 104.496094 237.066406 102.910156 239.773438 101.324219 C 239.769531 108.839844 239.769531 116.351562 239.769531 123.867188 Z M 173.511719 245.367188 C 173.511719 259.367188 173.511719 273.363281 173.511719 287.359375 C 173.511719 292.851562 173.511719 298.347656 173.511719 303.839844 C 166.433594 307.984375 159.359375 312.132812 152.28125 316.28125 C 140.507812 323.183594 128.730469 330.085938 116.953125 336.988281 C 114.210938 338.597656 111.46875 340.203125 108.726562 341.808594 C 108.726562 334.296875 108.726562 326.78125 108.726562 319.269531 C 108.726562 305.261719 108.726562 291.257812 108.726562 277.253906 C 108.726562 271.804688 108.726562 266.363281 108.726562 260.917969 C 115.804688 256.761719 122.882812 252.605469 129.957031 248.453125 C 141.734375 241.539062 153.511719 234.621094 165.289062 227.707031 C 168.027344 226.097656 170.769531 224.488281 173.511719 222.878906 C 173.511719 230.375 173.511719 237.871094 173.511719 245.367188 Z M 385.644531 335.480469 C 385.644531 327.964844 385.644531 320.453125 385.644531 312.9375 C 385.644531 298.933594 385.644531 284.925781 385.644531 270.921875 C 385.644531 265.476562 385.644531 260.035156 385.644531 254.585938 C 392.722656 250.441406 399.796875 246.292969 406.875 242.144531 C 418.652344 235.242188 430.429688 228.34375 442.207031 221.441406 C 444.949219 219.832031 447.691406 218.226562 450.429688 216.617188 C 450.429688 224.132812 450.429688 231.648438 450.429688 239.160156 C 450.429688 253.164062 450.429688 267.167969 450.429688 281.171875 C 450.429688 286.617188 450.429688 292.0625 450.429688 297.507812 C 443.355469 301.65625 436.28125 305.804688 429.203125 309.949219 C 417.425781 316.851562 405.648438 323.753906 393.871094 330.660156 C 391.128906 332.265625 388.386719 333.875 385.644531 335.480469 Z M 400.402344 190.921875 C 412.851562 197.101562 425.300781 203.277344 437.753906 209.457031 C 441.695312 211.414062 445.640625 213.371094 449.582031 215.328125 C 442.789062 219.308594 435.996094 223.292969 429.203125 227.273438 C 417.425781 234.175781 405.648438 241.078125 393.871094 247.980469 C 390.859375 249.742188 387.851562 251.507812 384.839844 253.269531 C 377.730469 249.75 370.621094 246.226562 363.507812 242.707031 C 351.058594 236.539062 338.609375 230.371094 326.160156 224.207031 C 322.214844 222.25 318.269531 220.296875 314.328125 218.347656 C 321.121094 214.355469 327.914062 210.371094 334.707031 206.378906 C 346.484375 199.464844 358.261719 192.550781 370.039062 185.636719 C 373.046875 183.871094 376.058594 182.101562 379.066406 180.335938 C 386.179688 183.863281 393.289062 187.390625 400.402344 190.921875 Z M 328.234375 72.476562 C 340.683594 78.644531 353.132812 84.808594 365.585938 90.976562 C 369.527344 92.929688 373.472656 94.882812 377.414062 96.835938 C 370.621094 100.824219 363.828125 104.8125 357.035156 108.800781 C 345.257812 115.714844 333.480469 122.628906 321.703125 129.542969 C 318.695312 131.3125 315.683594 133.078125 312.675781 134.84375 C 305.5625 131.324219 298.453125 127.800781 291.34375 124.28125 C 278.894531 118.113281 266.441406 111.949219 253.992188 105.78125 C 250.046875 103.828125 246.105469 101.875 242.160156 99.921875 C 248.957031 95.933594 255.75 91.945312 262.542969 87.957031 C 274.316406 81.042969 286.09375 74.128906 297.871094 67.214844 C 300.882812 65.445312 303.890625 63.679688 306.902344 61.914062 C 314.011719 65.433594 321.121094 68.953125 328.234375 72.476562 Z M 190.375 52.144531 C 202.152344 45.230469 213.929688 38.316406 225.707031 31.402344 C 228.714844 29.632812 231.726562 27.867188 234.734375 26.097656 C 241.84375 29.628906 248.957031 33.15625 256.066406 36.6875 C 268.515625 42.863281 280.964844 49.042969 293.417969 55.222656 C 297.359375 57.179688 301.304688 59.136719 305.25 61.09375 C 298.453125 65.082031 291.660156 69.070312 284.867188 73.058594 C 273.089844 79.972656 261.3125 86.890625 249.535156 93.800781 C 246.527344 95.570312 243.515625 97.335938 240.507812 99.105469 C 233.394531 95.574219 226.285156 92.046875 219.175781 88.519531 C 206.722656 82.339844 194.273438 76.160156 181.824219 69.984375 C 177.878906 68.027344 173.933594 66.070312 169.992188 64.113281 C 176.789062 60.121094 183.582031 56.132812 190.375 52.144531 Z M 124.046875 91.085938 C 135.824219 84.171875 147.601562 77.257812 159.378906 70.34375 C 162.386719 68.574219 165.398438 66.808594 168.40625 65.042969 C 175.519531 68.570312 182.628906 72.097656 189.738281 75.628906 C 202.191406 81.804688 214.640625 87.984375 227.089844 94.160156 C 231.035156 96.117188 234.976562 98.074219 238.921875 100.035156 C 232.113281 104.027344 225.304688 108.023438 218.496094 112.019531 C 206.71875 118.925781 194.941406 125.835938 183.164062 132.746094 C 180.195312 134.488281 177.222656 136.230469 174.25 137.976562 C 167.132812 134.453125 160.015625 130.933594 152.898438 127.410156 C 140.4375 121.242188 127.972656 115.078125 115.511719 108.910156 C 111.5625 106.957031 107.613281 105.003906 103.667969 103.050781 C 110.460938 99.0625 117.253906 95.074219 124.046875 91.085938 Z M 57.765625 212.707031 C 69.53125 205.792969 81.296875 198.878906 93.0625 191.964844 C 96.066406 190.195312 99.074219 188.429688 102.078125 186.664062 C 109.195312 190.183594 116.316406 193.707031 123.433594 197.226562 C 135.894531 203.394531 148.355469 209.5625 160.820312 215.726562 C 164.769531 217.679688 168.714844 219.632812 172.664062 221.585938 C 165.871094 225.574219 159.078125 229.5625 152.28125 233.550781 C 140.507812 240.464844 128.730469 247.382812 116.953125 254.296875 C 113.945312 256.0625 110.933594 257.828125 107.925781 259.597656 C 100.8125 256.074219 93.703125 252.550781 86.589844 249.03125 C 74.140625 242.863281 61.691406 236.695312 49.242188 230.53125 C 45.296875 228.578125 41.355469 226.625 37.410156 224.671875 C 44.195312 220.683594 50.980469 216.695312 57.765625 212.707031 Z M 86.589844 414.441406 C 74.140625 408.261719 61.691406 402.085938 49.242188 395.90625 C 45.015625 393.808594 40.789062 391.710938 36.558594 389.613281 C 36.558594 381.808594 36.558594 374.003906 36.558594 366.203125 C 36.558594 352.195312 36.558594 338.191406 36.558594 324.1875 C 36.558594 319.007812 36.558594 313.828125 36.558594 308.648438 C 43.425781 312.046875 50.289062 315.449219 57.15625 318.847656 C 69.605469 325.015625 82.054688 331.183594 94.503906 337.347656 C 98.730469 339.441406 102.957031 341.535156 107.183594 343.628906 C 107.183594 351.414062 107.183594 359.203125 107.183594 366.988281 C 107.183594 380.984375 107.183594 394.984375 107.183594 408.980469 C 107.183594 414.207031 107.183594 419.433594 107.183594 424.660156 C 100.320312 421.253906 93.457031 417.847656 86.589844 414.441406 Z M 158.757812 450.203125 C 146.308594 444.039062 133.859375 437.871094 121.410156 431.707031 C 117.179688 429.613281 112.957031 427.519531 108.726562 425.425781 C 108.726562 417.640625 108.726562 409.855469 108.726562 402.066406 C 108.726562 388.070312 108.726562 374.070312 108.726562 360.078125 C 108.726562 354.847656 108.726562 349.625 108.726562 344.398438 C 115.59375 347.800781 122.457031 351.210938 129.320312 354.613281 C 141.773438 360.792969 154.222656 366.972656 166.671875 373.152344 C 170.898438 375.246094 175.125 377.347656 179.351562 379.441406 C 179.351562 387.246094 179.351562 395.050781 179.351562 402.855469 C 179.351562 416.859375 179.351562 430.863281 179.351562 444.867188 C 179.351562 450.046875 179.351562 455.226562 179.351562 460.40625 C 172.488281 457.003906 165.625 453.605469 158.757812 450.203125 Z M 224.449219 434.726562 C 212.671875 441.640625 200.894531 448.554688 189.117188 455.46875 C 186.375 457.078125 183.636719 458.6875 180.894531 460.296875 C 180.894531 452.785156 180.894531 445.269531 180.894531 437.757812 C 180.894531 423.753906 180.894531 409.746094 180.894531 395.742188 C 180.894531 390.296875 180.894531 384.855469 180.894531 379.40625 C 187.972656 375.253906 195.046875 371.097656 202.125 366.941406 C 213.902344 360.027344 225.675781 353.113281 237.453125 346.199219 C 240.195312 344.589844 242.9375 342.980469 245.679688 341.371094 C 245.679688 348.882812 245.679688 356.398438 245.679688 363.910156 C 245.679688 377.917969 245.679688 391.921875 245.679688 405.925781 C 245.679688 411.371094 245.679688 416.816406 245.679688 422.265625 C 238.601562 426.417969 231.527344 430.574219 224.449219 434.726562 Z M 297.253906 447.007812 C 284.800781 440.839844 272.351562 434.675781 259.902344 428.507812 C 255.675781 426.417969 251.449219 424.324219 247.222656 422.230469 C 247.222656 414.425781 247.222656 406.621094 247.222656 398.816406 C 247.222656 384.8125 247.222656 370.808594 247.222656 356.800781 C 247.222656 351.625 247.222656 346.445312 247.222656 341.265625 C 254.085938 344.664062 260.949219 348.066406 267.816406 351.464844 C 280.265625 357.628906 292.714844 363.796875 305.167969 369.960938 C 309.390625 372.054688 313.621094 374.148438 317.847656 376.242188 C 317.847656 384.042969 317.847656 391.851562 317.847656 399.652344 C 317.847656 413.660156 317.847656 427.664062 317.847656 441.667969 C 317.847656 446.847656 317.847656 452.027344 317.847656 457.207031 C 310.984375 453.804688 304.117188 450.410156 297.253906 447.007812 Z M 362.828125 431.617188 C 351.050781 438.527344 339.273438 445.433594 327.496094 452.34375 C 324.796875 453.929688 322.09375 455.515625 319.386719 457.101562 C 319.386719 449.585938 319.386719 442.074219 319.386719 434.558594 C 319.386719 420.554688 319.386719 406.550781 319.386719 392.542969 C 319.386719 387.097656 319.386719 381.65625 319.386719 376.207031 C 326.457031 372.054688 333.527344 367.898438 340.59375 363.746094 C 352.359375 356.832031 364.125 349.917969 375.886719 343.003906 C 378.625 341.394531 381.363281 339.785156 384.101562 338.175781 C 384.101562 345.671875 384.101562 353.167969 384.101562 360.664062 C 384.101562 374.660156 384.101562 388.65625 384.101562 402.652344 C 384.101562 408.148438 384.101562 413.640625 384.101562 419.132812 C 377.011719 423.292969 369.921875 427.457031 362.828125 431.617188 Z M 429.203125 392.65625 C 417.425781 399.570312 405.648438 406.484375 393.871094 413.402344 C 391.128906 415.007812 388.386719 416.621094 385.644531 418.230469 C 385.644531 410.730469 385.644531 403.234375 385.644531 395.738281 C 385.644531 381.742188 385.644531 367.746094 385.644531 353.75 C 385.644531 348.253906 385.644531 342.761719 385.644531 337.269531 C 392.722656 333.121094 399.796875 328.972656 406.875 324.828125 C 418.652344 317.925781 430.429688 311.019531 442.207031 304.117188 C 444.949219 302.511719 447.6875 300.90625 450.429688 299.296875 C 450.429688 306.8125 450.429688 314.324219 450.429688 321.839844 C 450.429688 335.84375 450.429688 349.851562 450.429688 363.855469 C 450.429688 369.300781 450.429688 374.742188 450.429688 380.191406 C 443.355469 384.347656 436.28125 388.5 429.203125 392.65625 Z M 429.203125 392.65625 " fill-opacity="1" fill-rule="nonzero"/></g></svg>