<svg xmlns="http://www.w3.org/2000/svg" xmlns:xlink="http://www.w3.org/1999/xlink" width="500" zoomAndPan="magnify" viewBox="0 0 375 374.999991" height="500" preserveAspectRatio="xMidYMid meet" version="1.0"><defs><clipPath id="39f5adc423"><path d="M 181 67.351562 L 347.691406 67.351562 L 347.691406 262 L 181 262 Z M 181 67.351562 " clip-rule="nonzero"/></clipPath><clipPath id="be629487c9"><path d="M 53.691406 67.351562 L 347.691406 67.351562 L 347.691406 337.351562 L 53.691406 337.351562 Z M 53.691406 67.351562 " clip-rule="nonzero"/></clipPath><clipPath id="8d9263730f"><path d="M 54 276 L 249 276 L 249 337.351562 L 54 337.351562 Z M 54 276 " clip-rule="nonzero"/></clipPath></defs><g clip-path="url(#39f5adc423)"><path fill="#d9d9d9" d="M 346.644531 261.832031 C 346.589844 261.832031 346.535156 261.832031 346.480469 261.8125 L 182.496094 222.015625 C 182.148438 221.933594 181.929688 221.601562 181.96875 221.257812 L 202.214844 68.070312 C 202.25 67.792969 202.457031 67.566406 202.726562 67.488281 C 203.003906 67.421875 203.285156 67.515625 203.453125 67.746094 L 347.191406 260.726562 C 347.363281 260.960938 347.371094 261.277344 347.210938 261.519531 C 347.078125 261.714844 346.867188 261.832031 346.636719 261.832031 Z M 183.429688 220.820312 L 344.945312 260.015625 L 203.371094 69.941406 L 183.429688 220.828125 Z M 183.429688 220.820312 " fill-opacity="1" fill-rule="nonzero"/></g><g clip-path="url(#be629487c9)"><path fill="#d9d9d9" d="M 248.125 337.433594 C 248.039062 337.433594 247.949219 337.421875 247.867188 337.386719 C 247.640625 337.296875 247.480469 337.09375 247.441406 336.859375 L 202.5 69.929688 L 56.449219 275.398438 L 182.390625 220.710938 L 182.945312 221.976562 L 54.726562 277.648438 C 54.445312 277.773438 54.113281 277.691406 53.917969 277.449219 C 53.726562 277.207031 53.710938 276.871094 53.890625 276.613281 L 202.339844 67.765625 C 202.5 67.539062 202.78125 67.425781 203.058594 67.488281 C 203.328125 67.550781 203.542969 67.773438 203.585938 68.050781 L 248.605469 335.5 L 346.222656 260.59375 L 347.066406 261.695312 L 248.542969 337.296875 C 248.421875 337.390625 248.277344 337.441406 248.125 337.441406 Z M 248.125 337.433594 " fill-opacity="1" fill-rule="nonzero"/></g><g clip-path="url(#8d9263730f)"><path fill="#d9d9d9" d="M 54.246094 277.691406 L 54.652344 276.371094 L 248.324219 336.097656 L 247.917969 337.417969 Z M 54.246094 277.691406 " fill-opacity="1" fill-rule="nonzero"/></g><path fill="#d9d9d9" d="M 242.492188 304.042969 C 242.425781 304.042969 242.355469 304.035156 242.292969 304.015625 L 72.703125 251.71875 L 73.109375 250.398438 L 242.363281 302.59375 L 328.203125 236.398438 L 329.042969 237.488281 L 242.921875 303.90625 C 242.796875 304 242.652344 304.050781 242.5 304.050781 Z M 242.492188 304.042969 " fill-opacity="1" fill-rule="nonzero"/><path fill="#d9d9d9" d="M 233.644531 251.449219 C 233.578125 251.449219 233.507812 251.441406 233.445312 251.421875 L 101.773438 210.820312 L 102.183594 209.5 L 233.546875 250.011719 L 305.191406 205.40625 L 305.925781 206.578125 L 234.011719 251.351562 C 233.902344 251.421875 233.777344 251.457031 233.644531 251.457031 Z M 233.644531 251.449219 " fill-opacity="1" fill-rule="nonzero"/><path fill="#d9d9d9" d="M 224.789062 198.863281 C 224.722656 198.863281 224.652344 198.855469 224.589844 198.835938 L 130.839844 169.925781 L 131.25 168.609375 L 224.722656 197.433594 L 277.886719 168.664062 L 278.542969 169.878906 L 225.121094 198.785156 C 225.019531 198.84375 224.90625 198.871094 224.789062 198.871094 Z M 224.789062 198.863281 " fill-opacity="1" fill-rule="nonzero"/><path fill="#d9d9d9" d="M 215.941406 146.277344 C 215.871094 146.277344 215.804688 146.269531 215.742188 146.25 L 159.914062 129.035156 L 160.117188 128.386719 L 160.117188 127.679688 C 160.183594 127.679688 160.253906 127.695312 160.316406 127.710938 L 215.867188 144.839844 L 247.417969 127.765625 L 248.074219 128.980469 L 216.265625 146.195312 C 216.164062 146.25 216.050781 146.277344 215.933594 146.277344 Z M 215.941406 146.277344 " fill-opacity="1" fill-rule="nonzero"/><path fill="#d9d9d9" d="M 207.085938 93.691406 C 207.015625 93.691406 206.949219 93.683594 206.886719 93.664062 L 188.980469 88.136719 L 189.390625 86.816406 L 207.121094 92.289062 L 219.203125 89.566406 L 219.503906 90.914062 L 207.246094 93.675781 C 207.195312 93.691406 207.140625 93.691406 207.09375 93.691406 Z M 207.085938 93.691406 " fill-opacity="1" fill-rule="nonzero"/></svg>