<svg xmlns="http://www.w3.org/2000/svg" xmlns:xlink="http://www.w3.org/1999/xlink" width="500" zoomAndPan="magnify" viewBox="0 0 375 374.999991" height="500" preserveAspectRatio="xMidYMid meet" version="1.0"><defs><clipPath id="6c57891735"><path d="M 80.394531 70.109375 L 306.894531 70.109375 L 306.894531 329.609375 L 80.394531 329.609375 Z M 80.394531 70.109375 " clip-rule="nonzero"/></clipPath></defs><path fill="#000000" d="M 249.847656 131.929688 L 239.585938 226.390625 L 305.652344 202.847656 L 259.195312 272.777344 L 146.53125 328.300781 L 87.074219 301.734375 L 81.097656 289.714844 L 123.621094 264.132812 L 100.144531 198.699219 L 172.609375 71.695312 L 200.089844 198.277344 Z M 249.847656 131.929688 " fill-opacity="1" fill-rule="evenodd"/><g clip-path="url(#6c57891735)"><path fill="#d9d9d9" d="M 146.953125 267.578125 C 146.953125 267.226562 147.09375 267.015625 147.234375 266.804688 L 155.949219 255.136719 L 138.519531 260.6875 L 124.253906 265.1875 L 89.109375 301.3125 L 145.40625 326.472656 Z M 172.117188 74.929688 L 101.410156 198.839844 L 124.324219 262.726562 L 158.410156 251.902344 L 198.824219 197.996094 Z M 99.089844 198.136719 L 171.554688 71.136719 C 171.695312 70.855469 171.976562 70.574219 172.398438 70.503906 C 173.03125 70.363281 173.660156 70.785156 173.800781 71.414062 L 200.722656 195.464844 L 248.9375 131.226562 C 249.355469 130.734375 250.058594 130.59375 250.621094 131.015625 C 250.972656 131.296875 251.113281 131.71875 251.113281 132.070312 L 241.0625 224.703125 L 305.304688 201.792969 C 305.933594 201.582031 306.566406 201.933594 306.847656 202.496094 C 306.988281 202.847656 306.917969 203.269531 306.707031 203.546875 L 260.320312 273.410156 C 260.179688 273.621094 260.039062 273.761719 259.828125 273.832031 L 147.234375 329.355469 C 146.882812 329.496094 146.53125 329.496094 146.179688 329.355469 L 86.652344 302.789062 L 80.675781 290.839844 C 80.394531 290.277344 80.605469 289.644531 81.097656 289.292969 L 122.777344 264.203125 L 99.019531 199.121094 C 98.878906 198.839844 98.878906 198.417969 99.089844 198.136719 Z M 201.003906 198.980469 L 160.097656 253.519531 C 160.097656 253.589844 160.027344 253.660156 159.957031 253.660156 L 150.398438 266.453125 L 224.898438 269.964844 L 233.613281 270.386719 L 237.269531 236.371094 L 238.324219 226.320312 L 248.09375 136.148438 Z M 116.382812 269.894531 L 82.644531 290.207031 L 87.425781 299.765625 Z M 236.003906 270.457031 L 258.5625 271.511719 L 302.632812 205.164062 L 240.640625 227.234375 Z M 251.042969 273.550781 L 234.738281 272.777344 C 234.738281 272.777344 234.667969 272.777344 234.667969 272.777344 L 149.34375 268.773438 L 148.429688 305.460938 L 147.867188 326.332031 L 254.628906 273.691406 Z M 251.042969 273.550781 " fill-opacity="1" fill-rule="nonzero"/></g></svg>