<svg xmlns="http://www.w3.org/2000/svg" xmlns:xlink="http://www.w3.org/1999/xlink" width="650" zoomAndPan="magnify" viewBox="0 0 487.5 487.499999" height="650" preserveAspectRatio="xMidYMid meet" version="1.0"><defs><clipPath id="5ef4f31e0d"><path d="M 48.699219 34.894531 L 445.792969 34.894531 L 445.792969 452 L 48.699219 452 Z M 48.699219 34.894531 " clip-rule="nonzero"/></clipPath></defs><g clip-path="url(#5ef4f31e0d)"><path fill="#d9d9d9" d="M 445.171875 277.507812 C 445.09375 277.433594 444.996094 277.382812 444.886719 277.355469 C 437.210938 273.527344 429.539062 269.699219 421.863281 265.871094 C 410.320312 260.109375 398.777344 254.351562 387.230469 248.59375 C 386 247.980469 384.769531 247.367188 383.535156 246.75 C 391.46875 244.222656 399.40625 241.695312 407.339844 239.167969 C 418.929688 235.476562 430.519531 231.789062 442.109375 228.097656 C 443.035156 227.800781 443.964844 227.507812 444.890625 227.210938 C 444.96875 227.183594 445.035156 227.148438 445.097656 227.109375 C 445.300781 226.992188 445.449219 226.78125 445.449219 226.476562 C 445.449219 219.855469 445.449219 213.238281 445.449219 206.621094 C 445.449219 192.863281 445.449219 179.105469 445.449219 165.351562 C 445.449219 153.609375 445.449219 141.867188 445.449219 130.121094 C 445.449219 127.847656 445.449219 125.574219 445.449219 123.296875 C 445.484375 123.066406 445.410156 122.832031 445.171875 122.671875 C 445.09375 122.59375 444.996094 122.542969 444.886719 122.511719 C 437.738281 118.949219 430.59375 115.382812 423.449219 111.816406 C 411.230469 105.722656 399.011719 99.625 386.796875 93.527344 C 382.839844 91.554688 378.878906 89.578125 374.921875 87.605469 C 374.761719 87.472656 374.542969 87.414062 374.277344 87.496094 C 363.972656 90.785156 353.671875 94.070312 343.367188 97.359375 C 342.289062 97.699219 341.214844 98.046875 340.136719 98.390625 C 340.136719 89.1875 340.136719 79.980469 340.136719 70.777344 C 340.171875 70.546875 340.09375 70.308594 339.859375 70.148438 C 339.777344 70.074219 339.679688 70.019531 339.574219 69.992188 C 332.410156 66.417969 325.246094 62.839844 318.082031 59.261719 C 305.859375 53.160156 293.636719 47.054688 281.414062 40.953125 C 277.496094 38.996094 273.578125 37.039062 269.65625 35.082031 C 269.496094 34.949219 269.277344 34.890625 269.011719 34.976562 C 262.160156 37.15625 255.308594 39.339844 248.457031 41.523438 C 235.15625 45.757812 221.855469 49.992188 208.554688 54.230469 C 199.691406 57.054688 190.828125 59.875 181.960938 62.699219 C 181.675781 62.789062 181.390625 62.882812 181.105469 62.972656 C 181.027344 62.996094 180.960938 63.03125 180.898438 63.074219 C 180.714844 63.175781 180.578125 63.359375 180.554688 63.621094 C 180.535156 63.707031 180.53125 63.796875 180.546875 63.882812 C 180.546875 74.609375 180.546875 85.339844 180.546875 96.066406 C 180.546875 96.828125 180.546875 97.589844 180.546875 98.351562 C 171.652344 93.914062 162.757812 89.480469 153.863281 85.046875 C 148.515625 82.382812 143.167969 79.714844 137.820312 77.050781 C 137.65625 76.921875 137.441406 76.859375 137.175781 76.945312 C 130.324219 79.125 123.472656 81.300781 116.621094 83.480469 C 103.320312 87.707031 90.019531 91.933594 76.71875 96.164062 C 67.855469 98.984375 58.988281 101.800781 50.121094 104.617188 C 49.835938 104.710938 49.550781 104.800781 49.265625 104.890625 C 49.1875 104.914062 49.121094 104.953125 49.0625 104.992188 C 48.878906 105.09375 48.742188 105.28125 48.714844 105.539062 C 48.695312 105.625 48.695312 105.710938 48.707031 105.796875 C 48.707031 112.359375 48.707031 118.917969 48.707031 125.480469 C 48.707031 139.238281 48.707031 152.992188 48.707031 166.75 C 48.707031 178.492188 48.707031 190.234375 48.707031 201.976562 C 48.707031 204.25 48.707031 206.527344 48.707031 208.800781 C 48.667969 209.0625 48.769531 209.335938 49.085938 209.492188 C 56.824219 213.351562 64.558594 217.210938 72.296875 221.070312 C 83.839844 226.832031 95.382812 232.589844 106.925781 238.347656 C 108.15625 238.960938 109.386719 239.578125 110.621094 240.191406 C 102.6875 242.71875 94.753906 245.246094 86.816406 247.773438 C 75.230469 251.460938 63.640625 255.152344 52.050781 258.84375 C 51.121094 259.140625 50.195312 259.4375 49.269531 259.730469 C 49.1875 259.757812 49.121094 259.792969 49.0625 259.832031 C 48.878906 259.9375 48.742188 260.121094 48.71875 260.378906 C 48.699219 260.464844 48.695312 260.554688 48.710938 260.640625 C 48.710938 267.203125 48.710938 273.761719 48.710938 280.320312 C 48.710938 294.078125 48.710938 307.832031 48.710938 321.589844 C 48.710938 333.332031 48.710938 345.074219 48.710938 356.820312 C 48.710938 359.09375 48.710938 361.367188 48.710938 363.640625 C 48.667969 363.902344 48.769531 364.175781 49.085938 364.335938 C 56.316406 367.9375 63.546875 371.539062 70.777344 375.140625 C 83.007812 381.238281 95.242188 387.332031 107.472656 393.425781 C 111.394531 395.378906 115.316406 397.332031 119.238281 399.285156 C 119.398438 399.417969 119.617188 399.476562 119.878906 399.394531 C 130.207031 396.109375 140.53125 392.824219 150.855469 389.542969 C 151.894531 389.210938 152.933594 388.878906 153.972656 388.550781 C 153.972656 397.753906 153.972656 406.957031 153.972656 416.164062 C 153.929688 416.425781 154.03125 416.699219 154.347656 416.859375 C 161.578125 420.460938 168.808594 424.0625 176.039062 427.664062 C 188.273438 433.757812 200.503906 439.855469 212.738281 445.949219 C 216.660156 447.902344 220.578125 449.855469 224.5 451.808594 C 224.664062 451.9375 224.882812 452 225.144531 451.914062 C 231.996094 449.738281 238.847656 447.558594 245.699219 445.378906 C 259 441.152344 272.300781 436.921875 285.601562 432.695312 C 294.464844 429.878906 303.332031 427.058594 312.195312 424.242188 C 312.480469 424.152344 312.765625 424.058594 313.050781 423.96875 C 313.128906 423.945312 313.195312 423.90625 313.257812 423.867188 C 313.460938 423.753906 313.609375 423.542969 313.609375 423.234375 C 313.609375 412.433594 313.609375 401.628906 313.609375 390.828125 C 313.609375 390.066406 313.609375 389.304688 313.609375 388.539062 C 322.503906 392.984375 331.402344 397.429688 340.292969 401.875 C 345.640625 404.546875 350.988281 407.21875 356.335938 409.890625 C 356.5 410.019531 356.71875 410.078125 356.984375 409.996094 C 363.835938 407.8125 370.6875 405.632812 377.539062 403.449219 C 390.839844 399.214844 404.136719 394.980469 417.4375 390.742188 C 426.304688 387.917969 435.167969 385.097656 444.035156 382.273438 C 444.320312 382.183594 444.605469 382.089844 444.890625 382 C 444.96875 381.976562 445.035156 381.941406 445.09375 381.898438 C 445.300781 381.785156 445.449219 381.574219 445.449219 381.265625 C 445.449219 374.652344 445.449219 368.035156 445.449219 361.417969 C 445.449219 347.671875 445.449219 333.921875 445.449219 320.171875 C 445.449219 308.433594 445.449219 296.699219 445.449219 284.960938 C 445.449219 282.6875 445.449219 280.414062 445.449219 278.140625 C 445.484375 277.910156 445.40625 277.671875 445.171875 277.507812 Z M 404.347656 258.828125 C 415.890625 264.589844 427.433594 270.347656 438.976562 276.105469 C 440.207031 276.71875 441.441406 277.335938 442.671875 277.949219 C 436.425781 279.933594 430.175781 281.917969 423.929688 283.90625 C 410.628906 288.132812 397.328125 292.363281 384.027344 296.589844 C 375.164062 299.410156 366.296875 302.226562 357.433594 305.046875 C 357.234375 305.109375 357.039062 305.171875 356.839844 305.234375 C 349.210938 301.429688 341.582031 297.621094 333.953125 293.816406 C 322.410156 288.054688 310.867188 282.296875 299.324219 276.539062 C 298.09375 275.925781 296.859375 275.3125 295.628906 274.695312 C 301.4375 272.855469 307.246094 271.015625 313.050781 269.175781 C 313.132812 269.152344 313.203125 269.113281 313.261719 269.070312 C 313.460938 268.957031 313.609375 268.746094 313.609375 268.441406 C 313.609375 266.710938 313.609375 264.984375 313.609375 263.253906 C 322.265625 260.488281 330.921875 257.722656 339.578125 254.957031 C 342.945312 253.894531 346.3125 252.835938 349.679688 251.769531 C 351.898438 252.863281 354.121094 253.960938 356.339844 255.050781 C 356.503906 255.179688 356.71875 255.238281 356.980469 255.15625 C 365.140625 252.574219 373.300781 249.992188 381.457031 247.410156 C 389.085938 251.21875 396.714844 255.023438 404.347656 258.828125 Z M 225.59375 346.964844 C 225.398438 347.027344 225.199219 347.089844 225.003906 347.152344 C 217.878906 343.605469 210.757812 340.054688 203.636719 336.503906 C 191.402344 330.410156 179.171875 324.316406 166.9375 318.222656 C 163.542969 316.53125 160.148438 314.839844 156.75 313.144531 C 165.53125 310.351562 174.3125 307.558594 183.09375 304.765625 C 191.308594 302.152344 199.523438 299.539062 207.738281 296.925781 C 211.105469 295.847656 214.472656 294.769531 217.839844 293.691406 C 220.058594 294.800781 222.277344 295.910156 224.5 297.015625 C 224.660156 297.148438 224.878906 297.207031 225.144531 297.125 C 233.304688 294.527344 241.464844 291.925781 249.625 289.328125 C 250.125 289.570312 250.628906 289.816406 251.128906 290.058594 C 260.832031 294.914062 270.527344 299.765625 280.226562 304.621094 C 282.214844 305.613281 284.199219 306.605469 286.1875 307.601562 C 294.398438 311.691406 302.613281 315.777344 310.828125 319.867188 C 304.582031 321.851562 298.335938 323.839844 292.089844 325.824219 C 278.789062 330.050781 265.488281 334.28125 252.1875 338.507812 C 243.324219 341.328125 234.460938 344.144531 225.59375 346.964844 Z M 183.238281 274.753906 C 183.167969 274.695312 183.085938 274.65625 182.996094 274.632812 C 173.863281 270.070312 164.734375 265.507812 155.605469 260.945312 C 155.566406 260.925781 155.53125 260.90625 155.492188 260.886719 C 155.492188 254.316406 155.492188 247.75 155.492188 241.179688 C 155.503906 241.109375 155.503906 241.035156 155.492188 240.964844 C 155.492188 238.214844 155.492188 235.46875 155.492188 232.71875 C 155.492188 224.382812 155.492188 216.050781 155.492188 207.714844 C 155.492188 194.355469 155.492188 181 155.492188 167.640625 C 155.492188 164.886719 155.492188 162.128906 155.492188 159.375 C 162.320312 162.78125 169.144531 166.1875 175.972656 169.59375 C 188.191406 175.6875 200.40625 181.785156 212.625 187.882812 C 216.476562 189.804688 220.328125 191.726562 224.179688 193.648438 C 224.179688 200.109375 224.179688 206.570312 224.179688 213.035156 C 224.179688 226.789062 224.179688 240.546875 224.179688 254.300781 C 224.179688 266.046875 224.179688 277.789062 224.179688 289.53125 C 224.179688 291.40625 224.179688 293.28125 224.179688 295.160156 C 222.234375 294.1875 220.289062 293.214844 218.34375 292.242188 C 218.273438 292.183594 218.1875 292.140625 218.09375 292.121094 C 214.703125 290.433594 211.3125 288.746094 207.921875 287.058594 C 199.695312 282.957031 191.464844 278.855469 183.238281 274.753906 Z M 120.4375 242.828125 C 120.4375 236.554688 120.4375 230.285156 120.4375 224.011719 C 120.4375 210.257812 120.4375 196.5 120.4375 182.746094 C 120.4375 171 120.4375 159.257812 120.4375 147.515625 C 120.4375 145.414062 120.4375 143.3125 120.4375 141.214844 C 127.117188 139.089844 133.800781 136.964844 140.480469 134.839844 C 153.792969 130.605469 167.109375 126.367188 180.425781 122.132812 C 189.207031 119.339844 197.992188 116.546875 206.777344 113.753906 C 206.777344 122.765625 206.777344 131.78125 206.777344 140.792969 C 197.578125 143.71875 188.375 146.648438 179.175781 149.574219 C 170.960938 152.1875 162.746094 154.800781 154.53125 157.414062 C 154.453125 157.4375 154.386719 157.476562 154.324219 157.515625 C 154.140625 157.617188 154.003906 157.804688 153.980469 158.0625 C 153.960938 158.148438 153.957031 158.234375 153.972656 158.320312 C 153.972656 166.597656 153.972656 174.875 153.972656 183.152344 C 153.972656 196.507812 153.972656 209.867188 153.972656 223.226562 C 153.972656 226.203125 153.972656 229.183594 153.972656 232.160156 C 150.703125 233.195312 147.433594 234.222656 144.167969 235.257812 C 136.257812 237.78125 128.347656 240.304688 120.4375 242.828125 Z M 182.070312 99.109375 C 182.070312 88.480469 182.070312 77.847656 182.070312 67.21875 C 182.070312 66.457031 182.070312 65.699219 182.070312 64.9375 C 188.917969 68.347656 195.765625 71.761719 202.613281 75.171875 C 214.847656 81.265625 227.078125 87.359375 239.308594 93.457031 C 243.125 95.355469 246.9375 97.257812 250.753906 99.15625 C 250.753906 109.804688 250.753906 120.449219 250.753906 131.097656 C 250.753906 131.859375 250.753906 132.621094 250.753906 133.386719 C 248.195312 132.113281 245.640625 130.84375 243.082031 129.570312 C 242.921875 129.441406 242.703125 129.382812 242.4375 129.464844 C 232.097656 132.75 221.757812 136.035156 211.421875 139.316406 C 210.378906 139.648438 209.339844 139.976562 208.300781 140.308594 C 208.300781 131.121094 208.300781 121.929688 208.300781 112.742188 C 208.332031 112.511719 208.257812 112.277344 208.023438 112.117188 C 207.945312 112.039062 207.84375 111.988281 207.734375 111.960938 C 199.179688 107.675781 190.625 103.394531 182.070312 99.109375 Z M 338.613281 98.875 C 329.414062 101.800781 320.214844 104.726562 311.011719 107.65625 C 302.800781 110.269531 294.582031 112.882812 286.367188 115.492188 C 286.289062 115.519531 286.222656 115.554688 286.164062 115.59375 C 285.980469 115.699219 285.84375 115.882812 285.816406 116.144531 C 285.796875 116.230469 285.796875 116.316406 285.808594 116.402344 C 285.808594 127.132812 285.808594 137.859375 285.808594 148.589844 C 285.808594 149.351562 285.808594 150.113281 285.808594 150.875 C 276.492188 146.226562 267.175781 141.578125 257.855469 136.929688 C 255.996094 136 254.136719 135.070312 252.277344 134.144531 C 252.277344 123.496094 252.277344 112.851562 252.277344 102.203125 C 252.277344 101.21875 252.277344 100.230469 252.277344 99.246094 C 258.957031 97.121094 265.636719 94.996094 272.316406 92.871094 C 285.632812 88.636719 298.945312 84.402344 312.261719 80.164062 C 321.046875 77.371094 329.828125 74.578125 338.613281 71.785156 C 338.613281 80.816406 338.613281 89.84375 338.613281 98.875 Z M 356.019531 171.105469 C 356.019531 184.855469 356.019531 198.605469 356.019531 212.355469 C 356.019531 224.09375 356.019531 235.828125 356.019531 247.566406 C 356.019531 249.445312 356.019531 251.320312 356.019531 253.199219 C 354.070312 252.242188 352.125 251.28125 350.175781 250.324219 C 350.109375 250.269531 350.027344 250.226562 349.941406 250.207031 C 346.546875 248.503906 343.152344 246.796875 339.757812 245.09375 C 331.539062 240.992188 323.316406 236.894531 315.09375 232.792969 C 315.015625 232.726562 314.921875 232.675781 314.8125 232.65625 C 314.414062 232.453125 314.011719 232.253906 313.609375 232.054688 C 313.609375 223.300781 313.609375 214.546875 313.609375 205.796875 C 313.609375 193.4375 313.609375 181.078125 313.609375 168.722656 C 313.609375 167.570312 313.609375 166.417969 313.609375 165.269531 C 313.644531 165.035156 313.566406 164.800781 313.328125 164.640625 C 313.25 164.5625 313.15625 164.511719 313.046875 164.484375 C 304.472656 160.199219 295.902344 155.917969 287.332031 151.632812 C 287.332031 141.003906 287.332031 130.371094 287.332031 119.742188 C 287.332031 118.980469 287.332031 118.21875 287.332031 117.457031 C 294.15625 120.863281 300.984375 124.269531 307.808594 127.675781 C 320.027344 133.773438 332.246094 139.867188 344.460938 145.964844 C 348.3125 147.886719 352.164062 149.808594 356.015625 151.730469 C 356.019531 158.1875 356.019531 164.648438 356.019531 171.105469 Z M 225.59375 192.171875 C 225.398438 192.234375 225.199219 192.296875 225.003906 192.359375 C 217.902344 188.816406 210.800781 185.273438 203.703125 181.730469 C 191.484375 175.636719 179.265625 169.539062 167.050781 163.445312 C 163.617188 161.730469 160.183594 160.019531 156.75 158.304688 C 165.53125 155.511719 174.3125 152.71875 183.09375 149.921875 C 191.3125 147.308594 199.527344 144.695312 207.742188 142.082031 C 218.078125 138.800781 228.421875 135.515625 238.757812 132.230469 C 240.03125 131.828125 241.308594 131.421875 242.582031 131.019531 C 245.429688 132.433594 248.28125 133.851562 251.132812 135.269531 C 260.832031 140.109375 270.53125 144.949219 280.230469 149.785156 C 282.214844 150.777344 284.199219 151.769531 286.1875 152.757812 C 294.402344 156.863281 302.617188 160.96875 310.832031 165.074219 C 304.585938 167.0625 298.339844 169.046875 292.089844 171.035156 C 278.789062 175.261719 265.492188 179.488281 252.191406 183.71875 C 243.324219 186.535156 234.460938 189.355469 225.59375 192.171875 Z M 313.609375 234.558594 C 313.929688 234.449219 314.253906 234.34375 314.578125 234.234375 C 322.589844 238.230469 330.601562 242.226562 338.613281 246.21875 C 338.613281 248.703125 338.613281 251.1875 338.613281 253.667969 C 330.277344 256.332031 321.941406 258.992188 313.609375 261.65625 C 313.609375 252.621094 313.609375 243.589844 313.609375 234.558594 Z M 340.136719 246.984375 C 342.664062 248.253906 345.195312 249.523438 347.722656 250.792969 C 345.195312 251.589844 342.664062 252.386719 340.136719 253.1875 C 340.136719 251.117188 340.136719 249.050781 340.136719 246.984375 Z M 153.972656 233.757812 C 153.972656 235.808594 153.972656 237.863281 153.972656 239.914062 C 151.445312 238.660156 148.921875 237.402344 146.394531 236.148438 C 148.921875 235.351562 151.445312 234.554688 153.972656 233.757812 Z M 215.886719 292.71875 C 213.355469 293.527344 210.828125 294.339844 208.296875 295.148438 C 208.296875 293.082031 208.296875 291.015625 208.296875 288.945312 C 210.828125 290.203125 213.355469 291.460938 215.886719 292.71875 Z M 257.855469 291.726562 C 255.996094 290.796875 254.136719 289.863281 252.277344 288.933594 C 252.277344 288.78125 252.277344 288.625 252.277344 288.472656 C 262.414062 285.246094 272.554688 282.023438 282.691406 278.800781 C 283.730469 278.46875 284.769531 278.140625 285.808594 277.808594 C 285.808594 287.109375 285.808594 296.414062 285.808594 305.714844 C 276.492188 301.050781 267.175781 296.390625 257.855469 291.726562 Z M 286.367188 276.035156 C 276.042969 279.316406 265.71875 282.601562 255.390625 285.882812 C 254.03125 286.316406 252.671875 286.75 251.3125 287.183594 C 250.699219 287.378906 250.089844 287.578125 249.480469 287.777344 C 241.554688 290.300781 233.628906 292.824219 225.703125 295.347656 C 225.703125 289.078125 225.703125 282.804688 225.703125 276.535156 C 225.703125 262.777344 225.703125 249.023438 225.703125 235.265625 C 225.703125 223.523438 225.703125 211.78125 225.703125 200.035156 C 225.703125 197.9375 225.703125 195.835938 225.703125 193.734375 C 232.367188 191.617188 239.035156 189.496094 245.699219 187.378906 C 259 183.152344 272.296875 178.921875 285.597656 174.695312 C 294.429688 171.886719 303.257812 169.082031 312.085938 166.273438 C 312.085938 174.835938 312.085938 183.398438 312.085938 191.960938 C 312.085938 204.316406 312.085938 216.675781 312.085938 229.035156 C 312.085938 230.195312 312.085938 231.359375 312.085938 232.519531 C 312.085938 233.015625 312.085938 233.511719 312.085938 234.007812 C 312.085938 243.570312 312.085938 253.132812 312.085938 262.695312 C 312.085938 264.425781 312.085938 266.152344 312.085938 267.886719 C 305.859375 269.859375 299.636719 271.832031 293.410156 273.804688 C 291.0625 274.546875 288.714844 275.289062 286.367188 276.035156 Z M 418.867188 233.902344 C 407.277344 237.589844 395.6875 241.28125 384.097656 244.972656 C 383.171875 245.269531 382.242188 245.5625 381.316406 245.859375 C 373.390625 248.367188 365.464844 250.875 357.539062 253.382812 C 357.539062 247.113281 357.539062 240.84375 357.539062 234.574219 C 357.539062 220.824219 357.539062 207.074219 357.539062 193.328125 C 357.539062 181.589844 357.539062 169.851562 357.539062 158.113281 C 357.539062 156.015625 357.539062 153.914062 357.539062 151.816406 C 364.207031 149.691406 370.871094 147.570312 377.539062 145.449219 C 390.835938 141.210938 404.136719 136.976562 417.4375 132.742188 C 426.265625 129.929688 435.097656 127.117188 443.925781 124.304688 C 443.925781 130.578125 443.925781 136.847656 443.925781 143.121094 C 443.925781 156.878906 443.925781 170.632812 443.925781 184.390625 C 443.925781 196.132812 443.925781 207.875 443.925781 219.617188 C 443.925781 221.71875 443.925781 223.820312 443.925781 225.917969 C 435.574219 228.582031 427.222656 231.242188 418.867188 233.902344 Z M 370.488281 90.304688 C 371.796875 89.886719 373.105469 89.46875 374.417969 89.050781 C 381.515625 92.59375 388.617188 96.136719 395.71875 99.679688 C 407.9375 105.777344 420.152344 111.875 432.371094 117.96875 C 435.804688 119.683594 439.238281 121.394531 442.671875 123.109375 C 436.425781 125.101562 430.179688 127.089844 423.929688 129.078125 C 410.628906 133.316406 397.328125 137.550781 384.027344 141.785156 C 375.164062 144.609375 366.296875 147.433594 357.433594 150.253906 C 357.234375 150.316406 357.039062 150.378906 356.839844 150.441406 C 349.742188 146.898438 342.640625 143.355469 335.539062 139.8125 C 323.320312 133.71875 311.105469 127.621094 298.886719 121.523438 C 295.453125 119.8125 292.019531 118.097656 288.585938 116.386719 C 297.371094 113.59375 306.148438 110.796875 314.933594 108.003906 C 323.148438 105.390625 331.363281 102.777344 339.578125 100.164062 C 349.878906 96.878906 360.183594 93.589844 370.488281 90.304688 Z M 241.96875 45.1875 C 250.832031 42.363281 259.699219 39.539062 268.5625 36.71875 C 268.761719 36.65625 268.957031 36.59375 269.152344 36.53125 C 276.273438 40.085938 283.390625 43.640625 290.507812 47.191406 C 302.730469 53.296875 314.953125 59.398438 327.175781 65.503906 C 330.570312 67.199219 333.964844 68.894531 337.359375 70.585938 C 331.09375 72.582031 324.832031 74.570312 318.570312 76.5625 C 305.257812 80.796875 291.941406 85.03125 278.625 89.269531 C 269.789062 92.078125 260.957031 94.886719 252.125 97.695312 C 251.941406 97.753906 251.757812 97.8125 251.574219 97.871094 C 244.453125 94.320312 237.328125 90.773438 230.207031 87.222656 C 217.976562 81.128906 205.742188 75.035156 193.511719 68.941406 C 190.117188 67.25 186.71875 65.558594 183.324219 63.867188 C 189.570312 61.875 195.816406 59.886719 202.066406 57.898438 C 215.367188 53.660156 228.667969 49.425781 241.96875 45.1875 Z M 110.128906 87.140625 C 118.996094 84.324219 127.859375 81.503906 136.726562 78.6875 C 136.921875 78.625 137.121094 78.5625 137.316406 78.5 C 146.484375 83.070312 155.65625 87.640625 164.824219 92.210938 C 170.191406 94.886719 175.558594 97.5625 180.921875 100.238281 C 189.125 104.34375 197.324219 108.449219 205.523438 112.554688 C 199.261719 114.546875 192.996094 116.539062 186.734375 118.53125 C 173.417969 122.765625 160.101562 127 146.789062 131.238281 C 137.953125 134.046875 129.121094 136.855469 120.285156 139.664062 C 120.101562 139.722656 119.921875 139.78125 119.738281 139.839844 C 112.636719 136.296875 105.535156 132.753906 98.4375 129.210938 C 86.21875 123.113281 74.003906 117.019531 61.785156 110.921875 C 58.351562 109.207031 54.917969 107.496094 51.484375 105.785156 C 57.734375 103.796875 63.980469 101.8125 70.226562 99.824219 C 83.527344 95.597656 96.828125 91.367188 110.128906 87.140625 Z M 89.8125 228.113281 C 78.269531 222.355469 66.726562 216.59375 55.183594 210.835938 C 53.53125 210.015625 51.882812 209.191406 50.230469 208.367188 C 50.230469 201.90625 50.230469 195.441406 50.230469 188.980469 C 50.230469 175.222656 50.230469 161.46875 50.230469 147.710938 C 50.230469 135.96875 50.230469 124.226562 50.230469 112.484375 C 50.230469 110.605469 50.230469 108.730469 50.230469 106.855469 C 57.058594 110.261719 63.882812 113.667969 70.710938 117.070312 C 82.925781 123.167969 95.144531 129.261719 107.359375 135.359375 C 111.210938 137.28125 115.0625 139.203125 118.914062 141.125 C 118.914062 147.589844 118.914062 154.050781 118.914062 160.511719 C 118.914062 174.269531 118.914062 188.027344 118.914062 201.78125 C 118.914062 213.527344 118.914062 225.269531 118.914062 237.011719 C 118.914062 238.886719 118.914062 240.761719 118.914062 242.640625 C 116.96875 241.667969 115.023438 240.695312 113.078125 239.722656 C 113.007812 239.664062 112.925781 239.621094 112.832031 239.597656 C 105.160156 235.769531 97.484375 231.941406 89.8125 228.113281 Z M 75.289062 253.042969 C 86.878906 249.351562 98.46875 245.660156 110.054688 241.96875 C 110.894531 241.699219 111.734375 241.433594 112.574219 241.167969 C 114.792969 242.277344 117.011719 243.386719 119.234375 244.496094 C 119.394531 244.628906 119.613281 244.6875 119.878906 244.601562 C 128.023438 242.003906 136.164062 239.40625 144.308594 236.808594 C 147.53125 238.410156 150.75 240.011719 153.972656 241.613281 C 153.972656 248.183594 153.972656 254.753906 153.972656 261.324219 C 153.933594 261.585938 154.03125 261.855469 154.347656 262.015625 C 163.160156 266.417969 171.96875 270.820312 180.78125 275.222656 C 172.824219 277.753906 164.863281 280.285156 156.90625 282.8125 C 145.328125 286.496094 133.753906 290.175781 122.175781 293.855469 C 121.363281 294.113281 120.550781 294.371094 119.738281 294.628906 C 112.613281 291.082031 105.492188 287.53125 98.367188 283.984375 C 86.136719 277.886719 73.90625 271.792969 61.675781 265.699219 C 58.277344 264.007812 54.882812 262.316406 51.488281 260.621094 C 59.421875 258.09375 67.355469 255.566406 75.289062 253.042969 Z M 98.371094 387.195312 C 86.136719 381.097656 73.90625 375.003906 61.675781 368.910156 C 57.863281 367.007812 54.046875 365.109375 50.230469 363.207031 C 50.230469 356.746094 50.230469 350.285156 50.230469 343.824219 C 50.230469 330.066406 50.230469 316.308594 50.230469 302.554688 C 50.230469 290.808594 50.230469 279.066406 50.230469 267.324219 C 50.230469 265.449219 50.230469 263.570312 50.230469 261.695312 C 57.078125 265.105469 63.929688 268.519531 70.777344 271.929688 C 83.007812 278.027344 95.238281 284.121094 107.472656 290.214844 C 111.285156 292.117188 115.101562 294.015625 118.914062 295.917969 C 118.914062 302.378906 118.914062 308.839844 118.914062 315.304688 C 118.914062 329.058594 118.914062 342.816406 118.914062 356.570312 C 118.914062 368.316406 118.914062 380.058594 118.914062 391.800781 C 118.914062 393.675781 118.914062 395.554688 118.914062 397.429688 C 112.066406 394.019531 105.21875 390.605469 98.371094 387.195312 Z M 123.554688 396.628906 C 122.515625 396.957031 121.476562 397.289062 120.4375 397.617188 C 120.4375 391.347656 120.4375 385.074219 120.4375 378.804688 C 120.4375 365.046875 120.4375 351.292969 120.4375 337.535156 C 120.4375 325.792969 120.4375 314.050781 120.4375 302.304688 C 120.4375 300.207031 120.4375 298.105469 120.4375 296.007812 C 128.8125 293.339844 137.1875 290.679688 145.566406 288.015625 C 157.144531 284.335938 168.71875 280.65625 180.296875 276.976562 C 181.109375 276.714844 181.921875 276.457031 182.734375 276.199219 C 190.75 280.195312 198.761719 284.191406 206.777344 288.1875 C 206.777344 290.667969 206.777344 293.152344 206.777344 295.636719 C 197.578125 298.5625 188.378906 301.488281 179.175781 304.414062 C 170.960938 307.027344 162.746094 309.640625 154.53125 312.253906 C 154.453125 312.28125 154.386719 312.316406 154.328125 312.355469 C 154.140625 312.460938 154.003906 312.644531 153.980469 312.902344 C 153.960938 312.992188 153.957031 313.078125 153.972656 313.164062 C 153.972656 321.460938 153.972656 329.757812 153.972656 338.058594 C 153.972656 351.417969 153.972656 364.777344 153.972656 378.136719 C 153.972656 381.078125 153.972656 384.015625 153.972656 386.953125 C 143.832031 390.179688 133.695312 393.402344 123.554688 396.628906 Z M 203.632812 439.714844 C 191.402344 433.621094 179.167969 427.527344 166.9375 421.433594 C 163.125 419.53125 159.308594 417.632812 155.492188 415.730469 C 155.492188 406.324219 155.492188 396.917969 155.492188 387.511719 C 155.492188 379.15625 155.492188 370.800781 155.492188 362.441406 C 155.492188 349.082031 155.492188 335.722656 155.492188 322.363281 C 155.492188 319.648438 155.492188 316.933594 155.492188 314.21875 C 162.34375 317.628906 169.191406 321.042969 176.039062 324.453125 C 188.273438 330.546875 200.503906 336.644531 212.734375 342.738281 C 216.550781 344.636719 220.367188 346.539062 224.179688 348.4375 C 224.179688 354.902344 224.179688 361.363281 224.179688 367.828125 C 224.179688 381.582031 224.179688 395.339844 224.179688 409.09375 C 224.179688 420.835938 224.179688 432.578125 224.179688 444.320312 C 224.179688 446.199219 224.179688 448.074219 224.179688 449.953125 C 217.332031 446.539062 210.480469 443.128906 203.632812 439.714844 Z M 252.1875 441.71875 C 243.359375 444.527344 234.53125 447.332031 225.703125 450.140625 C 225.703125 443.867188 225.703125 437.597656 225.703125 431.324219 C 225.703125 417.570312 225.703125 403.8125 225.703125 390.058594 C 225.703125 378.316406 225.703125 366.574219 225.703125 354.828125 C 225.703125 352.730469 225.703125 350.628906 225.703125 348.527344 C 232.367188 346.410156 239.03125 344.289062 245.699219 342.171875 C 259 337.941406 272.296875 333.714844 285.597656 329.484375 C 294.425781 326.679688 303.257812 323.871094 312.085938 321.066406 C 312.085938 329.625 312.085938 338.1875 312.085938 346.753906 C 312.085938 359.109375 312.085938 371.46875 312.085938 383.824219 C 312.085938 384.976562 312.085938 386.128906 312.085938 387.277344 C 312.074219 387.347656 312.074219 387.417969 312.085938 387.484375 C 312.085938 398.226562 312.085938 408.972656 312.085938 419.71875 C 312.085938 420.707031 312.085938 421.691406 312.085938 422.679688 C 305.421875 424.800781 298.753906 426.917969 292.089844 429.035156 C 278.789062 433.265625 265.488281 437.492188 252.1875 441.71875 Z M 329.332031 394.699219 C 324.089844 392.082031 318.851562 389.460938 313.609375 386.84375 C 313.609375 378.089844 313.609375 369.335938 313.609375 360.585938 C 313.609375 348.226562 313.609375 335.871094 313.609375 323.511719 C 313.609375 322.363281 313.609375 321.210938 313.609375 320.0625 C 313.644531 319.828125 313.566406 319.589844 313.328125 319.429688 C 313.25 319.355469 313.152344 319.300781 313.046875 319.273438 C 304.472656 315.007812 295.902344 310.742188 287.332031 306.476562 C 287.332031 296.757812 287.332031 287.042969 287.332031 277.328125 C 289.40625 276.671875 291.476562 276.015625 293.550781 275.359375 C 301.179688 279.164062 308.808594 282.972656 316.4375 286.777344 C 327.980469 292.535156 339.523438 298.292969 351.070312 304.054688 C 352.71875 304.878906 354.367188 305.699219 356.019531 306.523438 C 356.019531 312.984375 356.019531 319.445312 356.019531 325.910156 C 356.019531 339.664062 356.019531 353.421875 356.019531 367.179688 C 356.019531 378.921875 356.019531 390.664062 356.019531 402.40625 C 356.019531 404.28125 356.019531 406.160156 356.019531 408.035156 C 347.121094 403.589844 338.226562 399.144531 329.332031 394.699219 Z M 384.027344 399.785156 C 375.199219 402.597656 366.371094 405.410156 357.539062 408.222656 C 357.539062 401.949219 357.539062 395.679688 357.539062 389.40625 C 357.539062 375.652344 357.539062 361.894531 357.539062 348.140625 C 357.539062 336.398438 357.539062 324.65625 357.539062 312.910156 C 357.539062 310.8125 357.539062 308.710938 357.539062 306.609375 C 364.207031 304.492188 370.871094 302.371094 377.539062 300.253906 C 390.835938 296.023438 404.136719 291.796875 417.4375 287.566406 C 426.265625 284.761719 435.097656 281.953125 443.925781 279.148438 C 443.925781 285.414062 443.925781 291.683594 443.925781 297.953125 C 443.925781 311.703125 443.925781 325.449219 443.925781 339.203125 C 443.925781 350.9375 443.925781 362.675781 443.925781 374.414062 C 443.925781 376.511719 443.925781 378.613281 443.925781 380.710938 C 437.261719 382.832031 430.59375 384.957031 423.929688 387.078125 C 410.628906 391.316406 397.328125 395.550781 384.027344 399.785156 Z M 384.027344 399.785156 " fill-opacity="1" fill-rule="nonzero"/></g></svg>