<svg xmlns="http://www.w3.org/2000/svg" xmlns:xlink="http://www.w3.org/1999/xlink" width="300" zoomAndPan="magnify" viewBox="0 0 224.87999 233.04" height="300" preserveAspectRatio="xMidYMid meet" version="1.0"><defs><g/><clipPath id="8559209836"><path d="M 48.722656 32.394531 L 176.449219 32.394531 L 176.449219 191.488281 L 48.722656 191.488281 Z M 48.722656 32.394531 " clip-rule="nonzero"/></clipPath><clipPath id="14a61b0a47"><path d="M 135 60 L 176.449219 60 L 176.449219 104 L 135 104 Z M 135 60 " clip-rule="nonzero"/></clipPath><clipPath id="27545a1c0c"><path d="M 128 32.394531 L 176.449219 32.394531 L 176.449219 81 L 128 81 Z M 128 32.394531 " clip-rule="nonzero"/></clipPath></defs><g clip-path="url(#8559209836)"><path fill="#de3b38" d="M 64.691406 32.398438 L 128.550781 32.398438 L 176.449219 80.125 L 176.449219 175.578125 C 176.449219 176.097656 176.421875 176.617188 176.371094 177.136719 C 176.320312 177.65625 176.242188 178.167969 176.140625 178.679688 C 176.039062 179.191406 175.914062 179.695312 175.761719 180.195312 C 175.609375 180.691406 175.433594 181.183594 175.234375 181.664062 C 175.03125 182.144531 174.808594 182.617188 174.5625 183.074219 C 174.316406 183.535156 174.046875 183.980469 173.757812 184.414062 C 173.46875 184.847656 173.15625 185.265625 172.824219 185.667969 C 172.492188 186.070312 172.140625 186.457031 171.773438 186.824219 C 171.402344 187.195312 171.015625 187.542969 170.609375 187.875 C 170.207031 188.203125 169.789062 188.515625 169.351562 188.804688 C 168.917969 189.09375 168.46875 189.359375 168.007812 189.605469 C 167.546875 189.851562 167.074219 190.074219 166.59375 190.273438 C 166.109375 190.472656 165.617188 190.648438 165.117188 190.800781 C 164.617188 190.953125 164.109375 191.078125 163.597656 191.179688 C 163.085938 191.28125 162.566406 191.359375 162.046875 191.410156 C 161.527344 191.460938 161.003906 191.484375 160.484375 191.484375 L 64.691406 191.484375 C 64.167969 191.484375 63.644531 191.460938 63.125 191.410156 C 62.605469 191.359375 62.085938 191.28125 61.574219 191.179688 C 61.0625 191.078125 60.554688 190.953125 60.054688 190.800781 C 59.554688 190.648438 59.0625 190.472656 58.578125 190.273438 C 58.097656 190.074219 57.625 189.851562 57.164062 189.605469 C 56.703125 189.359375 56.253906 189.09375 55.820312 188.804688 C 55.386719 188.515625 54.964844 188.203125 54.5625 187.875 C 54.15625 187.542969 53.769531 187.195312 53.398438 186.824219 C 53.03125 186.457031 52.679688 186.070312 52.347656 185.667969 C 52.015625 185.265625 51.707031 184.847656 51.414062 184.414062 C 51.125 183.980469 50.855469 183.535156 50.609375 183.074219 C 50.363281 182.617188 50.140625 182.144531 49.941406 181.664062 C 49.738281 181.183594 49.5625 180.691406 49.410156 180.195312 C 49.261719 179.695312 49.132812 179.191406 49.03125 178.679688 C 48.929688 178.167969 48.851562 177.65625 48.800781 177.136719 C 48.75 176.617188 48.722656 176.097656 48.722656 175.578125 L 48.722656 48.304688 C 48.722656 47.785156 48.75 47.265625 48.800781 46.746094 C 48.851562 46.226562 48.929688 45.710938 49.03125 45.203125 C 49.132812 44.691406 49.261719 44.1875 49.410156 43.6875 C 49.5625 43.1875 49.738281 42.699219 49.941406 42.21875 C 50.140625 41.734375 50.363281 41.265625 50.609375 40.804688 C 50.855469 40.347656 51.125 39.898438 51.414062 39.46875 C 51.707031 39.035156 52.015625 38.617188 52.347656 38.214844 C 52.679688 37.808594 53.03125 37.425781 53.398438 37.054688 C 53.769531 36.6875 54.15625 36.339844 54.5625 36.007812 C 54.964844 35.675781 55.386719 35.367188 55.820312 35.078125 C 56.253906 34.789062 56.703125 34.519531 57.164062 34.273438 C 57.625 34.03125 58.097656 33.808594 58.578125 33.609375 C 59.0625 33.410156 59.554688 33.234375 60.054688 33.082031 C 60.554688 32.929688 61.0625 32.804688 61.574219 32.703125 C 62.085938 32.601562 62.605469 32.523438 63.125 32.472656 C 63.644531 32.421875 64.167969 32.398438 64.691406 32.398438 Z M 64.691406 32.398438 " fill-opacity="1" fill-rule="nonzero"/></g><g fill="#ffffff" fill-opacity="1"><g transform="translate(64.68968, 147.497385)"><g><path d="M 30.3125 -22.4375 C 30.3125 -20.320312 29.828125 -18.429688 28.859375 -16.765625 C 27.890625 -15.109375 26.503906 -13.828125 24.703125 -12.921875 C 22.898438 -12.015625 20.757812 -11.5625 18.28125 -11.5625 L 10.109375 -11.5625 L 10.109375 0 L 3.203125 0 L 3.203125 -32.828125 L 18 -32.828125 C 21.945312 -32.828125 24.984375 -31.921875 27.109375 -30.109375 C 29.242188 -28.304688 30.3125 -25.75 30.3125 -22.4375 Z M 23.359375 -22.328125 C 23.359375 -25.773438 21.316406 -27.5 17.234375 -27.5 L 10.109375 -27.5 L 10.109375 -16.84375 L 17.421875 -16.84375 C 19.328125 -16.84375 20.789062 -17.3125 21.8125 -18.25 C 22.84375 -19.195312 23.359375 -20.554688 23.359375 -22.328125 Z M 23.359375 -22.328125 "/></g></g></g><g fill="#ffffff" fill-opacity="1"><g transform="translate(96.63428, 147.497385)"><g><path d="M 32.578125 -16.65625 C 32.578125 -13.269531 31.910156 -10.3125 30.578125 -7.78125 C 29.242188 -5.257812 27.351562 -3.332031 24.90625 -2 C 22.46875 -0.664062 19.675781 0 16.53125 0 L 3.203125 0 L 3.203125 -32.828125 L 15.125 -32.828125 C 20.675781 -32.828125 24.972656 -31.429688 28.015625 -28.640625 C 31.054688 -25.859375 32.578125 -21.863281 32.578125 -16.65625 Z M 25.625 -16.65625 C 25.625 -20.1875 24.703125 -22.878906 22.859375 -24.734375 C 21.023438 -26.585938 18.398438 -27.515625 14.984375 -27.515625 L 10.109375 -27.515625 L 10.109375 -5.3125 L 15.953125 -5.3125 C 18.910156 -5.3125 21.257812 -6.328125 23 -8.359375 C 24.75 -10.398438 25.625 -13.164062 25.625 -16.65625 Z M 25.625 -16.65625 "/></g></g></g><g fill="#ffffff" fill-opacity="1"><g transform="translate(131.221443, 147.497385)"><g><path d="M 10.109375 -27.515625 L 10.109375 -17.359375 L 26.96875 -17.359375 L 26.96875 -12.046875 L 10.109375 -12.046875 L 10.109375 0 L 3.203125 0 L 3.203125 -32.828125 L 27.5 -32.828125 L 27.5 -27.515625 Z M 10.109375 -27.515625 "/></g></g></g><g clip-path="url(#14a61b0a47)"><path fill="#d13532" d="M 176.449219 103.667969 L 135.097656 77.101562 L 155.773438 60.476562 L 176.449219 80.125 Z M 176.449219 103.667969 " fill-opacity="1" fill-rule="nonzero"/></g><g clip-path="url(#27545a1c0c)"><path fill="#d56c6f" d="M 128.550781 32.398438 L 128.550781 64.214844 C 128.550781 64.734375 128.578125 65.253906 128.628906 65.773438 C 128.679688 66.292969 128.757812 66.808594 128.859375 67.316406 C 128.960938 67.828125 129.085938 68.332031 129.238281 68.832031 C 129.390625 69.332031 129.566406 69.820312 129.765625 70.300781 C 129.96875 70.785156 130.191406 71.253906 130.4375 71.714844 C 130.683594 72.171875 130.953125 72.621094 131.242188 73.054688 C 131.53125 73.484375 131.84375 73.902344 132.175781 74.308594 C 132.507812 74.710938 132.859375 75.09375 133.226562 75.464844 C 133.597656 75.832031 133.984375 76.179688 134.390625 76.511719 C 134.792969 76.84375 135.210938 77.152344 135.648438 77.441406 C 136.082031 77.730469 136.53125 78 136.992188 78.246094 C 137.453125 78.492188 137.925781 78.714844 138.40625 78.914062 C 138.890625 79.113281 139.382812 79.285156 139.882812 79.4375 C 140.382812 79.589844 140.890625 79.714844 141.402344 79.816406 C 141.914062 79.917969 142.433594 79.996094 142.953125 80.046875 C 143.472656 80.097656 143.996094 80.125 144.515625 80.125 L 176.449219 80.125 Z M 128.550781 32.398438 " fill-opacity="1" fill-rule="nonzero"/></g></svg>