<svg xmlns="http://www.w3.org/2000/svg" xmlns:xlink="http://www.w3.org/1999/xlink" width="300" zoomAndPan="magnify" viewBox="0 0 224.87999 233.04" height="300" preserveAspectRatio="xMidYMid meet" version="1.0"><defs><clipPath id="b2d0c83ea9"><path d="M 34.078125 15.59375 L 190.933594 15.59375 L 190.933594 208.300781 L 34.078125 208.300781 Z M 34.078125 15.59375 " clip-rule="nonzero"/></clipPath><clipPath id="c5c2b6e9dc"><path d="M 34.078125 16 L 79 16 L 79 68 L 34.078125 68 Z M 34.078125 16 " clip-rule="nonzero"/></clipPath></defs><g clip-path="url(#b2d0c83ea9)"><path fill="#dfe8f4" d="M 168.128906 15.59375 C 168.847656 15.59375 169.5625 15.628906 170.277344 15.699219 C 170.992188 15.769531 171.703125 15.875 172.40625 16.015625 C 173.109375 16.15625 173.804688 16.328125 174.492188 16.535156 C 175.179688 16.746094 175.855469 16.984375 176.519531 17.261719 C 177.179688 17.535156 177.828125 17.839844 178.460938 18.179688 C 179.097656 18.515625 179.710938 18.882812 180.308594 19.28125 C 180.90625 19.679688 181.480469 20.105469 182.035156 20.5625 C 182.589844 21.015625 183.121094 21.496094 183.628906 22.003906 C 184.136719 22.511719 184.617188 23.039062 185.074219 23.59375 C 185.53125 24.148438 185.957031 24.722656 186.355469 25.320312 C 186.753906 25.914062 187.121094 26.527344 187.460938 27.160156 C 187.800781 27.792969 188.105469 28.441406 188.382812 29.101562 C 188.65625 29.765625 188.898438 30.4375 189.105469 31.125 C 189.3125 31.808594 189.488281 32.503906 189.628906 33.207031 C 189.769531 33.910156 189.875 34.617188 189.945312 35.332031 C 190.015625 36.042969 190.050781 36.757812 190.050781 37.476562 L 190.050781 186.421875 C 190.050781 187.136719 190.015625 187.851562 189.945312 188.566406 C 189.875 189.277344 189.769531 189.988281 189.628906 190.6875 C 189.488281 191.390625 189.3125 192.085938 189.105469 192.773438 C 188.898438 193.457031 188.65625 194.132812 188.382812 194.792969 C 188.105469 195.457031 187.800781 196.101562 187.460938 196.734375 C 187.121094 197.367188 186.753906 197.980469 186.355469 198.578125 C 185.957031 199.171875 185.53125 199.746094 185.074219 200.300781 C 184.617188 200.855469 184.136719 201.386719 183.628906 201.890625 C 183.121094 202.398438 182.589844 202.878906 182.035156 203.335938 C 181.480469 203.789062 180.90625 204.214844 180.308594 204.613281 C 179.710938 205.011719 179.097656 205.378906 178.460938 205.71875 C 177.828125 206.054688 177.179688 206.359375 176.519531 206.636719 C 175.855469 206.910156 175.179688 207.152344 174.492188 207.359375 C 173.804688 207.566406 173.109375 207.742188 172.40625 207.878906 C 171.703125 208.019531 170.992188 208.125 170.277344 208.195312 C 169.5625 208.265625 168.847656 208.300781 168.128906 208.300781 L 56.480469 208.300781 C 55.761719 208.300781 55.046875 208.265625 54.332031 208.195312 C 53.617188 208.125 52.910156 208.019531 52.203125 207.878906 C 51.5 207.742188 50.804688 207.566406 50.117188 207.359375 C 49.429688 207.152344 48.753906 206.910156 48.09375 206.636719 C 47.429688 206.359375 46.78125 206.054688 46.148438 205.71875 C 45.515625 205.378906 44.898438 205.011719 44.300781 204.613281 C 43.707031 204.214844 43.128906 203.789062 42.574219 203.335938 C 42.019531 202.878906 41.488281 202.398438 40.980469 201.890625 C 40.472656 201.386719 39.992188 200.855469 39.535156 200.300781 C 39.082031 199.746094 38.652344 199.171875 38.253906 198.578125 C 37.855469 197.980469 37.488281 197.367188 37.148438 196.734375 C 36.8125 196.101562 36.503906 195.457031 36.230469 194.792969 C 35.953125 194.132812 35.714844 193.457031 35.503906 192.773438 C 35.296875 192.085938 35.121094 191.390625 34.980469 190.6875 C 34.84375 189.988281 34.738281 189.277344 34.667969 188.566406 C 34.597656 187.851562 34.5625 187.136719 34.5625 186.421875 L 34.5625 63.328125 C 34.558594 62.019531 34.808594 60.757812 35.308594 59.546875 C 35.8125 58.335938 36.527344 57.269531 37.457031 56.34375 L 75.382812 18.484375 C 76.3125 17.558594 77.378906 16.84375 78.59375 16.34375 C 79.804688 15.839844 81.070312 15.59375 82.382812 15.59375 Z M 168.128906 15.59375 " fill-opacity="1" fill-rule="nonzero"/></g><g clip-path="url(#c5c2b6e9dc)"><path fill="#ccd8e5" d="M 75.382812 18.484375 C 76.226562 17.648438 77.191406 16.992188 78.28125 16.519531 L 78.28125 38.4375 C 78.28125 39.378906 78.234375 40.320312 78.140625 41.257812 C 78.046875 42.191406 77.910156 43.121094 77.726562 44.046875 C 77.542969 44.96875 77.3125 45.882812 77.039062 46.78125 C 76.765625 47.683594 76.449219 48.570312 76.085938 49.4375 C 75.726562 50.308594 75.324219 51.160156 74.878906 51.988281 C 74.433594 52.820312 73.949219 53.625 73.425781 54.410156 C 72.902344 55.191406 72.339844 55.945312 71.742188 56.675781 C 71.144531 57.402344 70.511719 58.097656 69.84375 58.765625 C 69.179688 59.429688 68.480469 60.0625 67.75 60.660156 C 67.023438 61.257812 66.265625 61.816406 65.480469 62.339844 C 64.695312 62.863281 63.890625 63.347656 63.058594 63.789062 C 62.226562 64.234375 61.375 64.636719 60.503906 64.996094 C 59.632812 65.355469 58.746094 65.671875 57.839844 65.945312 C 56.9375 66.21875 56.027344 66.449219 55.101562 66.632812 C 54.175781 66.816406 53.242188 66.953125 52.304688 67.046875 C 51.367188 67.136719 50.425781 67.183594 49.480469 67.183594 L 34.5625 67.183594 L 34.5625 63.167969 C 34.558594 61.859375 34.808594 60.597656 35.308594 59.386719 C 35.8125 58.175781 36.527344 57.109375 37.457031 56.183594 Z M 75.382812 18.484375 " fill-opacity="1" fill-rule="nonzero"/></g><path fill="#0795ff" d="M 35.484375 59.234375 C 35.960938 58.148438 36.617188 57.183594 37.457031 56.34375 L 75.382812 18.484375 C 76.226562 17.648438 77.191406 16.992188 78.28125 16.519531 L 78.28125 37.355469 C 78.28125 38.070312 78.246094 38.785156 78.175781 39.5 C 78.105469 40.210938 78 40.921875 77.859375 41.621094 C 77.71875 42.324219 77.542969 43.019531 77.335938 43.707031 C 77.128906 44.390625 76.886719 45.066406 76.609375 45.726562 C 76.335938 46.390625 76.03125 47.035156 75.691406 47.667969 C 75.351562 48.300781 74.984375 48.914062 74.585938 49.511719 C 74.1875 50.105469 73.757812 50.679688 73.304688 51.234375 C 72.847656 51.789062 72.367188 52.320312 71.859375 52.824219 C 71.351562 53.332031 70.820312 53.8125 70.265625 54.269531 C 69.710938 54.722656 69.132812 55.148438 68.539062 55.546875 C 67.941406 55.945312 67.324219 56.3125 66.691406 56.652344 C 66.058594 56.988281 65.410156 57.292969 64.75 57.570312 C 64.085938 57.84375 63.410156 58.085938 62.722656 58.292969 C 62.035156 58.5 61.339844 58.675781 60.636719 58.8125 C 59.933594 58.953125 59.222656 59.058594 58.507812 59.128906 C 57.792969 59.199219 57.078125 59.234375 56.359375 59.234375 Z M 35.484375 59.234375 " fill-opacity="1" fill-rule="nonzero"/><path fill="#0795ff" d="M 92.878906 115.960938 C 92.964844 117.34375 92.765625 118.683594 92.273438 119.980469 C 91.78125 121.273438 91.046875 122.410156 90.0625 123.390625 C 88.9375 124.316406 87.679688 125.003906 86.289062 125.457031 C 84.902344 125.90625 83.476562 126.089844 82.019531 126 L 79.847656 126 L 79.847656 135.515625 L 72.085938 135.515625 L 72.085938 106.648438 L 82.019531 106.648438 C 83.460938 106.550781 84.871094 106.707031 86.253906 107.113281 C 87.636719 107.519531 88.90625 108.15625 90.0625 109.015625 C 91.058594 109.886719 91.804688 110.933594 92.300781 112.15625 C 92.796875 113.378906 92.988281 114.648438 92.878906 115.960938 Z M 79.808594 119.695312 L 81.214844 119.695312 C 82.285156 119.757812 83.210938 119.421875 83.992188 118.691406 C 84.351562 118.339844 84.621094 117.929688 84.804688 117.460938 C 84.988281 116.992188 85.0625 116.503906 85.035156 116.003906 C 85.035156 114.074219 83.949219 113.113281 81.820312 113.113281 L 79.808594 113.113281 Z M 79.808594 119.695312 " fill-opacity="1" fill-rule="nonzero"/><path fill="#0795ff" d="M 123.808594 135.3125 L 113.632812 135.3125 L 103.136719 115.238281 C 103.375 118.410156 103.496094 120.820312 103.496094 122.507812 L 103.496094 135.433594 L 96.457031 135.433594 L 96.457031 106.648438 L 106.59375 106.648438 L 117.050781 126.722656 C 116.851562 123.832031 116.769531 121.503906 116.769531 119.777344 L 116.769531 106.648438 L 123.6875 106.648438 Z M 123.808594 135.3125 " fill-opacity="1" fill-rule="nonzero"/><path fill="#0795ff" d="M 140.457031 118.53125 L 152.925781 118.53125 L 152.925781 133.988281 C 149.320312 135.167969 145.621094 135.742188 141.828125 135.714844 C 139.90625 135.8125 138.054688 135.507812 136.265625 134.808594 C 134.476562 134.109375 132.914062 133.074219 131.570312 131.699219 C 130.277344 130.175781 129.320312 128.464844 128.695312 126.570312 C 128.066406 124.675781 127.820312 122.730469 127.949219 120.738281 C 127.835938 118.738281 128.125 116.796875 128.828125 114.917969 C 129.527344 113.039062 130.574219 111.378906 131.972656 109.941406 C 133.484375 108.554688 135.207031 107.511719 137.140625 106.816406 C 139.070312 106.117188 141.0625 105.824219 143.113281 105.925781 C 144.832031 105.917969 146.535156 106.078125 148.222656 106.40625 C 149.707031 106.773438 151.140625 107.285156 152.523438 107.933594 L 150.070312 113.996094 C 147.925781 112.957031 145.660156 112.449219 143.273438 112.46875 C 142.273438 112.40625 141.308594 112.570312 140.378906 112.957031 C 139.453125 113.347656 138.664062 113.917969 138.003906 114.679688 C 137.328125 115.582031 136.832031 116.578125 136.511719 117.664062 C 136.195312 118.746094 136.074219 119.855469 136.15625 120.980469 C 136.011719 123.203125 136.558594 125.234375 137.804688 127.082031 C 138.398438 127.804688 139.125 128.351562 139.984375 128.726562 C 140.839844 129.101562 141.738281 129.265625 142.671875 129.210938 C 143.742188 129.214844 144.800781 129.105469 145.847656 128.890625 L 145.847656 124.515625 L 140.457031 124.515625 Z M 140.457031 118.53125 " fill-opacity="1" fill-rule="nonzero"/></svg>