<svg xmlns="http://www.w3.org/2000/svg" xmlns:xlink="http://www.w3.org/1999/xlink" width="300" zoomAndPan="magnify" viewBox="0 0 224.87999 233.04" height="300" preserveAspectRatio="xMidYMid meet" version="1.0"><defs><g/><clipPath id="6395276e7f"><path d="M 32.511719 12.128906 L 192.355469 12.128906 L 192.355469 212.304688 L 32.511719 212.304688 Z M 32.511719 12.128906 " clip-rule="nonzero"/></clipPath><clipPath id="31e8da968d"><path d="M 140 47 L 192.355469 47 L 192.355469 102 L 140 102 Z M 140 47 " clip-rule="nonzero"/></clipPath><clipPath id="8a39764217"><path d="M 132 12.128906 L 192.355469 12.128906 L 192.355469 73 L 132 73 Z M 132 12.128906 " clip-rule="nonzero"/></clipPath></defs><g clip-path="url(#6395276e7f)"><path fill="#c1282f" d="M 52.496094 12.128906 L 132.414062 12.128906 L 162.382812 42.15625 L 192.355469 72.183594 L 192.355469 192.289062 C 192.355469 192.945312 192.320312 193.597656 192.257812 194.25 C 192.191406 194.902344 192.097656 195.550781 191.96875 196.191406 C 191.84375 196.835938 191.683594 197.472656 191.492188 198.097656 C 191.304688 198.726562 191.082031 199.34375 190.832031 199.949219 C 190.582031 200.554688 190.304688 201.144531 189.996094 201.722656 C 189.6875 202.300781 189.351562 202.863281 188.988281 203.410156 C 188.621094 203.953125 188.234375 204.480469 187.820312 204.988281 C 187.402344 205.492188 186.964844 205.980469 186.5 206.441406 C 186.039062 206.90625 185.554688 207.347656 185.050781 207.761719 C 184.542969 208.175781 184.019531 208.566406 183.472656 208.933594 C 182.929688 209.296875 182.371094 209.632812 181.792969 209.941406 C 181.214844 210.25 180.625 210.53125 180.019531 210.78125 C 179.414062 211.03125 178.800781 211.253906 178.171875 211.445312 C 177.546875 211.632812 176.914062 211.792969 176.273438 211.921875 C 175.628906 212.046875 174.984375 212.144531 174.332031 212.210938 C 173.679688 212.273438 173.027344 212.304688 172.375 212.304688 L 52.496094 212.304688 C 51.839844 212.304688 51.1875 212.273438 50.535156 212.210938 C 49.882812 212.144531 49.238281 212.046875 48.597656 211.921875 C 47.953125 211.792969 47.320312 211.632812 46.695312 211.445312 C 46.066406 211.253906 45.453125 211.03125 44.847656 210.78125 C 44.242188 210.53125 43.652344 210.25 43.074219 209.941406 C 42.5 209.632812 41.9375 209.296875 41.394531 208.933594 C 40.851562 208.566406 40.324219 208.175781 39.820312 207.761719 C 39.3125 207.347656 38.828125 206.90625 38.367188 206.441406 C 37.902344 205.980469 37.464844 205.492188 37.050781 204.988281 C 36.632812 204.480469 36.246094 203.953125 35.882812 203.410156 C 35.519531 202.863281 35.183594 202.300781 34.875 201.722656 C 34.566406 201.144531 34.285156 200.554688 34.035156 199.949219 C 33.785156 199.34375 33.566406 198.726562 33.375 198.097656 C 33.183594 197.472656 33.027344 196.835938 32.898438 196.191406 C 32.769531 195.550781 32.675781 194.902344 32.609375 194.25 C 32.546875 193.597656 32.515625 192.945312 32.515625 192.289062 L 32.515625 32.148438 C 32.515625 31.492188 32.546875 30.839844 32.609375 30.1875 C 32.675781 29.53125 32.769531 28.886719 32.898438 28.242188 C 33.027344 27.597656 33.183594 26.964844 33.375 26.335938 C 33.566406 25.710938 33.785156 25.09375 34.035156 24.488281 C 34.285156 23.882812 34.566406 23.289062 34.875 22.710938 C 35.183594 22.132812 35.519531 21.570312 35.882812 21.027344 C 36.246094 20.480469 36.632812 19.957031 37.050781 19.449219 C 37.464844 18.941406 37.902344 18.457031 38.367188 17.992188 C 38.828125 17.53125 39.3125 17.089844 39.820312 16.675781 C 40.324219 16.257812 40.851562 15.867188 41.394531 15.503906 C 41.9375 15.140625 42.5 14.804688 43.074219 14.492188 C 43.652344 14.183594 44.242188 13.90625 44.847656 13.652344 C 45.453125 13.402344 46.066406 13.183594 46.695312 12.992188 C 47.320312 12.800781 47.953125 12.644531 48.597656 12.515625 C 49.238281 12.386719 49.882812 12.289062 50.535156 12.226562 C 51.1875 12.164062 51.839844 12.128906 52.496094 12.128906 Z M 52.496094 12.128906 " fill-opacity="1" fill-rule="nonzero"/></g><g fill="#ffffff" fill-opacity="1"><g transform="translate(54.192634, 156.956946)"><g><path d="M 37.921875 -28.234375 C 37.921875 -25.578125 37.316406 -23.203125 36.109375 -21.109375 C 34.898438 -19.015625 33.171875 -17.394531 30.921875 -16.25 C 28.671875 -15.113281 25.992188 -14.546875 22.890625 -14.546875 L 12.640625 -14.546875 L 12.640625 0 L 4.015625 0 L 4.015625 -41.3125 L 22.53125 -41.3125 C 27.46875 -41.3125 31.265625 -40.171875 33.921875 -37.890625 C 36.585938 -35.617188 37.921875 -32.398438 37.921875 -28.234375 Z M 29.234375 -28.09375 C 29.234375 -32.425781 26.675781 -34.59375 21.5625 -34.59375 L 12.640625 -34.59375 L 12.640625 -21.203125 L 21.796875 -21.203125 C 24.179688 -21.203125 26.015625 -21.789062 27.296875 -22.96875 C 28.585938 -24.15625 29.234375 -25.863281 29.234375 -28.09375 Z M 29.234375 -28.09375 "/></g></g><g transform="translate(94.16961, 156.956946)"><g><path d="M 37.921875 -28.234375 C 37.921875 -25.578125 37.316406 -23.203125 36.109375 -21.109375 C 34.898438 -19.015625 33.171875 -17.394531 30.921875 -16.25 C 28.671875 -15.113281 25.992188 -14.546875 22.890625 -14.546875 L 12.640625 -14.546875 L 12.640625 0 L 4.015625 0 L 4.015625 -41.3125 L 22.53125 -41.3125 C 27.46875 -41.3125 31.265625 -40.171875 33.921875 -37.890625 C 36.585938 -35.617188 37.921875 -32.398438 37.921875 -28.234375 Z M 29.234375 -28.09375 C 29.234375 -32.425781 26.675781 -34.59375 21.5625 -34.59375 L 12.640625 -34.59375 L 12.640625 -21.203125 L 21.796875 -21.203125 C 24.179688 -21.203125 26.015625 -21.789062 27.296875 -22.96875 C 28.585938 -24.15625 29.234375 -25.863281 29.234375 -28.09375 Z M 29.234375 -28.09375 "/></g></g><g transform="translate(134.146585, 156.956946)"><g><path d="M 22.625 -34.625 L 22.625 0 L 13.984375 0 L 13.984375 -34.625 L 0.671875 -34.625 L 0.671875 -41.3125 L 35.96875 -41.3125 L 35.96875 -34.625 Z M 22.625 -34.625 "/></g></g></g><g clip-path="url(#31e8da968d)"><path fill="#b3242a" d="M 192.355469 101.808594 L 140.605469 68.378906 L 166.480469 47.460938 L 192.355469 72.183594 Z M 192.355469 101.808594 " fill-opacity="1" fill-rule="nonzero"/></g><g clip-path="url(#8a39764217)"><path fill="#de3b38" d="M 132.414062 12.128906 L 132.414062 52.164062 C 132.414062 52.820312 132.445312 53.476562 132.511719 54.128906 C 132.574219 54.78125 132.671875 55.425781 132.796875 56.070312 C 132.925781 56.714844 133.085938 57.347656 133.273438 57.976562 C 133.464844 58.601562 133.683594 59.21875 133.933594 59.824219 C 134.183594 60.429688 134.464844 61.023438 134.773438 61.601562 C 135.082031 62.179688 135.417969 62.742188 135.78125 63.285156 C 136.144531 63.832031 136.535156 64.355469 136.949219 64.863281 C 137.363281 65.371094 137.804688 65.855469 138.265625 66.320312 C 138.730469 66.785156 139.210938 67.222656 139.71875 67.640625 C 140.222656 68.054688 140.75 68.445312 141.292969 68.808594 C 141.835938 69.171875 142.398438 69.511719 142.976562 69.820312 C 143.550781 70.128906 144.144531 70.40625 144.746094 70.660156 C 145.351562 70.910156 145.96875 71.128906 146.59375 71.320312 C 147.21875 71.511719 147.855469 71.671875 148.496094 71.796875 C 149.136719 71.925781 149.785156 72.023438 150.433594 72.085938 C 151.085938 72.152344 151.738281 72.183594 152.394531 72.183594 L 192.355469 72.183594 Z M 132.414062 12.128906 " fill-opacity="1" fill-rule="nonzero"/></g></svg>