<svg xmlns="http://www.w3.org/2000/svg" xmlns:xlink="http://www.w3.org/1999/xlink" width="600" zoomAndPan="magnify" viewBox="0 0 450 299.999988" height="400" preserveAspectRatio="xMidYMid meet" version="1.0"><defs><clipPath id="4403e6d2ce"><path d="M 109.785156 58.417969 L 340.035156 58.417969 L 340.035156 113 L 109.785156 113 Z M 109.785156 58.417969 " clip-rule="nonzero"/></clipPath><clipPath id="e47002b258"><path d="M 109.789062 90.390625 L 340.035156 90.390625 L 340.035156 249.667969 L 109.789062 249.667969 Z M 109.789062 90.390625 " clip-rule="nonzero"/></clipPath></defs><g clip-path="url(#4403e6d2ce)"><path fill="#b4b4b4" d="M 109.789062 112.761719 L 109.789062 79.15625 C 109.789062 67.703125 119.070312 58.421875 130.523438 58.421875 L 175.066406 58.421875 C 179.457031 58.421875 183.734375 59.8125 187.28125 62.398438 L 206.675781 76.535156 L 319.476562 76.535156 C 330.925781 76.535156 340.210938 85.816406 340.210938 97.269531 L 340.210938 112.761719 L 109.789062 112.761719 " fill-opacity="1" fill-rule="nonzero"/></g><g clip-path="url(#e47002b258)"><path fill="#f3f2f1" d="M 319.476562 90.4375 L 130.523438 90.4375 C 119.070312 90.4375 109.789062 99.71875 109.789062 111.171875 L 109.789062 228.933594 C 109.789062 240.382812 119.070312 249.667969 130.523438 249.667969 L 319.476562 249.667969 C 330.925781 249.667969 340.210938 240.382812 340.210938 228.933594 L 340.210938 111.171875 C 340.210938 99.71875 330.925781 90.4375 319.476562 90.4375 " fill-opacity="1" fill-rule="nonzero"/></g></svg>