<svg xmlns="http://www.w3.org/2000/svg" xmlns:xlink="http://www.w3.org/1999/xlink" width="300" zoomAndPan="magnify" viewBox="0 0 224.87999 233.04" height="300" preserveAspectRatio="xMidYMid meet" version="1.0"><defs><clipPath id="11f2043a20"><path d="M 44 13.480469 L 196.84375 13.480469 L 196.84375 220.378906 L 44 220.378906 Z M 44 13.480469 " clip-rule="nonzero"/></clipPath><clipPath id="2362d8400a"><path d="M 22.808594 93 L 176 93 L 176 173 L 22.808594 173 Z M 22.808594 93 " clip-rule="nonzero"/></clipPath><clipPath id="63d71b2f2d"><path d="M 146 14 L 196.84375 14 L 196.84375 102 L 146 102 Z M 146 14 " clip-rule="nonzero"/></clipPath><clipPath id="8818889706"><path d="M 145 13.480469 L 196.84375 13.480469 L 196.84375 65 L 145 65 Z M 145 13.480469 " clip-rule="nonzero"/></clipPath></defs><g clip-path="url(#11f2043a20)"><path fill="#f2f2f2" d="M 196.839844 64.976562 L 196.839844 210.054688 C 196.839844 215.773438 192.210938 220.378906 186.503906 220.378906 L 54.765625 220.378906 C 49.0625 220.378906 44.429688 215.734375 44.429688 210.054688 L 44.429688 23.804688 C 44.429688 18.082031 49.0625 13.480469 54.765625 13.480469 L 145.539062 13.480469 L 153.148438 21.109375 Z M 196.839844 64.976562 " fill-opacity="1" fill-rule="nonzero"/></g><path fill="#cccccc" d="M 175.714844 110.046875 L 175.714844 172.074219 C 175.714844 176.632812 171.996094 180.324219 167.449219 180.324219 L 44.429688 180.324219 L 44.429688 101.753906 L 167.449219 101.753906 C 172.039062 101.753906 175.714844 105.484375 175.714844 110.046875 Z M 175.714844 110.046875 " fill-opacity="1" fill-rule="nonzero"/><g clip-path="url(#2362d8400a)"><path fill="#93278f" d="M 167.492188 172.074219 L 31.078125 172.074219 C 26.53125 172.074219 22.8125 168.34375 22.8125 163.78125 L 22.8125 101.796875 C 22.8125 97.234375 26.53125 93.503906 31.078125 93.503906 L 167.492188 93.503906 C 172.039062 93.503906 175.757812 97.234375 175.757812 101.796875 L 175.757812 163.78125 C 175.757812 168.34375 172.039062 172.074219 167.492188 172.074219 Z M 167.492188 172.074219 " fill-opacity="1" fill-rule="nonzero"/></g><g clip-path="url(#63d71b2f2d)"><path fill="#e6e6e6" d="M 196.839844 101.503906 L 146.367188 51.003906 L 146.367188 14.515625 L 196.839844 64.976562 Z M 196.839844 101.503906 " fill-opacity="1" fill-rule="nonzero"/></g><g clip-path="url(#8818889706)"><path fill="#b3b3b3" d="M 196.839844 64.976562 L 155.875 64.976562 C 150.171875 64.976562 145.539062 60.332031 145.539062 54.652344 L 145.539062 13.480469 L 153.148438 21.109375 Z M 196.839844 64.976562 " fill-opacity="1" fill-rule="nonzero"/></g><path fill="#ffffff" d="M 73.988281 123.066406 L 63.570312 123.066406 C 63.113281 119.75 61.378906 117.550781 57.949219 117.550781 C 55.59375 117.550781 53.9375 118.710938 53.9375 121.15625 C 53.9375 123.6875 55.796875 125.261719 62.371094 126.839844 C 71.175781 128.910156 74.773438 133.304688 74.773438 139.441406 C 74.773438 147.445312 67.125 151.46875 59.105469 151.46875 C 48.976562 151.46875 42.15625 147.402344 41.496094 138.449219 L 51.953125 138.449219 C 52.65625 142.222656 55.714844 143.835938 58.859375 143.835938 C 61.75 143.835938 63.941406 142.34375 63.941406 140.148438 C 63.941406 138.074219 62.453125 136.25 57.535156 135.046875 C 48.441406 132.808594 43.109375 129.949219 43.109375 121.945312 C 43.109375 114.234375 50.300781 109.921875 58.195312 109.921875 C 68.738281 109.964844 73.117188 115.683594 73.988281 123.066406 Z M 73.988281 123.066406 " fill-opacity="1" fill-rule="nonzero"/><path fill="#ffffff" d="M 92.050781 150.679688 L 77.625 110.75 L 88.949219 110.75 L 98.5 142.636719 L 108.089844 110.75 L 119.125 110.75 L 104.699219 150.679688 Z M 92.050781 150.679688 " fill-opacity="1" fill-rule="nonzero"/><path fill="#ffffff" d="M 158.273438 129.410156 L 158.273438 150.71875 L 150.171875 150.71875 L 149.179688 144.585938 L 147.441406 148.980469 C 145.167969 150.886719 142.480469 151.507812 138.222656 151.507812 C 127.558594 151.507812 120.117188 144.460938 120.117188 131.027344 C 120.117188 117.136719 129.503906 109.964844 140.414062 109.964844 C 151.824219 109.964844 157.652344 116.058594 158.480469 123.894531 L 158.519531 124.476562 L 148.105469 124.476562 L 147.980469 123.894531 C 147.113281 119.625 144.507812 117.59375 140.289062 117.59375 C 135.207031 117.59375 130.988281 121.78125 130.988281 130.402344 C 130.988281 140.480469 135.332031 143.878906 140.25 143.878906 C 144.300781 143.878906 146.945312 141.929688 148.394531 137.492188 L 140.621094 137.492188 L 140.621094 129.410156 Z M 158.273438 129.410156 " fill-opacity="1" fill-rule="nonzero"/></svg>