<svg xmlns="http://www.w3.org/2000/svg" xmlns:xlink="http://www.w3.org/1999/xlink" width="600" zoomAndPan="magnify" viewBox="0 0 450 307.91998" height="400" preserveAspectRatio="xMidYMid meet" version="1.0"><defs><clipPath id="7342d8744e"><path d="M 163 82.957031 L 258 82.957031 L 258 202.925781 L 163 202.925781 Z M 163 82.957031 " clip-rule="nonzero"/></clipPath><clipPath id="fca0a6a1a2"><path d="M 232 82.957031 L 258 82.957031 L 258 108 L 232 108 Z M 232 82.957031 " clip-rule="nonzero"/></clipPath></defs><g clip-path="url(#7342d8744e)"><path fill="#d9d9d9" d="M 250.386719 202.925781 L 169.648438 202.925781 C 165.976562 202.925781 163.007812 199.957031 163.007812 196.28125 L 163.007812 89.597656 C 163.007812 85.953125 166.003906 82.957031 169.648438 82.957031 L 234.371094 82.957031 C 234.859375 82.957031 235.316406 83.144531 235.640625 83.46875 L 256.488281 104.046875 C 256.839844 104.394531 257.027344 104.855469 257.027344 105.339844 L 257.027344 142.089844 C 257.027344 143.089844 256.21875 143.898438 255.21875 143.898438 C 254.21875 143.898438 253.410156 143.089844 253.410156 142.089844 L 253.410156 106.097656 L 233.617188 86.601562 L 169.621094 86.601562 C 167.949219 86.601562 166.597656 87.953125 166.597656 89.597656 L 166.597656 196.28125 C 166.597656 197.929688 167.949219 199.28125 169.621094 199.28125 L 250.359375 199.28125 C 252.03125 199.28125 253.382812 197.929688 253.382812 196.28125 L 253.382812 188.777344 C 253.382812 187.777344 254.191406 186.96875 255.191406 186.96875 C 256.191406 186.96875 257 187.777344 257 188.777344 L 257 196.28125 C 257.027344 199.957031 254.058594 202.925781 250.386719 202.925781 Z M 250.386719 202.925781 " fill-opacity="1" fill-rule="evenodd"/></g><g clip-path="url(#fca0a6a1a2)"><path fill="#d9d9d9" d="M 255.21875 107.175781 L 234.398438 107.175781 C 233.402344 107.175781 232.589844 106.367188 232.589844 105.367188 L 232.535156 84.792969 C 232.535156 83.792969 233.347656 82.984375 234.347656 82.984375 C 235.34375 82.984375 236.15625 83.792969 236.15625 84.792969 L 236.183594 103.558594 L 255.21875 103.558594 C 256.21875 103.558594 257.027344 104.367188 257.027344 105.367188 C 257.027344 106.367188 256.21875 107.175781 255.21875 107.175781 Z M 255.21875 107.175781 " fill-opacity="1" fill-rule="evenodd"/></g><path fill="#d9d9d9" d="M 244.308594 141.523438 C 231.050781 141.523438 220.277344 152.242188 220.277344 165.445312 C 220.277344 178.625 231.050781 189.371094 244.308594 189.371094 C 257.566406 189.371094 268.339844 178.652344 268.339844 165.445312 C 268.339844 152.269531 257.566406 141.523438 244.308594 141.523438 Z M 244.308594 192.988281 C 229.054688 192.988281 216.632812 180.621094 216.632812 165.445312 C 216.632812 150.246094 229.054688 137.90625 244.308594 137.90625 C 259.566406 137.90625 271.984375 150.273438 271.984375 165.445312 C 271.984375 180.621094 259.566406 192.988281 244.308594 192.988281 Z M 244.308594 192.988281 " fill-opacity="1" fill-rule="evenodd"/><path fill="#d9d9d9" d="M 229.648438 169.226562 L 237.449219 177.003906 L 258.1875 156.375 L 255.839844 154.050781 L 238.558594 171.253906 C 237.855469 171.953125 236.695312 171.953125 235.992188 171.253906 L 231.835938 167.039062 Z M 237.476562 181.378906 C 237.019531 181.378906 236.558594 181.1875 236.183594 180.839844 L 225.785156 170.496094 C 225.433594 170.144531 225.246094 169.6875 225.246094 169.199219 C 225.246094 168.714844 225.433594 168.253906 225.785156 167.902344 L 230.539062 163.179688 C 231.242188 162.476562 232.402344 162.476562 233.105469 163.179688 L 237.289062 167.335938 L 254.570312 150.136719 C 255.273438 149.433594 256.433594 149.433594 257.136719 150.136719 L 262.050781 155.023438 C 262.402344 155.375 262.589844 155.835938 262.589844 156.320312 C 262.589844 156.804688 262.402344 157.265625 262.050781 157.617188 L 238.746094 180.839844 C 238.394531 181.1875 237.9375 181.378906 237.476562 181.378906 Z M 237.476562 181.378906 " fill-opacity="1" fill-rule="evenodd"/><path fill="#d9d9d9" d="M 178.910156 104.097656 L 221.953125 104.097656 L 221.953125 98.265625 L 178.910156 98.265625 Z M 223.789062 107.746094 L 177.101562 107.746094 C 176.101562 107.746094 175.292969 106.933594 175.292969 105.933594 L 175.292969 96.457031 C 175.292969 95.457031 176.101562 94.648438 177.101562 94.648438 L 223.789062 94.648438 C 224.789062 94.648438 225.597656 95.457031 225.597656 96.457031 L 225.597656 105.933594 C 225.597656 106.933594 224.789062 107.746094 223.789062 107.746094 Z M 223.789062 107.746094 " fill-opacity="1" fill-rule="evenodd"/><path fill="#d9d9d9" d="M 180.289062 124.324219 C 179.828125 124.324219 179.371094 124.160156 179.019531 123.785156 L 175.886719 120.679688 C 175.183594 119.976562 175.183594 118.816406 175.886719 118.113281 C 176.589844 117.410156 177.75 117.410156 178.453125 118.113281 L 180.289062 119.949219 L 187.148438 113.144531 C 187.847656 112.441406 189.011719 112.441406 189.710938 113.144531 C 190.414062 113.847656 190.414062 115.007812 189.710938 115.710938 L 181.585938 123.808594 C 181.207031 124.160156 180.746094 124.324219 180.289062 124.324219 Z M 180.289062 124.324219 " fill-opacity="1" fill-rule="evenodd"/><path fill="#d9d9d9" d="M 242.988281 120.597656 L 195.734375 120.597656 C 194.734375 120.597656 193.925781 119.785156 193.925781 118.789062 C 193.925781 117.789062 194.734375 116.980469 195.734375 116.980469 L 242.988281 116.980469 C 243.984375 116.980469 244.796875 117.789062 244.796875 118.789062 C 244.796875 119.785156 243.984375 120.597656 242.988281 120.597656 Z M 242.988281 120.597656 " fill-opacity="1" fill-rule="evenodd"/><path fill="#d9d9d9" d="M 180.289062 137.960938 C 179.828125 137.960938 179.371094 137.796875 179.019531 137.417969 L 175.886719 134.3125 C 175.183594 133.613281 175.183594 132.449219 175.886719 131.75 C 176.589844 131.046875 177.75 131.046875 178.453125 131.75 L 180.289062 133.585938 L 187.148438 126.78125 C 187.847656 126.078125 189.011719 126.078125 189.710938 126.78125 C 190.414062 127.484375 190.414062 128.644531 189.710938 129.34375 L 181.585938 137.445312 C 181.207031 137.769531 180.746094 137.960938 180.289062 137.960938 Z M 180.289062 137.960938 " fill-opacity="1" fill-rule="evenodd"/><path fill="#d9d9d9" d="M 242.988281 134.234375 L 195.734375 134.234375 C 194.734375 134.234375 193.925781 133.421875 193.925781 132.421875 C 193.925781 131.425781 194.734375 130.613281 195.734375 130.613281 L 242.988281 130.613281 C 243.984375 130.613281 244.796875 131.425781 244.796875 132.421875 C 244.796875 133.394531 243.984375 134.234375 242.988281 134.234375 Z M 242.988281 134.234375 " fill-opacity="1" fill-rule="evenodd"/><path fill="#d9d9d9" d="M 180.289062 151.59375 C 179.828125 151.59375 179.371094 151.433594 179.019531 151.054688 L 175.886719 147.949219 C 175.183594 147.246094 175.183594 146.085938 175.886719 145.382812 C 176.589844 144.683594 177.75 144.683594 178.453125 145.382812 L 180.289062 147.222656 L 187.148438 140.417969 C 187.847656 139.714844 189.011719 139.714844 189.710938 140.417969 C 190.414062 141.117188 190.414062 142.28125 189.710938 142.980469 L 181.585938 151.082031 C 181.207031 151.40625 180.746094 151.59375 180.289062 151.59375 Z M 180.289062 151.59375 " fill-opacity="1" fill-rule="evenodd"/><path fill="#d9d9d9" d="M 227.351562 147.84375 L 195.734375 147.84375 C 194.734375 147.84375 193.925781 147.03125 193.925781 146.03125 C 193.925781 145.035156 194.734375 144.222656 195.734375 144.222656 L 227.351562 144.222656 C 228.351562 144.222656 229.160156 145.035156 229.160156 146.03125 C 229.160156 147.03125 228.351562 147.84375 227.351562 147.84375 Z M 227.351562 147.84375 " fill-opacity="1" fill-rule="evenodd"/><path fill="#d9d9d9" d="M 180.289062 165.203125 C 179.828125 165.203125 179.371094 165.042969 179.019531 164.664062 L 175.886719 161.558594 C 175.183594 160.855469 175.183594 159.695312 175.886719 158.992188 C 176.589844 158.292969 177.75 158.292969 178.453125 158.992188 L 180.289062 160.828125 L 187.148438 154.023438 C 187.847656 153.324219 189.011719 153.324219 189.710938 154.023438 C 190.414062 154.726562 190.414062 155.886719 189.710938 156.589844 L 181.585938 164.691406 C 181.207031 165.042969 180.746094 165.203125 180.289062 165.203125 Z M 180.289062 165.203125 " fill-opacity="1" fill-rule="evenodd"/><path fill="#d9d9d9" d="M 219.117188 161.476562 L 195.734375 161.476562 C 194.734375 161.476562 193.925781 160.667969 193.925781 159.667969 C 193.925781 158.667969 194.734375 157.859375 195.734375 157.859375 L 219.117188 157.859375 C 220.117188 157.859375 220.925781 158.667969 220.925781 159.667969 C 220.953125 160.667969 220.117188 161.476562 219.117188 161.476562 Z M 219.117188 161.476562 " fill-opacity="1" fill-rule="evenodd"/><path fill="#d9d9d9" d="M 180.289062 178.839844 C 179.828125 178.839844 179.371094 178.652344 179.019531 178.300781 L 175.886719 175.195312 C 175.183594 174.492188 175.183594 173.332031 175.886719 172.628906 C 176.589844 171.925781 177.75 171.925781 178.453125 172.628906 L 180.289062 174.464844 L 187.148438 167.660156 C 187.847656 166.960938 189.011719 166.960938 189.710938 167.660156 C 190.414062 168.363281 190.414062 169.523438 189.710938 170.226562 L 181.585938 178.328125 C 181.207031 178.652344 180.746094 178.839844 180.289062 178.839844 Z M 180.289062 178.839844 " fill-opacity="1" fill-rule="evenodd"/><path fill="#d9d9d9" d="M 219.683594 175.085938 L 195.734375 175.085938 C 194.734375 175.085938 193.925781 174.277344 193.925781 173.277344 C 193.925781 172.277344 194.734375 171.46875 195.734375 171.46875 L 219.683594 171.46875 C 220.683594 171.46875 221.492188 172.277344 221.492188 173.277344 C 221.492188 174.277344 220.683594 175.085938 219.683594 175.085938 Z M 219.683594 175.085938 " fill-opacity="1" fill-rule="evenodd"/><path fill="#d9d9d9" d="M 180.289062 192.449219 C 179.828125 192.449219 179.371094 192.257812 179.019531 191.910156 L 175.886719 188.804688 C 175.183594 188.101562 175.183594 186.941406 175.886719 186.238281 C 176.589844 185.535156 177.75 185.535156 178.453125 186.238281 L 180.289062 188.074219 L 187.148438 181.269531 C 187.847656 180.566406 189.011719 180.566406 189.710938 181.269531 C 190.414062 181.972656 190.414062 183.132812 189.710938 183.835938 L 181.585938 191.9375 C 181.207031 192.285156 180.746094 192.449219 180.289062 192.449219 Z M 180.289062 192.449219 " fill-opacity="1" fill-rule="evenodd"/><path fill="#d9d9d9" d="M 230.050781 188.722656 L 195.734375 188.722656 C 194.734375 188.722656 193.925781 187.914062 193.925781 186.914062 C 193.925781 185.914062 194.734375 185.105469 195.734375 185.105469 L 230.050781 185.105469 C 231.050781 185.105469 231.863281 185.914062 231.863281 186.914062 C 231.886719 187.914062 231.050781 188.722656 230.050781 188.722656 Z M 230.050781 188.722656 " fill-opacity="1" fill-rule="evenodd"/></svg>