<svg xmlns="http://www.w3.org/2000/svg" xmlns:xlink="http://www.w3.org/1999/xlink" width="600" zoomAndPan="magnify" viewBox="0 0 450 307.91998" height="400" preserveAspectRatio="xMidYMid meet" version="1.0"><defs><clipPath id="0c2eff9675"><path d="M 177 138 L 302.804688 138 L 302.804688 209.945312 L 177 209.945312 Z M 177 138 " clip-rule="nonzero"/></clipPath><clipPath id="16e582bc69"><path d="M 146.84375 90 L 283 90 L 283 197 L 146.84375 197 Z M 146.84375 90 " clip-rule="nonzero"/></clipPath></defs><path fill="#d9d9d9" d="M 270.890625 208.90625 C 269.714844 208.90625 268.753906 207.945312 268.753906 206.773438 L 268.753906 140.570312 C 268.753906 139.394531 269.714844 138.433594 270.890625 138.433594 C 272.0625 138.433594 273.023438 139.394531 273.023438 140.570312 L 273.023438 206.773438 C 273.023438 207.945312 272.0625 208.90625 270.890625 208.90625 Z M 270.890625 208.90625 " fill-opacity="1" fill-rule="nonzero"/><path fill="#d9d9d9" d="M 251.609375 163.621094 L 203.550781 163.621094 C 202.375 163.621094 201.414062 162.660156 201.414062 161.488281 C 201.414062 160.3125 202.375 159.351562 203.550781 159.351562 L 251.609375 159.351562 C 252.78125 159.351562 253.742188 160.3125 253.742188 161.488281 C 253.742188 162.660156 252.78125 163.621094 251.609375 163.621094 Z M 251.609375 163.621094 " fill-opacity="1" fill-rule="nonzero"/><path fill="#d9d9d9" d="M 251.609375 176.285156 L 203.550781 176.285156 C 202.375 176.285156 201.414062 175.324219 201.414062 174.152344 C 201.414062 172.976562 202.375 172.015625 203.550781 172.015625 L 251.609375 172.015625 C 252.78125 172.015625 253.742188 172.976562 253.742188 174.152344 C 253.742188 175.324219 252.78125 176.285156 251.609375 176.285156 Z M 251.609375 176.285156 " fill-opacity="1" fill-rule="nonzero"/><path fill="#d9d9d9" d="M 236.171875 188.949219 L 203.550781 188.949219 C 202.375 188.949219 201.414062 187.988281 201.414062 186.816406 C 201.414062 185.640625 202.375 184.679688 203.550781 184.679688 L 236.171875 184.679688 C 237.34375 184.679688 238.304688 185.640625 238.304688 186.816406 C 238.304688 187.988281 237.34375 188.949219 236.171875 188.949219 Z M 236.171875 188.949219 " fill-opacity="1" fill-rule="nonzero"/><g clip-path="url(#0c2eff9675)"><path fill="#d9d9d9" d="M 294.972656 209.867188 L 185.40625 209.867188 C 180.886719 209.867188 177.222656 206.203125 177.222656 201.683594 L 177.222656 187.027344 C 177.222656 185.855469 178.183594 184.894531 179.359375 184.894531 C 185.265625 184.894531 190.101562 180.09375 190.101562 174.152344 C 190.101562 168.246094 185.300781 163.40625 179.359375 163.40625 C 178.183594 163.40625 177.222656 162.449219 177.222656 161.273438 L 177.222656 146.617188 C 177.222656 142.097656 180.886719 138.433594 185.40625 138.433594 L 294.972656 138.433594 C 299.492188 138.433594 303.15625 142.097656 303.15625 146.617188 L 303.15625 161.34375 C 303.15625 161.949219 302.90625 162.519531 302.445312 162.945312 C 301.980469 163.335938 301.414062 163.550781 300.808594 163.480469 C 300.417969 163.445312 300.023438 163.40625 299.667969 163.40625 C 293.765625 163.40625 288.925781 168.210938 288.925781 174.152344 C 288.925781 180.054688 293.726562 184.894531 299.667969 184.894531 C 300.023438 184.894531 300.417969 184.859375 300.808594 184.824219 C 301.414062 184.753906 302.015625 184.964844 302.445312 185.355469 C 302.90625 185.75 303.15625 186.351562 303.15625 186.957031 L 303.15625 201.683594 C 303.15625 206.203125 299.457031 209.867188 294.972656 209.867188 Z M 181.492188 189.019531 L 181.492188 201.683594 C 181.492188 203.855469 183.238281 205.597656 185.40625 205.597656 L 294.972656 205.597656 C 297.144531 205.597656 298.886719 203.855469 298.886719 201.683594 L 298.886719 189.128906 C 290.953125 188.738281 284.65625 182.15625 284.65625 174.152344 C 284.65625 166.148438 290.988281 159.566406 298.886719 159.175781 L 298.886719 146.617188 C 298.886719 144.445312 297.144531 142.703125 294.972656 142.703125 L 185.40625 142.703125 C 183.238281 142.703125 181.492188 144.445312 181.492188 146.617188 L 181.492188 159.28125 C 188.75 160.3125 194.371094 166.574219 194.371094 174.152344 C 194.371094 181.691406 188.785156 187.953125 181.492188 189.019531 Z M 181.492188 189.019531 " fill-opacity="1" fill-rule="nonzero"/></g><g clip-path="url(#16e582bc69)"><path fill="#d9d9d9" d="M 174.554688 196.742188 C 171.246094 196.742188 168.117188 194.710938 166.90625 191.476562 L 161.714844 177.78125 C 161.289062 176.675781 161.855469 175.433594 162.960938 175.039062 C 168.507812 172.941406 171.285156 166.714844 169.183594 161.203125 C 167.085938 155.652344 160.859375 152.878906 155.347656 154.976562 C 154.242188 155.402344 153 154.835938 152.605469 153.730469 L 147.378906 140 C 145.777344 135.765625 147.910156 131.035156 152.109375 129.46875 L 254.5625 90.589844 C 256.589844 89.804688 258.832031 89.878906 260.824219 90.765625 C 262.816406 91.65625 264.34375 93.292969 265.128906 95.320312 L 270.355469 109.085938 C 270.570312 109.65625 270.535156 110.261719 270.25 110.828125 C 269.964844 111.363281 269.503906 111.753906 268.898438 111.933594 C 268.542969 112.039062 268.152344 112.144531 267.796875 112.289062 C 265.128906 113.285156 262.992188 115.3125 261.820312 117.910156 C 260.644531 120.507812 260.539062 123.421875 261.570312 126.125 C 262.601562 128.792969 264.59375 130.929688 267.191406 132.101562 C 269.824219 133.277344 272.738281 133.382812 275.40625 132.351562 C 275.800781 132.210938 276.15625 132.066406 276.441406 131.890625 C 276.972656 131.605469 277.613281 131.570312 278.183594 131.820312 C 278.75 132.03125 279.179688 132.496094 279.390625 133.0625 L 281.953125 139.824219 C 282.203125 140.460938 282.097656 141.210938 281.703125 141.777344 C 281.3125 142.347656 280.636719 142.703125 279.960938 142.703125 L 185.40625 142.703125 C 183.238281 142.703125 181.492188 144.445312 181.492188 146.617188 L 181.492188 159.28125 C 188.75 160.3125 194.371094 166.574219 194.371094 174.152344 C 194.371094 181.691406 188.75 187.953125 181.492188 189.019531 L 181.492188 193.21875 C 181.492188 194.109375 180.960938 194.890625 180.105469 195.210938 L 177.4375 196.207031 C 176.511719 196.5625 175.515625 196.742188 174.554688 196.742188 Z M 166.410156 178.101562 L 170.890625 189.945312 C 171.640625 191.972656 173.917969 192.96875 175.945312 192.222656 L 177.222656 191.722656 L 177.222656 186.992188 C 177.222656 185.820312 178.183594 184.859375 179.359375 184.859375 C 185.265625 184.859375 190.101562 180.054688 190.101562 174.117188 C 190.101562 168.210938 185.300781 163.371094 179.359375 163.371094 C 178.183594 163.371094 177.222656 162.410156 177.222656 161.238281 L 177.222656 146.582031 C 177.222656 142.0625 180.886719 138.398438 185.40625 138.398438 L 276.902344 138.398438 L 276.226562 136.585938 C 272.667969 137.722656 268.898438 137.511719 265.484375 135.980469 C 261.820312 134.34375 259.042969 131.355469 257.621094 127.621094 C 256.199219 123.886719 256.304688 119.792969 257.976562 116.128906 C 259.507812 112.714844 262.210938 110.046875 265.625 108.554688 L 261.179688 96.8125 C 260.824219 95.851562 260.074219 95.070312 259.113281 94.644531 C 258.15625 94.21875 257.085938 94.179688 256.125 94.539062 L 153.675781 133.382812 C 151.648438 134.128906 150.652344 136.40625 151.398438 138.433594 L 155.878906 150.316406 C 163.03125 148.714844 170.5 152.59375 173.167969 159.636719 C 175.871094 166.714844 172.847656 174.542969 166.410156 178.101562 Z M 166.410156 178.101562 " fill-opacity="1" fill-rule="nonzero"/></g><path fill="#d9d9d9" d="M 247.019531 140.746094 C 246.167969 140.746094 245.347656 140.214844 245.027344 139.359375 L 230.832031 101.902344 C 230.40625 100.796875 230.976562 99.554688 232.078125 99.160156 C 233.183594 98.734375 234.425781 99.304688 234.816406 100.40625 L 249.011719 137.867188 C 249.4375 138.96875 248.871094 140.214844 247.765625 140.605469 C 247.519531 140.675781 247.269531 140.746094 247.019531 140.746094 Z M 247.019531 140.746094 " fill-opacity="1" fill-rule="nonzero"/></svg>