<svg xmlns="http://www.w3.org/2000/svg" xmlns:xlink="http://www.w3.org/1999/xlink" width="300" zoomAndPan="magnify" viewBox="0 0 224.87999 233.04" height="300" preserveAspectRatio="xMidYMid meet" version="1.0"><defs><clipPath id="4e2ef1578e"><path d="M 44.085938 17.375 L 180.769531 17.375 L 180.769531 206 L 44.085938 206 Z M 44.085938 17.375 " clip-rule="nonzero"/></clipPath><clipPath id="eb9c8177c9"><path d="M 44.085938 167 L 113 167 L 113 206.34375 L 44.085938 206.34375 Z M 44.085938 167 " clip-rule="nonzero"/></clipPath><clipPath id="0462c88f02"><path d="M 44.085938 89 L 113 89 L 113 128 L 44.085938 128 Z M 44.085938 89 " clip-rule="nonzero"/></clipPath><clipPath id="4d916ea574"><path d="M 112 89 L 180.769531 89 L 180.769531 128 L 112 128 Z M 112 89 " clip-rule="nonzero"/></clipPath><clipPath id="96b1c5bcc8"><path d="M 44.085938 127 L 113 127 L 113 180 L 44.085938 180 Z M 44.085938 127 " clip-rule="nonzero"/></clipPath><clipPath id="7f86aef8a0"><path d="M 112 127 L 180.769531 127 L 180.769531 180 L 112 180 Z M 112 127 " clip-rule="nonzero"/></clipPath><clipPath id="94cf9ddfd1"><path d="M 44.085938 49 L 113 49 L 113 90 L 44.085938 90 Z M 44.085938 49 " clip-rule="nonzero"/></clipPath><clipPath id="90f72a4cd3"><path d="M 112 49 L 180.769531 49 L 180.769531 90 L 112 90 Z M 112 49 " clip-rule="nonzero"/></clipPath><clipPath id="0dbac06d46"><path d="M 44.085938 17.375 L 113 17.375 L 113 57 L 44.085938 57 Z M 44.085938 17.375 " clip-rule="nonzero"/></clipPath><clipPath id="304476585e"><path d="M 112 17.375 L 167 17.375 L 167 50 L 112 50 Z M 112 17.375 " clip-rule="nonzero"/></clipPath><clipPath id="acc71b3364"><path d="M 133 17.375 L 180.769531 17.375 L 180.769531 65 L 133 65 Z M 133 17.375 " clip-rule="nonzero"/></clipPath><clipPath id="7f19d34afe"><path d="M 112 167 L 180.769531 167 L 180.769531 206.34375 L 112 206.34375 Z M 112 167 " clip-rule="nonzero"/></clipPath></defs><g clip-path="url(#4e2ef1578e)"><path fill="#33d481" d="M 180.769531 65.003906 L 180.769531 193.039062 C 180.769531 199.988281 175.074219 205.675781 168.113281 205.675781 L 56.742188 205.675781 C 49.78125 205.675781 44.085938 199.988281 44.085938 193.039062 L 44.085938 30.257812 C 44.085938 23.308594 49.78125 17.625 56.742188 17.625 L 133.734375 17.625 L 165.792969 49.84375 L 180.347656 64.585938 Z M 180.769531 65.003906 " fill-opacity="1" fill-rule="nonzero"/></g><path fill="#ffffff" d="M 74.039062 90.484375 L 151.238281 90.484375 L 151.238281 101.648438 L 74.039062 101.648438 Z M 74.039062 90.484375 " fill-opacity="1" fill-rule="nonzero"/><path fill="#ffffff" d="M 74.039062 115.964844 L 151.238281 115.964844 L 151.238281 127.128906 L 74.039062 127.128906 Z M 74.039062 115.964844 " fill-opacity="1" fill-rule="nonzero"/><path fill="#ffffff" d="M 74.039062 141.445312 L 129.515625 141.445312 L 129.515625 152.609375 L 74.039062 152.609375 Z M 74.039062 141.445312 " fill-opacity="1" fill-rule="nonzero"/><g clip-path="url(#eb9c8177c9)"><path fill="#195d38" d="M 44.085938 198.515625 C 44.085938 202.726562 47.460938 206.09375 51.679688 206.09375 L 112.640625 206.09375 L 112.640625 167.136719 L 44.085938 167.136719 Z M 44.085938 198.515625 " fill-opacity="1" fill-rule="nonzero"/></g><g clip-path="url(#0462c88f02)"><path fill="#107c42" d="M 44.085938 89.011719 L 112.429688 89.011719 L 112.429688 127.96875 L 44.085938 127.96875 Z M 44.085938 89.011719 " fill-opacity="1" fill-rule="nonzero"/></g><g clip-path="url(#4d916ea574)"><path fill="#21a365" d="M 180.769531 89.011719 L 112.429688 89.011719 L 112.429688 127.96875 L 180.769531 127.96875 Z M 180.769531 89.011719 " fill-opacity="1" fill-rule="nonzero"/></g><g clip-path="url(#96b1c5bcc8)"><path fill="#195d38" d="M 44.085938 127.96875 L 112.429688 127.96875 L 112.429688 179.351562 L 44.085938 179.351562 Z M 44.085938 127.96875 " fill-opacity="1" fill-rule="nonzero"/></g><g clip-path="url(#7f86aef8a0)"><path fill="#107c42" d="M 112.429688 127.96875 L 180.769531 127.96875 L 180.769531 179.351562 L 112.429688 179.351562 Z M 112.429688 127.96875 " fill-opacity="1" fill-rule="nonzero"/></g><g clip-path="url(#94cf9ddfd1)"><path fill="#21a365" d="M 44.085938 49.84375 L 112.429688 49.84375 L 112.429688 89.011719 L 44.085938 89.011719 Z M 44.085938 49.84375 " fill-opacity="1" fill-rule="nonzero"/></g><g clip-path="url(#90f72a4cd3)"><path fill="#33c481" d="M 180.769531 64.792969 L 180.769531 89.011719 L 112.429688 89.011719 L 112.429688 49.84375 L 166.003906 49.84375 L 166.214844 50.054688 Z M 180.769531 64.792969 " fill-opacity="1" fill-rule="nonzero"/></g><g clip-path="url(#0dbac06d46)"><path fill="#33c481" d="M 112.429688 17.625 L 112.429688 49.84375 L 44.085938 49.84375 L 44.085938 56.582031 L 44.085938 24.996094 C 44.085938 20.992188 47.460938 17.625 51.679688 17.625 Z M 112.429688 17.625 " fill-opacity="1" fill-rule="nonzero"/></g><g clip-path="url(#304476585e)"><path fill="#4dda81" d="M 166.003906 49.84375 L 112.429688 49.84375 L 112.429688 17.625 L 133.734375 17.625 Z M 166.003906 49.84375 " fill-opacity="1" fill-rule="nonzero"/></g><g clip-path="url(#acc71b3364)"><path fill="#221f1f" d="M 180.769531 64.792969 L 133.734375 64.792969 L 133.734375 17.625 L 165.792969 49.632812 L 165.792969 49.84375 L 180.347656 64.375 Z M 180.769531 64.792969 " fill-opacity="0.35" fill-rule="nonzero"/></g><path fill="#ffffff" d="M 94.5 142.710938 L 88.171875 133.023438 L 82.476562 142.710938 L 73.828125 142.710938 L 83.953125 126.707031 L 73.617188 111.332031 L 82.476562 111.332031 L 88.804688 120.808594 L 94.289062 111.332031 L 103.148438 111.332031 L 93.023438 127.128906 L 103.359375 142.710938 Z M 94.5 142.710938 " fill-opacity="1" fill-rule="nonzero"/><path fill="#ffffff" d="M 114.960938 136.8125 L 125.085938 136.8125 L 125.085938 142.710938 L 107.367188 142.710938 L 107.367188 111.332031 L 114.960938 111.332031 Z M 114.960938 136.8125 " fill-opacity="1" fill-rule="nonzero"/><path fill="#ffffff" d="M 133.945312 141.867188 C 132.046875 141.027344 130.570312 139.972656 129.515625 138.5 C 128.460938 137.023438 127.828125 135.339844 127.828125 133.234375 L 136.054688 133.234375 C 136.265625 134.496094 136.476562 135.339844 137.320312 135.972656 C 137.953125 136.601562 139.007812 136.8125 140.0625 136.8125 C 141.117188 136.8125 142.171875 136.601562 142.804688 135.972656 C 143.4375 135.550781 143.859375 134.707031 143.859375 133.867188 C 143.859375 133.023438 143.648438 132.390625 143.015625 131.96875 C 142.382812 131.550781 141.75 131.128906 141.117188 130.707031 C 140.273438 130.285156 139.21875 130.074219 137.953125 129.652344 C 135.84375 129.023438 134.367188 128.390625 132.890625 127.757812 C 131.625 127.128906 130.570312 126.285156 129.515625 125.019531 C 128.671875 123.757812 128.039062 122.285156 128.039062 120.179688 C 128.039062 117.230469 129.09375 114.914062 131.203125 113.230469 C 133.3125 111.542969 136.054688 110.703125 139.429688 110.703125 C 142.804688 110.703125 145.753906 111.542969 147.863281 113.230469 C 149.972656 114.914062 151.027344 117.230469 151.238281 120.179688 L 143.011719 120.179688 C 143.011719 119.125 142.589844 118.28125 141.960938 117.863281 C 141.328125 117.230469 140.484375 117.019531 139.21875 117.019531 C 138.375 117.019531 137.53125 117.230469 136.898438 117.863281 C 136.265625 118.28125 136.054688 119.125 136.054688 119.96875 C 136.054688 121.019531 136.476562 121.863281 137.53125 122.285156 C 138.585938 122.914062 140.0625 123.546875 141.960938 124.179688 C 144.066406 124.8125 145.542969 125.441406 146.808594 126.074219 C 148.074219 126.707031 149.128906 127.546875 150.183594 128.8125 C 151.027344 130.074219 151.660156 131.550781 151.660156 133.445312 C 151.660156 135.128906 151.238281 136.8125 150.394531 138.289062 C 149.550781 139.761719 148.074219 140.816406 146.386719 141.867188 C 144.699219 142.710938 142.589844 143.132812 140.273438 143.132812 C 137.742188 143.132812 135.84375 142.710938 133.945312 141.867188 Z M 133.945312 141.867188 " fill-opacity="1" fill-rule="nonzero"/><g clip-path="url(#7f19d34afe)"><path fill="#195d38" d="M 173.386719 206.09375 C 177.394531 206.09375 180.769531 202.726562 180.769531 198.515625 L 180.769531 167.136719 L 112.429688 167.136719 L 112.429688 206.09375 Z M 173.386719 206.09375 " fill-opacity="1" fill-rule="nonzero"/></g></svg>